<svg xmlns="http://www.w3.org/2000/svg" width="50" height="50" viewBox="0 0 50 50">
    <g fill="none" fill-rule="evenodd">
        <rect width="48.485" height="48.485" x=".758" y=".758" fill="#ECECEC" fill-rule="nonzero" opacity=".7" rx="24.242"/>
        <path fill="#7B7B7B" d="M23.287 36.57c.285.856 1.079 1.467 1.994 1.507.928-.04 1.722-.651 2.007-1.507h-4.001zm2.657-22.798c0-.384-.292-.705-.638-.748-.383.043-.676.364-.676.748s.293.704.64.748c.382-.044.674-.364.674-.748zm6.192 3.644c.274.42.212.818-.107 1.035-.281.193-.681.176-.88-.062-1.49-1.567-3.553-2.47-5.758-2.47-.03 0-.03 0-.058-.002h-.019l-.02-.003-.034.002c-.036.002-.054.002-.076.002-4.376 0-7.936 3.55-7.936 7.911v6.215c0 1.129-.482 2.214-1.322 2.98-.257.234-.405.568-.405.916 0 .685.56 1.242 1.246 1.242h17.041c.687 0 1.246-.557 1.246-1.242 0-.347-.148-.682-.405-.916-.84-.766-1.322-1.85-1.322-2.98v-6.215c0-.53-.052-1.052-.158-1.593 0-.98.993-1.165 1.341-.373.139.64.21 1.298.21 1.966v6.215c0 .739.316 1.452.867 1.954.546.497.859 1.205.859 1.942 0 1.45-1.184 2.63-2.638 2.63h-4.876c-.328 1.67-1.806 2.905-3.54 2.905-.024 0-.043-.001-.074-.006h-.004c-.02-.004-.026-.004-.02-.004l-.03.003c-.035.005-.055.007-.08.007-1.735 0-3.214-1.234-3.543-2.905h-4.874c-1.455 0-2.638-1.18-2.638-2.63 0-.737.313-1.445.859-1.942.552-.502.868-1.215.868-1.954v-6.215c0-4.418 3.128-8.202 7.402-9.1-.148-.294-.227-.62-.227-.957 0-1.184.965-2.146 2.153-2.146.025 0 .044.002.08.007l.018.003.029-.003c.037-.005.054-.007.08-.007 1.188 0 2.153.962 2.153 2.146 0 .337-.079.663-.227.958 1.836.386 3.506 1.318 4.82 2.686zM19.187 23.28v-.156c.384 0 .696.31.696.694v.011c0 .383-.312.694-.696.694-.385 0-.696-.31-.696-.694v-.011c0-.384.312-.694.696-.694v.156zm1.118-1.532l-.143-.06.143.061c-.11.258-.364.423-.64.423-.093 0-.185-.02-.272-.056-.354-.149-.519-.557-.369-.91 1.06-2.487 3.495-4.094 6.205-4.094.385 0 .697.31.697.694 0 .383-.312.694-.697.694-2.15 0-4.083 1.275-4.924 3.248zm12.661-1.392v.156c-.38 0-.688-.308-.688-.688 0-.38.308-.688.688-.688.38 0 .689.307.689.688 0 .38-.309.688-.689.688v-.156z"/>
    </g>
</svg>
