<svg xmlns="http://www.w3.org/2000/svg" xmlns:xlink="http://www.w3.org/1999/xlink" width="60" height="60" viewBox="0 0 60 60">
    <defs>
        <filter id="prefix__a" width="163.6%" height="163.6%" x="-31.8%" y="-24.9%" filterUnits="objectBoundingBox">
            <feOffset dy="4" in="SourceAlpha" result="shadowOffsetOuter1"/>
            <feGaussianBlur in="shadowOffsetOuter1" result="shadowBlurOuter1" stdDeviation="5.5"/>
            <feColorMatrix in="shadowBlurOuter1" values="0 0 0 0 0 0 0 0 0 0 0 0 0 0 0 0 0 0 0.1 0"/>
        </filter>
        <rect id="prefix__b" width="58.182" height="58.182" x=".909" y=".909" rx="29.091"/>
    </defs>
    <g fill="none" fill-rule="evenodd">
        <use fill="#000" filter="url(#prefix__a)" xlink:href="#prefix__b"/>
        <use fill="#FF6C7E" xlink:href="#prefix__b"/>
        <path fill="#FFF" d="M28.182 28.182v-10c0-1.004.814-1.818 1.818-1.818s1.818.814 1.818 1.818v10h10c1.004 0 1.818.814 1.818 1.818s-.814 1.818-1.818 1.818h-10v10c0 1.004-.814 1.818-1.818 1.818s-1.818-.814-1.818-1.818v-10h-10c-1.004 0-1.818-.814-1.818-1.818s.814-1.818 1.818-1.818h10z"/>
    </g>
</svg>
