<svg xmlns="http://www.w3.org/2000/svg" width="30" height="30" viewBox="0 0 30 30">
    <g fill="none" fill-rule="evenodd">
        <g>
            <g transform="translate(-993 -315) translate(993 315)">
                <circle cx="15" cy="15" r="14.348" fill="#FF6C7E" fill-rule="nonzero"/>
                <path fill="#FFF" d="M13.696 13.696V8.478c0-.72.584-1.304 1.304-1.304.72 0 1.304.584 1.304 1.304v5.218h5.218c.72 0 1.304.584 1.304 1.304 0 .72-.584 1.304-1.304 1.304h-5.218v5.218c0 .72-.584 1.304-1.304 1.304-.72 0-1.304-.584-1.304-1.304v-5.218H8.478c-.72 0-1.304-.584-1.304-1.304 0-.72.584-1.304 1.304-1.304h5.218z"/>
            </g>
        </g>
    </g>
</svg>
