<svg xmlns="http://www.w3.org/2000/svg" width="20" height="20" viewBox="0 0 20 20">
    <path fill="#A0A0A0" d="M9.963 15.418c-.413 0-.748-.335-.748-.747 0-.413.335-.748.748-.748.412 0 .747.335.747.748 0 .412-.335.747-.747.747zm.747-3.363v-1.003c1.445-.35 2.446-1.66 2.389-3.143-.062-1.615-1.387-2.927-3.015-2.988-.87-.033-1.692.279-2.313.877-.61.588-.947 1.377-.947 2.222 0 .412.335.747.747.747.413 0 .748-.335.748-.747 0-.435.173-.842.488-1.146.326-.314.76-.477 1.22-.46.853.032 1.546.714 1.578 1.552.03.781-.509 1.471-1.282 1.641-.652.143-1.108.707-1.108 1.371v1.077c0 .413.335.747.748.747.412 0 .747-.334.747-.747zm4.24 6.132c.352-.214.465-.674.251-1.027-.214-.353-.673-.465-1.026-.252-1.255.76-2.699 1.163-4.175 1.163-4.45 0-8.07-3.62-8.07-8.071 0-4.45 3.62-8.07 8.07-8.07s8.07 3.62 8.07 8.07c0 1.591-.473 3.14-1.368 4.48-.23.342-.137.807.206 1.036.343.23.807.137 1.037-.206 1.06-1.586 1.62-3.422 1.62-5.31 0-2.555-.995-4.957-2.801-6.764C14.957 1.43 12.554.435 10 .435c-2.555 0-4.957.995-6.764 2.801C1.43 5.043.435 7.446.435 10c0 2.555.995 4.957 2.801 6.764 1.807 1.806 4.21 2.801 6.764 2.801 1.75 0 3.46-.476 4.95-1.378z"/>
</svg>
