<svg xmlns="http://www.w3.org/2000/svg" width="30" height="30" viewBox="0 0 30 30">
    <g fill="none" fill-rule="evenodd">
        <circle cx="15" cy="15" r="13.696" fill="#FFF" stroke="#FF6C7E" stroke-width="1.304"/>
        <circle cx="15" cy="11.739" r="3.913" fill="#FF6C7E"/>
        <path fill="#FF6C7E" fill-rule="nonzero" d="M7.941 23.478c-.424 0-.767-.337-.767-.754 0-2.97 1.734-5.64 4.406-6.923l.425-.204-.356-.307c-1.097-.946-1.738-2.305-1.738-3.762 0-2.76 2.283-5.006 5.089-5.006 2.806 0 5.089 2.246 5.089 5.006 0 1.457-.641 2.816-1.738 3.762l-.356.307.425.204c2.672 1.283 4.406 3.954 4.406 6.923 0 .417-.343.754-.767.754-.425 0-.768-.337-.768-.754 0-3.414-2.822-6.19-6.291-6.19-3.469 0-6.291 2.776-6.291 6.19 0 .417-.343.754-.768.754zm3.505-11.95c0 1.929 1.594 3.498 3.554 3.498 1.96 0 3.554-1.569 3.554-3.498 0-1.93-1.594-3.499-3.554-3.499-1.96 0-3.554 1.569-3.554 3.499z"/>
    </g>
</svg>
