<svg xmlns="http://www.w3.org/2000/svg" width="70" height="70" viewBox="0 0 70 70">
    <g fill="none" transform="translate(.486 .486)">
        <circle cx="34.514" cy="34.514" r="34.514" fill="#FFF"/>
        <circle cx="34.514" cy="34.514" r="32.611" fill="#56C6D0" stroke="#8CD8DF" stroke-width="3.805"/>
        <g>
            <path fill="#FFF" d="M39.877 3.584c1.108 1.12 1.109 2.946.002 4.068L15.16 32.72c-.537.545-1.252.845-2.012.845h-.002c-.76 0-1.474-.3-2.011-.843L.832 22.296c-1.11-1.122-1.11-2.949 0-4.07l2.644-2.677c1.11-1.122 2.914-1.122 4.023 0l5.619 5.685L33.208.906c1.11-1.122 2.914-1.122 4.023 0l2.646 2.678z" transform="translate(14.16 17.7)"/>
            <path fill="#56C6D0" d="M22.873 20.172c-.317-.32-.83-.32-1.147 0l-.254.256c-.317.32-.317.84 0 1.16.158.161.366.241.573.241.208 0 .415-.08.574-.24l.254-.257c.316-.32.316-.84 0-1.16zM20.504 22.568c-.317-.32-.83-.32-1.147 0l-6.513 6.59c-.317.321-.317.841 0 1.161.158.16.366.24.573.24.208 0 .415-.08.574-.24l6.513-6.59c.317-.32.317-.84 0-1.16z" transform="translate(14.16 17.7)"/>
        </g>
    </g>
</svg>
