<svg xmlns="http://www.w3.org/2000/svg" width="20" height="20" viewBox="0 0 20 20">
    <g fill="none" transform="translate(.436 .436)">
        <circle cx="9.586" cy="9.586" r="9.586" fill="#32322E" opacity=".7"/>
        <path fill="#D8D8D8" d="M9.556 8.427l2.601-2.601c.312-.312.818-.312 1.13 0 .312.312.312.818 0 1.13l-2.6 2.6 2.6 2.601c.312.312.312.818 0 1.13-.312.312-.818.312-1.13 0l-2.6-2.6-2.601 2.6c-.312.312-.818.312-1.13 0-.312-.312-.312-.818 0-1.13l2.6-2.6-2.6-2.601c-.312-.312-.312-.818 0-1.13.312-.312.818-.312 1.13 0l2.6 2.6z"/>
    </g>
</svg>
