<svg xmlns="http://www.w3.org/2000/svg" xmlns:xlink="http://www.w3.org/1999/xlink" width="260" height="260" viewBox="0 0 260 260">
    <defs>
        <circle id="prefix__a" cx="125" cy="125" r="125"/>
        <path id="prefix__c" d="M134.258 38.936c-.539-2.783-4.569-2.974-5.788-.413L112.886 71.24c-.457.958-1.37 1.62-2.424 1.753l-44.06 5.546c-.995.126-1.99-.235-2.673-.972L37.74 49.584c-.368-.397-.793-.668-1.239-.826-.109-.04-1.114-.383-2.168.039-1.102.439-1.868 1.56-1.992 2.873-.842 10.46-2.027 36.029-2.129 47.277-.113 12.492-.997 51.154 0 87.34.865 31.384 3.573 61.125 4.121 67.604 11.742.513 87.622 9.44 134.667-4.891 0-2.428-2.566-30.139-8.297-65.531-8.168-50.445-20.957-116.243-26.445-144.533z"/>
    </defs>
    <g fill="none" fill-rule="evenodd" transform="translate(5 5)">
        <circle cx="125" cy="125" r="125"/>
        <mask id="prefix__b" fill="#fff">
            <use xlink:href="#prefix__a"/>
        </mask>
        <use fill="#FFF" xlink:href="#prefix__a"/>
        <g mask="url(#prefix__b)">
            <g>
                <path fill="#FFF" d="M134.258 38.936c-.539-2.783-4.569-2.974-5.788-.413L112.886 71.24c-.457.958-1.37 1.62-2.424 1.753l-44.06 5.546c-.995.126-1.99-.235-2.673-.972L37.74 49.584c-.368-.397-.793-.668-1.239-.826-.109-.04-1.114-.383-2.168.039-1.102.439-1.868 1.56-1.992 2.873-.842 10.46-2.027 36.029-2.129 47.277-.113 12.492-.997 51.154 0 87.34.865 31.384 3.573 61.125 4.121 67.604 11.742.513 87.622 9.44 134.667-4.891 0-2.428-2.566-30.139-8.297-65.531-8.168-50.445-20.957-116.243-26.445-144.533z" transform="rotate(3 -453.233 754.515)"/>
                <g transform="rotate(3 -453.233 754.515)">
                    <mask id="prefix__d" fill="#fff">
                        <use xlink:href="#prefix__c"/>
                    </mask>
                    <path fill="#7B7B7B" d="M27.08 134.063c9.203 3.554 17.465 2.143 22.159 1.283 4.462-.82 14.356-2.77 23.05-11.049 11.033-10.503 12.525-23.943 12.81-27.685-.155-1.58 1.015-2.852 2.26-2.875.945-.02 1.884.68 2.252 1.742.946 2.466 7.524 18.794 25.387 25.07 2.494.875 18.342 6.16 33.085-2.536 9.636-5.682 13.795-14.385 16.205-19.61 5.96-12.919 4.46-25.84 2.016-51.74-.656-6.963-1.498-14.059-4.488-20.38-4.31-9.107-12.788-15.76-22.105-19.593-9.316-3.835-19.478-5.114-29.533-5.732-23.793-1.457-48.3.749-69.987 10.643-8.446 3.854-16.539 8.983-22.244 16.309-4.327 5.552-7.116 12.152-9.233 18.868-5.173 16.4-15.693 51.873 2.169 74.749 2.103 2.696 7.202 9.06 16.198 12.536" mask="url(#prefix__d)"/>
                </g>
                <g>
                    <path stroke="#7B7B7B" stroke-width="5" d="M105.258 2.936c-.539-2.783-4.569-2.974-5.788-.413L83.886 35.24c-.457.958-1.37 1.62-2.424 1.753l-44.06 5.546c-.995.126-1.99-.235-2.673-.972L8.74 13.584c-.368-.397-.793-.668-1.239-.826-.109-.04-1.114-.383-2.168.039-1.102.439-1.868 1.56-1.992 2.873C2.5 26.13 1.314 51.699 1.212 62.947c-.113 12.492-.997 51.154 0 87.34.865 31.384 3.573 61.125 4.121 67.604 11.742.513 87.622 9.44 134.667-4.891 0-2.428-2.566-30.139-8.297-65.531-8.168-50.445-20.957-116.243-26.445-144.533z" transform="rotate(3 -453.233 754.515) translate(29 36)"/>
                    <path fill="#FFF" d="M32.886 79.15l-4.525.238c-4.797-.09-8.511-3.114-9.025-6.644-.517-3.56 2.414-6.293 2.638-6.495 2.48-2.242 5.58-2.1 8.582-1.964 2.58.118 6.515.299 8.953 3.272.405.493 1.549 2.041 1.654 4.038.205 3.905-3.52 7.305-8.277 7.555M88.789 72.112l4.443-.892c4.625-1.276 7.474-5.126 7.095-8.672-.38-3.576-3.897-5.499-4.166-5.64-2.956-1.557-5.926-.65-8.8.227-2.471.753-6.237 1.9-7.864 5.388-.269.576-.993 2.361-.6 4.322.768 3.833 5.22 6.204 9.892 5.267" transform="rotate(3 -453.233 754.515) translate(29 36)"/>
                    <path fill="#7B7B7B" d="M33.93 70.042c.543 4.32-1.74 8.165-5.099 8.587-3.36.424-6.525-2.735-7.07-7.055-.543-4.322 1.74-8.166 5.1-8.589 3.36-.424 6.525 2.737 7.069 7.057M80.707 64.152c.544 4.32 3.71 7.48 7.07 7.057 3.359-.424 5.642-4.267 5.098-8.59-.544-4.32-3.709-7.478-7.07-7.055-3.358.423-5.641 4.268-5.098 8.588" transform="rotate(3 -453.233 754.515) translate(29 36)"/>
                    <path stroke="#7B7B7B" stroke-linecap="round" stroke-width="2.721" d="M51.303 86.82c3.224 1.31 7.29 1.633 12.198.97 4.909-.665 8.383-2.008 10.423-4.03M61.88 77.402l1.211 9.624" transform="rotate(3 -453.233 754.515) translate(29 36)"/>
                    <path fill="#FF8997" d="M59.024 79.684l-2.868-1.967c-1.112-.763-.595-2.37.818-2.55l9.06-1.14c1.412-.178 2.312 1.252 1.424 2.268l-2.29 2.616c-1.5 1.715-4.266 2.062-6.144.773" transform="rotate(3 -453.233 754.515) translate(29 36)"/>
                </g>
            </g>
        </g>
        <g fill-rule="nonzero" transform="translate(139 148)">
            <circle cx="50" cy="50" r="50" fill="#FFF"/>
            <circle cx="50" cy="50" r="48.66" fill="#56C6D0" stroke="#8CD8DF" stroke-width="2.679"/>
            <g>
                <path fill="#FFF" d="M57.77 5.192c1.605 1.624 1.606 4.268.003 5.894L21.963 47.4c-.779.789-1.814 1.224-2.916 1.224h-.002c-1.1 0-2.136-.433-2.914-1.221L1.205 32.3c-1.607-1.626-1.607-4.271 0-5.897l3.831-3.877c1.607-1.626 4.221-1.626 5.828 0l8.14 8.236 29.104-29.45c1.607-1.625 4.221-1.625 5.828 0l3.834 3.88z" transform="translate(20.513 25.641)"/>
                <path fill="#56C6D0" d="M33.136 29.222c-.46-.464-1.203-.464-1.662 0l-.368.372c-.458.465-.459 1.217 0 1.682.23.232.53.348.831.348.3 0 .601-.116.83-.348l.368-.372c.46-.465.46-1.217 0-1.682zM29.704 32.694c-.459-.464-1.203-.464-1.661 0l-9.436 9.548c-.46.465-.46 1.217 0 1.682.229.232.53.348.83.348.3 0 .602-.116.831-.348l9.436-9.548c.46-.465.46-1.218 0-1.682z" transform="translate(20.513 25.641)"/>
            </g>
        </g>
        <g>
            <path fill="#FFF" d="M15.223 46.335c3.362.05 22.029-7.988 32.39-15.105 13.01-8.937 17.983-17.666 20.425-21.19L60.748 0c-3.437 2.741-17.1 10.016-31.154 14.023C17.209 17.554 4.35 18.074.299 17.383" transform="rotate(22 -375.026 317.787)"/>
            <path stroke="#7B7B7B" stroke-width="4" d="M12.474 42.48c3.362.05 22.506-3.336 32.868-10.453 13.01-8.937 19.467-18.334 21.909-21.858C64.82 6.824 63.178 3.348 60.748 0c-3.437 2.741-17.1 10.016-31.154 14.023C17.209 17.554 4.35 18.074.299 17.383" transform="rotate(22 -375.026 317.787)"/>
            <path stroke="#7B7B7B" stroke-width="3" d="M63.18 3.322l-6.423 4.715M64.738 7.18l-5.319 4.408" transform="rotate(22 -375.026 317.787)"/>
        </g>
    </g>
</svg>
