<svg xmlns="http://www.w3.org/2000/svg" width="244" height="50" viewBox="0 0 244 50">
    <defs>
        <linearGradient id="prefix__a" x1="38.582%" x2="61.401%" y1="100.075%" y2="0%">
            <stop offset="0%" stop-color="#FF4652"/>
            <stop offset="100%" stop-color="#FF6C7E"/>
        </linearGradient>
    </defs>
    <g fill="none" fill-rule="evenodd">
        <g fill="#FFF">
            <path fill-rule="nonzero" d="M114.435 3.707h-7.547c-.365-.01-.718.13-.976.387-.259.258-.399.61-.389.974v14.44c-.032 1.809-.293 3.607-.776 5.35-.108.362-.068.75.112 1.082.18.331.484.578.846.685.136.036.277.051.418.046.629 0 1.183-.412 1.362-1.014.561-2.005.862-4.073.893-6.154V18.9h4.578v3.935c0 2.754-1.338 3.43-1.749 3.571l-.049.016c-.648.236-1.032.902-.913 1.58.12.677.709 1.172 1.398 1.173.167 0 .333-.03.49-.086.86-.296 3.666-1.629 3.666-6.254V5.068c.01-.364-.13-.716-.388-.974-.258-.257-.611-.397-.976-.387zm-6.064 2.725h4.585v3.51h-4.59l.005-3.51zm0 9.746v-3.51h4.585v3.51h-4.585zm-5.83-9.54h.436c.5.021.973-.234 1.23-.664.257-.43.257-.965 0-1.395-.257-.43-.73-.686-1.23-.665h-.437V2.781c.022-.52-.245-1.01-.693-1.277-.449-.266-1.007-.266-1.456 0-.449.267-.715.757-.694 1.277v1.133h-4.43V2.781c.02-.52-.246-1.01-.695-1.277-.448-.266-1.007-.266-1.455 0-.449.267-.715.757-.694 1.277v1.133h-.994c-.732.03-1.31.631-1.31 1.362 0 .732.578 1.333 1.31 1.363h.968v12.03h-.968c-.732.031-1.31.632-1.31 1.363s.578 1.332 1.31 1.362h11.529c.501.021.974-.234 1.23-.664.257-.43.257-.966 0-1.396-.256-.43-.729-.685-1.23-.664h-.436l.018-12.031zm-7.282 4.92h4.431v2.193h-4.43v-2.194zm4.431-4.92v2.195h-4.43V6.639h4.43zM95.26 18.67v-2.19h4.43v2.195l-4.43-.005zm7.462 6.638c.538.557.53 1.44-.018 1.987-.548.547-1.433.556-1.992.02l-1.899-1.89c-.36-.36-.5-.882-.368-1.372.132-.49.515-.873 1.006-1.004.492-.131 1.016.009 1.375.367l1.896 1.892zm-7.057-1.894c.554.554.554 1.452 0 2.006l-2.799 2.792c-.354.382-.89.54-1.395.412-.505-.128-.9-.522-1.029-1.026-.128-.505.03-1.039.414-1.392l2.798-2.792c.557-.553 1.457-.553 2.013 0h-.002zM64.047 10.684c-.554-.554-.554-1.451 0-2.005l4.702-4.69c.357-.372.886-.521 1.385-.392.498.13.887.518 1.018 1.015.13.497-.02 1.025-.39 1.382l-4.704 4.69c-.556.553-1.455.553-2.01 0zm22.793-.128l-8.81-8.802c-.525-.542-1.375-.602-1.97-.137-.307.255-.492.628-.51 1.027-.018.398.134.786.417 1.067l8.821 8.802c.525.543 1.376.602 1.97.137.306-.257.489-.63.504-1.029.016-.398-.137-.785-.422-1.065zm-4.039 2.534h-18.45c-.795.031-1.423.683-1.423 1.476 0 .793.628 1.445 1.422 1.477h5.015c-.274 1.271-.694 2.507-1.253 3.683-1.427 3.052-4.063 5.3-4.088 5.32-.404.34-.596.87-.503 1.388.092.519.455.95.952 1.129.497.179 1.052.08 1.456-.26.129-.106 3.151-2.67 4.863-6.33.747-1.565 1.279-3.223 1.579-4.93h8.951v4.92c0 5.005-5.021 5.235-5.597 5.245-.817.004-1.476.667-1.472 1.482.004.815.67 1.472 1.486 1.468 1.439-.055 2.852-.399 4.156-1.01 1.992-.956 4.364-2.98 4.364-7.185v-6.396c-.01-.802-.653-1.455-1.458-1.477zM59.291 13.524c0 .392-.156.767-.433 1.044-.278.277-.655.432-1.048.431H44.88v12.75c0 .392-.156.768-.434 1.044-.277.277-.654.432-1.047.431-.392.001-.769-.154-1.047-.43-.278-.277-.434-.653-.434-1.045V15h-9.364c-.816 0-1.478-.66-1.478-1.475 0-.815.662-1.475 1.478-1.475h9.367v-9.27c0-.814.662-1.475 1.478-1.475.817 0 1.479.66 1.479 1.475V5.22h10.05c.785.001 1.42.636 1.42 1.42 0 .782-.636 1.416-1.42 1.416H44.88v3.993h12.93c.393 0 .77.154 1.048.431.277.277.433.652.433 1.044zm-9.004 4.102c-.58-.578-1.52-.578-2.1 0-.58.578-.58 1.516 0 2.094l5.132 5.107c.374.374.921.52 1.433.383s.912-.536 1.05-1.047c.137-.51-.01-1.056-.384-1.43l-5.131-5.107zM26.882 11.572c.021.52-.245 1.01-.694 1.277-.448.266-1.007.266-1.455 0-.449-.267-.715-.757-.694-1.277v-3.52h-8.725v2.64c1.572 1.048 3.248 1.93 5.003 2.632 2.009.768 4.101 1.299 6.234 1.582.725.073 1.265.703 1.225 1.429-.04.726-.645 1.293-1.374 1.286-.051.004-.102.004-.152 0-4.424-.542-8.658-2.115-12.361-4.59-3.703 2.475-7.937 4.047-12.361 4.59-.05.004-.101.004-.152 0-.729.007-1.334-.56-1.374-1.286-.04-.726.5-1.356 1.225-1.429 2.133-.283 4.225-.814 6.234-1.582 1.757-.702 3.436-1.584 5.01-2.632v-2.64H3.757v3.52c0 .784-.637 1.42-1.422 1.42-.785-.002-1.42-.637-1.42-1.42V6.686c0-.752.61-1.361 1.364-1.361h10.203V4.029h-8.66c-.731-.03-1.31-.631-1.31-1.362 0-.731.579-1.332 1.31-1.363h20.14c.732.03 1.31.632 1.31 1.363 0 .73-.578 1.332-1.31 1.362h-8.648v1.298h10.204c.753 0 1.364.61 1.364 1.361v4.884zm-18.227-.028c.754 0 1.365-.61 1.365-1.361 0-.752-.611-1.361-1.365-1.361H6.687c-.754 0-1.365.61-1.365 1.36 0 .753.611 1.362 1.365 1.362h1.968zm6.22 6.096c.733-.03 1.31-.631 1.31-1.362 0-.731-.577-1.332-1.31-1.363h-2.197c-.732.03-1.31.632-1.31 1.363 0 .73.578 1.332 1.31 1.362h2.197zm4.432-8.823c-.754 0-1.365.61-1.365 1.361 0 .752.611 1.361 1.365 1.361h1.968c.754 0 1.365-.609 1.365-1.36 0-.752-.611-1.362-1.365-1.362h-1.968zm4.217 11.15c0-.752-.611-1.362-1.365-1.362H5.6c-.753 0-1.363.61-1.363 1.362 0 .751.61 1.36 1.364 1.36h14.95c-.105.25-.264.473-.467.652-1.541 1.45-5.73 1.778-8.011 1.645-.448-.036-.891.116-1.222.419-.258.255-.402.601-.402.963s.144.709.402.963l2.49 2.485c.534.532 1.399.532 1.932 0 .533-.532.533-1.394 0-1.926l-.124-.126c2.272-.184 5.176-.751 6.883-2.357.955-.865 1.497-2.093 1.493-3.38v-.698z" transform="translate(65.185 10)"/>
            <path d="M140.436 23.597c0 .703-.25 1.303-.75 1.801-.499.499-1.101.748-1.807.748h-6.936c-.098 0-.147.058-.147.175 0 .313-.117.591-.352.835s-.52.367-.853.367h-.294c-.43 0-.788-.147-1.072-.44-.284-.293-.426-.644-.426-1.055v-5.244c0-.703.25-1.303.75-1.802.499-.498 1.101-.747 1.807-.747h7.523c.706 0 1.308.25 1.808.747.5.499.749 1.1.749 1.802v2.813zm-2.998-.088v-2.637c0-.215-.117-.322-.352-.322h-5.937c-.216 0-.333.107-.353.322v2.637c0 .215.118.322.353.322h5.937c.235 0 .352-.107.352-.322zm-15.635-17.52c-.333 0-.622-.122-.867-.366s-.367-.532-.367-.864c0-.332.122-.62.367-.864.245-.245.534-.367.867-.367h10.463c.196 0 .294-.097.294-.293V2.62c0-.45.147-.825.44-1.128.294-.303.667-.454 1.117-.454.451 0 .828.156 1.132.469.304.312.455.683.455 1.113v.615c0 .196.089.293.265.293h10.462c.334 0 .623.122.867.367.245.244.368.532.368.864 0 .332-.123.62-.368.864-.244.244-.533.366-.867.366h-4.32c-.235 0-.401.108-.5.323-.332.683-.754 1.425-1.263 2.226-.04.059-.044.122-.015.19.03.069.083.103.162.103h3.703c.705 0 1.308.25 1.807.747.5.498.75 1.099.75 1.802V24.24c0 1.973-.21 3.184-.632 3.633-.421.45-1.533.674-3.336.674-.98 0-1.9-.02-2.762-.059-.373-.02-.691-.16-.956-.425-.264-.263-.406-.58-.426-.952-.02-.332.098-.63.353-.893.255-.264.558-.386.911-.366 1.078.058 1.773.087 2.087.087.764 0 1.224-.073 1.381-.22.157-.146.235-.6.235-1.362v-6.68c0-.214-.127-.322-.382-.322-1.43.06-2.841.088-4.232.088-1.49 0-2.464-.185-2.924-.556-.46-.371-.69-1.182-.69-2.432v-2.725c0-.214-.109-.332-.324-.351h-2.263c-.216 0-.323.117-.323.351-.04 1.583-.451 2.925-1.235 4.029-.784 1.103-2.106 2.163-3.967 3.179-.431.234-.887.288-1.367.16-.48-.126-.857-.385-1.131-.776-.02-.02-.05-.029-.089-.029-.039 0-.058.02-.058.059v8.789c0 .449-.152.825-.456 1.128-.304.302-.676.454-1.117.454-.44 0-.813-.157-1.117-.47-.303-.312-.455-.683-.455-1.112V11.38c0-.703.25-1.304.75-1.802.499-.498 1.101-.747 1.807-.747h3.38c.215 0 .284-.107.205-.322-.117-.313-.45-1.055-.999-2.227-.098-.195-.255-.293-.47-.293h-4.35zm16.576 5.742v1.788c0 .703.093 1.118.279 1.245.186.127.779.19 1.778.19.627 0 1.558-.02 2.792-.058.098 0 .186-.035.265-.103.078-.068.117-.151.117-.249v-2.813c0-.214-.117-.332-.353-.351h-4.496c-.255.02-.382.137-.382.351zm-8.082-5.742c-.196 0-.255.098-.177.293.275.625.578 1.377.911 2.256.06.195.216.293.47.293h4.703c.235 0 .421-.098.558-.293.569-.781 1.039-1.533 1.411-2.256.04-.058.034-.122-.015-.19-.049-.069-.112-.103-.19-.103h-7.671zm-.853 5.772c0-.235-.107-.362-.323-.381h-4.144c-.215 0-.333.117-.352.351V16.8c0 .078.039.137.117.176.079.039.157.039.235 0 1.744-.86 2.915-1.65 3.512-2.373.598-.723.916-1.67.955-2.842zm24.53-2.637c-.45 0-.827-.146-1.13-.44-.304-.292-.456-.663-.456-1.113V5.843c0-.703.25-1.304.75-1.802.499-.498 1.101-.747 1.807-.747h8.552c.196 0 .303-.098.323-.293v-.615c0-.45.162-.835.485-1.157.323-.323.71-.484 1.16-.484.452 0 .838.166 1.162.498.323.332.485.713.485 1.143V3c0 .195.107.293.323.293h8.552c.706 0 1.308.249 1.808.747s.75 1.099.75 1.802V7.57c0 .45-.148.82-.442 1.114-.294.293-.666.44-1.117.44-.176 0-.352-.03-.529-.089-.195-.078-.323-.01-.382.205-.078.274-.23.498-.455.674-.225.176-.495.264-.808.264h-4.644c-.215 0-.304.127-.264.38.43 1.68 1.018 3.35 1.763 5.01.098.215.225.245.382.088.901-.8 1.881-1.787 2.939-2.959.255-.273.578-.43.97-.468.392-.04.74.058 1.043.293.304.234.47.541.5.922.03.381-.083.718-.338 1.011-1.156 1.387-2.4 2.627-3.733 3.72-.156.138-.176.304-.058.499 1.332 2.05 2.87 3.857 4.614 5.42.333.293.529.659.588 1.098.058.44-.054.84-.338 1.202-.285.36-.652.566-1.103.615-.45.049-.852-.083-1.205-.396-2.194-1.914-4.11-4.311-5.745-7.192-1.636-2.881-2.768-5.845-3.395-8.892-.039-.215-.166-.332-.382-.351h-.734c-.196 0-.392.078-.588.234-.177.156-.47.381-.882.674-.176.137-.186.283-.03.44 1.568 1.464 2.788 3.183 3.66 5.156.872 1.972 1.308 4.008 1.308 6.108 0 2.1-.265 3.55-.794 4.35-.529.801-1.391 1.202-2.586 1.202-.804 0-1.92-.03-3.35-.088-.373-.02-.701-.166-.985-.44-.284-.273-.436-.595-.456-.966-.02-.352.108-.66.382-.923.275-.264.588-.386.94-.366 1.137.058 1.911.088 2.323.088.548 0 .9-.157 1.058-.47.156-.312.235-1.113.235-2.402 0-.683-.02-1.181-.059-1.494 0-.078-.034-.127-.103-.146-.068-.02-.132-.01-.19.03-2.705 2.265-6.3 4.267-10.787 6.005-.352.137-.715.127-1.087-.03-.372-.156-.637-.42-.794-.79-.137-.352-.127-.699.03-1.04.156-.342.42-.581.793-.718 4.683-1.68 8.445-3.682 11.286-6.006.156-.117.196-.293.117-.527-.196-.528-.401-.967-.617-1.319-.118-.195-.264-.234-.44-.117-2.352 1.758-5.399 3.35-9.14 4.775-.354.137-.706.132-1.059-.014-.353-.147-.607-.386-.764-.718-.137-.332-.137-.664 0-.996.137-.332.382-.557.735-.674 3.585-1.21 6.563-2.627 8.934-4.248.176-.137.196-.283.059-.44-.49-.527-.872-.917-1.146-1.171-.157-.157-.343-.176-.559-.059-1.763.977-3.771 1.885-6.025 2.725-.333.136-.675.132-1.028-.015-.353-.146-.608-.395-.764-.747-.137-.312-.133-.625.014-.937.147-.313.397-.518.75-.616 2.88-.918 5.349-1.972 7.406-3.164.04-.058.02-.107-.059-.146h-5.29c-.294 0-.558-.088-.793-.264-.236-.176-.392-.4-.47-.674-.04-.195-.157-.263-.353-.205-.177.059-.353.088-.53.088zm1.558-2.959v1.201c0 .176.108.244.324.205.02 0 .053-.005.102-.014.05-.01.103-.015.162-.015h18.692c.039 0 .088.005.147.015.058.01.098.014.117.014.216.04.323-.029.323-.205v-1.2c0-.216-.107-.323-.323-.323h-19.22c-.216 0-.324.107-.324.322z" transform="translate(65.185 10)"/>
        </g>
        <g fill-rule="nonzero">
            <path fill="#FFF" stroke="#ECECEC" stroke-width=".694" d="M17.627 0h14.889c6.129 0 8.352.638 10.592 1.837 2.241 1.198 4 2.956 5.198 5.197 1.198 2.24 1.836 4.464 1.836 10.593v14.746c0 6.13-.638 8.352-1.836 10.593-1.198 2.24-2.957 4-5.198 5.197C40.868 49.362 38.645 50 32.516 50h-14.89c-6.128 0-8.351-.638-10.592-1.837-2.24-1.198-4-2.956-5.197-5.197C.638 40.726 0 38.502 0 32.373V17.627c0-6.13.638-8.352 1.837-10.593 1.198-2.24 2.956-4 5.197-5.197C9.274.638 11.498 0 17.627 0z"/>
            <path fill="url(#prefix__a)" d="M10.385 6.583c.65-.057.991.118 1.029.528.012.135-.7 1.14-1.342 2.397-.68 1.328-1.297 2.93-1.466 3.843-.432 2.267-.552 4.583-.356 6.882.266 2.965 1.181 4.378 2.745 4.238 1.09-.095 2.073-.95 2.948-2.565s1.504-3.711 1.889-6.288c.387-2.649.457-5.334.208-8-.13-1.465-.583-2.548-1.357-3.25-.704-.668-1.664-1-2.632-.91-.782.104-1.551.291-2.293.56-.544.196-1.099.363-1.66.5-.475.043-.728-.142-.766-.552-.025-.277.15-.605.527-.985.456-.439.97-.816 1.525-1.12C10.918.968 12.632.428 14.402.28c1.816-.167 3.334-.049 4.554.355 1.153.358 2.204.988 3.06 1.837 1.698 1.68 2.67 3.905 2.918 6.675.177 1.853.074 3.72-.303 5.543-.337 1.659-.942 3.252-1.792 4.717-.802 1.36-1.799 2.596-2.958 3.67-2.287 2.112-5.223 3.391-8.332 3.63-3.273.29-5.861-.333-7.765-1.87-1.856-1.49-2.907-3.615-3.153-6.375-.16-1.785-.156-3.5.409-4.985 1.074-2.847 2.847-4.515 5.083-5.69 1.326-.68 2.775-1.09 4.262-1.205zM3.922 35.208c-.524.043-.812-.25-.863-.845-.072-.902-.047-2.095.108-2.447.26-.45.7-.771 1.21-.883.516-.097 15.095-1.327 15.095-1.327.526-.042.813.24.863.845.073.902.046 2.13-.108 2.45-.271.44-.707.757-1.211.88-.515.095-15.094 1.327-15.094 1.327z" transform="translate(12.536 7.292)"/>
        </g>
    </g>
</svg>
