<svg xmlns="http://www.w3.org/2000/svg" width="46" height="46" viewBox="0 0 46 46">
    <g fill="none" fill-rule="evenodd">
        <g fill-rule="nonzero">
            <g transform="translate(-417 -307) translate(417 307)">
                <circle cx="23" cy="23" r="22" fill="#FF6C7E"/>
                <path fill="#FFF" stroke="#FFF" stroke-width=".5" d="M23.042 33c-.465 0-.842-.367-.842-.82V21.679h-5.091c-.854 0-1.618-.499-1.946-1.271-.33-.776-.15-1.658.456-2.247l5.593-5.442c.986-.959 2.59-.959 3.576 0l5.593 5.442c.607.59.785 1.471.456 2.247-.328.772-1.092 1.271-1.946 1.271H27.08c-.465 0-.842-.367-.842-.82 0-.453.377-.82.842-.82h1.812c.253 0 .357-.181.39-.259.033-.079.092-.282-.09-.459l-5.593-5.44c-.33-.321-.866-.321-1.196 0l-5.593 5.44c-.182.177-.123.38-.09.459.033.078.137.258.39.258h5.09c.93 0 1.685.736 1.685 1.641v10.5c0 .454-.377.821-.842.821z"/>
            </g>
        </g>
    </g>
</svg>
