<svg xmlns="http://www.w3.org/2000/svg" width="14" height="14" viewBox="0 0 14 14">
    <g fill="none" fill-rule="evenodd">
        <rect width="12.783" height="12.783" x=".609" y=".609" fill="#FF6C7E" rx="3.043"/>
        <path fill="#FFF" fill-rule="nonzero" d="M3.505 8.72c-.072.07-.16.106-.265.106-.105 0-.194-.036-.265-.11-.071-.073-.107-.161-.107-.264V5.199c0-.104.036-.192.107-.265.071-.073.16-.11.268-.11.114 0 .222.03.323.089.102.059.183.138.244.238l1.45 2.391c0 .004.001.005.005.005.003 0 .005-.001.005-.005V5.2c0-.104.037-.192.11-.265.073-.073.163-.11.27-.11.107 0 .196.037.268.11.07.073.107.161.107.265v3.253c0 .103-.036.191-.107.264-.072.074-.161.11-.268.11-.114 0-.222-.03-.324-.088-.101-.059-.182-.137-.243-.233L3.628 6.108c0-.003-.002-.005-.006-.005-.003 0-.005.002-.005.005v2.344c0 .103-.037.192-.112.267zm6.018-2.943c-.217-.25-.512-.375-.885-.375s-.669.125-.888.375c-.22.25-.33.599-.33 1.048 0 .45.11.8.33 1.049.22.25.515.374.888.374s.669-.125.888-.374c.22-.25.329-.6.329-1.049 0-.45-.11-.799-.332-1.048zm.567 2.546c-.36.371-.843.557-1.45.557-.606 0-1.09-.186-1.455-.557-.363-.37-.545-.87-.545-1.498 0-.627.182-1.127.545-1.498.364-.37.85-.556 1.456-.556s1.09.185 1.452.556c.362.371.543.87.543 1.498s-.182 1.127-.546 1.498zm1.97.375c-.086.085-.19.128-.311.128s-.225-.043-.31-.128c-.086-.086-.129-.19-.129-.31v-.054c0-.121.043-.225.129-.31.085-.086.189-.129.31-.129s.225.043.31.129c.086.085.129.189.129.31v.053c0 .122-.043.225-.129.31z"/>
    </g>
</svg>
