<svg xmlns="http://www.w3.org/2000/svg" width="28" height="28" viewBox="0 0 28 28">
    <g fill="none">
        <circle cx="14" cy="14" r="13.391" fill="#F16F63"/>
        <path fill="#FFF" d="M13.959 12.38l3.633-3.633c.436-.436 1.142-.436 1.578 0 .436.436.436 1.143 0 1.578l-3.633 3.634 3.633 3.633c.436.436.436 1.142 0 1.578-.436.436-1.142.436-1.578 0l-3.633-3.633-3.634 3.633c-.435.436-1.142.436-1.578 0-.436-.436-.436-1.142 0-1.578l3.633-3.633-3.633-3.634c-.436-.435-.436-1.142 0-1.578.436-.436 1.143-.436 1.578 0l3.634 3.633z"/>
    </g>
</svg>
