<svg xmlns="http://www.w3.org/2000/svg" width="46" height="46" viewBox="0 0 46 46">
    <g fill="none" fill-rule="evenodd">
        <circle cx="22.957" cy="22.957" r="21" fill="#FF6C7E"/>
        <path fill="#FFF" d="M31.928 20.743c.661.3 1.072.973 1.072 1.757 0 .784-.41 1.457-1.072 1.757l-14.523 6.596c-.61.278-1.302.157-1.804-.319-.5-.474-.71-1.206-.546-1.908l1.292-5.549h6.33c.29 0 .527-.258.527-.577 0-.319-.236-.577-.528-.577h-6.329l-1.292-5.549c-.164-.702.046-1.434.546-1.908.501-.475 1.192-.597 1.804-.32l14.523 6.597zm-6.905 2.395c.339 0 .613-.286.613-.638 0-.352-.274-.637-.613-.637-.34 0-.614.285-.614.637 0 .352.275.637.614.637z"/>
    </g>
</svg>
