<svg xmlns="http://www.w3.org/2000/svg" width="144" height="144" viewBox="0 0 144 144">
    <g fill="none" fill-rule="evenodd">
        <g>
            <path fill="#FFA1AC" d="M108.216 50.291v70.216c0 5.808-4.74 10.514-10.587 10.514H10.635c-4.998 0-9.186-3.438-10.298-8.062l-.043-6.01-.247-35.795v-70.64C.047 4.705 4.787 0 10.635 0h46.922c4.217 0 17.874 11.56 29.946 23.734 11.015 11.112 20.713 22.735 20.713 26.557z" transform="translate(2 6) translate(.737)"/>
            <path fill="#FF8997" d="M108.216 50.291v25.722c0-.029-.003-.058-.003-.09-.796-31.56-26.693-33.02-35.16-41.428l14.45-10.76c11.015 11.11 20.713 22.734 20.713 26.556z" transform="translate(2 6) translate(.737)"/>
            <path fill="#FF8997" d="M57.556 0h-25.91c.03 0 .059.003.09.003C63.528.793 65 26.502 73.467 34.909l10.84-14.346C73.114 9.627 61.407 0 57.556 0z" transform="translate(2 6) translate(.737)"/>
            <path fill="#FF6C7E" d="M108.216 50.293v4.446c0-9.362-7.648-16.954-17.078-16.954H80.743c-5.847 0-10.589-4.707-10.589-10.512V16.954C70.154 7.592 62.507 0 53.076 0h4.48c8.065 0 15.803 3.182 21.506 8.843l20.246 20.1c5.703 5.661 8.908 13.343 8.908 21.35z" transform="translate(2 6) translate(.737)"/>
            <g fill="#FFF" fill-rule="nonzero" transform="translate(2 6) translate(.737) translate(15.724 26.228)">
                <rect width="76.686" height="2.561" y="30.738" rx="1.281"/>
                <rect width="76.686" height="2.561" y="41.624" rx="1.281"/>
                <rect width="76.686" height="2.561" y="51.87" rx="1.281"/>
                <rect width="30.932" height="2.561" y="62.757" rx="1.281"/>
                <rect width="30.932" height="2.561" rx="1.281"/>
            </g>
        </g>
        <g fill-rule="nonzero" transform="translate(2 6) translate(78 69)">
            <path fill="#DD4F60" d="M30.26 52.979c.279-.606.5-1.243.66-1.904l.03-4.327c-.716.084-1.444.127-2.182.127-10.233 0-18.559-8.274-18.559-18.442 0-10.169 8.326-18.443 18.559-18.443.825 0 1.638.054 2.435.158l.006-.878V3.96c-.803-.078-1.618-.118-2.441-.118-13.647 0-24.745 11.029-24.745 24.59 0 13.562 11.098 24.59 24.745 24.59.5 0 .999-.014 1.493-.043z" opacity=".256"/>
            <ellipse cx="25.134" cy="24.654" fill="#FFF" opacity=".4" rx="15.788" ry="15.689"/>
            <path fill="#FF6C7E" d="M44.612 39.66l16.67 16.566c1.209 1.2 1.209 3.147 0 4.349-.606.601-1.397.9-2.19.9-.792 0-1.583-.299-2.186-.9l-16.67-16.567c-4.19 3.241-9.456 5.173-15.167 5.173C11.422 49.18.324 38.152.324 24.59.324 11.027 11.422 0 25.07 0s24.744 11.028 24.744 24.59c0 5.674-1.942 10.904-5.2 15.07zm-6.308-2.154c3.29-3.33 5.323-7.892 5.323-12.916 0-10.168-8.326-18.442-18.558-18.442-10.233 0-18.559 8.274-18.559 18.442 0 10.169 8.326 18.443 18.559 18.443 5.057 0 9.65-2.021 13-5.294l.114-.12c.04-.039.08-.077.12-.113z"/>
        </g>
    </g>
</svg>
