<svg xmlns="http://www.w3.org/2000/svg" width="24" height="24" viewBox="0 0 24 24">
    <g fill="#7B7B7B" fill-rule="evenodd">
        <path d="M14.179 6.904h-.7c-.255 0-.465.205-.465.457s.21.458.466.458h.699c.256 0 .465-.206.465-.458s-.21-.457-.465-.457z" transform="translate(1.565 .522)"/>
        <path fill-rule="nonzero" d="M17.672 3.244h-2.795c0-1.51-1.257-2.745-2.794-2.745H8.589C7.052.5 5.794 1.734 5.794 3.244H3.232c-1.28 0-2.328 1.03-2.328 2.287v.915c0 .686.535 1.258 1.21 1.35l1.188 12.557c.117 1.19 1.118 2.082 2.33 2.082h9.641c1.211 0 2.213-.892 2.33-2.082L18.79 7.796C19.465 7.704 20 7.132 20 6.446v-.915c0-1.258-1.048-2.287-2.329-2.287zm-9.083-1.83h3.494c1.024 0 1.863.823 1.863 1.83h-7.22c0-1.007.838-1.83 1.863-1.83zm10.48 5.032c0 .252-.21.458-.465.458h-.233c-.233 0-.443.183-.466.411l-1.234 12.97c-.07.709-.676 1.258-1.398 1.258H5.631c-.722 0-1.327-.55-1.397-1.259L3.046 7.82h8.338c.256 0 .466-.206.466-.458s-.21-.457-.466-.457H2.3c-.256 0-.466-.206-.466-.458v-.915c0-.755.629-1.372 1.397-1.372h14.44c.769 0 1.397.617 1.397 1.372v.915z" transform="translate(1.565 .522)"/>
        <path d="M6.726 9.648c-.256 0-.466.206-.466.458v8.692c0 .251.21.457.466.457s.466-.206.466-.457v-8.692c0-.252-.21-.458-.466-.458zM10.452 9.648c-.256 0-.466.206-.466.458v8.692c0 .251.21.457.466.457s.466-.206.466-.457v-8.692c0-.252-.21-.458-.466-.458zM14.179 9.648c-.257 0-.466.206-.466.458v8.692c0 .251.21.457.466.457s.465-.206.465-.457v-8.692c0-.252-.21-.458-.465-.458z" transform="translate(1.565 .522)"/>
    </g>
</svg>
