<svg xmlns="http://www.w3.org/2000/svg" width="30" height="30" viewBox="0 0 30 30">
    <g fill="none" fill-rule="evenodd">
        <circle cx="15" cy="15" r="13.696" fill="#FFF" stroke="#CCC" stroke-width="1.304"/>
        <g fill="#32322E" fill-rule="nonzero">
            <path d="M5.079 3.418c.3-.027.458.054.476.244.005.062-.324.527-.622 1.108-.314.614-.6 1.354-.678 1.776-.2 1.048-.256 2.119-.165 3.182.124 1.37.547 2.023 1.27 1.959.505-.044.96-.44 1.365-1.186.405-.747.696-1.715.874-2.907.18-1.224.212-2.466.097-3.698-.06-.677-.27-1.178-.628-1.502-.326-.31-.77-.463-1.218-.421-.363.048-.718.135-1.062.259-.252.09-.508.168-.768.231-.22.02-.337-.066-.355-.255-.011-.128.07-.28.244-.456.212-.203.449-.377.706-.517.71-.413 1.503-.663 2.322-.73.841-.078 1.544-.023 2.108.163.534.166 1.02.457 1.416.85.786.776 1.236 1.805 1.35 3.085.083.857.035 1.72-.14 2.563-.155.767-.435 1.503-.829 2.18-.371.629-.832 1.2-1.369 1.697-1.058.976-2.417 1.568-3.856 1.678-1.515.134-2.712-.154-3.593-.864-.86-.69-1.346-1.672-1.46-2.947-.074-.826-.072-1.618.19-2.305.496-1.316 1.317-2.087 2.352-2.63.614-.315 1.284-.504 1.973-.557zM2.088 16.65c-.243.02-.377-.115-.4-.39-.034-.417-.022-.969.05-1.132.12-.208.324-.356.56-.408.239-.045 6.986-.613 6.986-.613.243-.02.376.11.4.39.033.418.02.985-.05 1.133-.126.204-.328.35-.561.407-.238.044-6.985.613-6.985.613z" transform="translate(8.478 6.522)"/>
        </g>
    </g>
</svg>
