<svg xmlns="http://www.w3.org/2000/svg" xmlns:xlink="http://www.w3.org/1999/xlink" width="645" height="305" viewBox="0 0 645 305">
    <defs>
        <path id="prefix__a" d="M54.598 128.492c21.224 0 31.77-9.635 31.64-28.906 0-15.886-7.617-23.828-22.851-23.828-4.037 0-7.683.586-10.938 1.758-.781.26-2.148.846-4.101 1.757-1.953.912-3.483 1.563-4.59 1.954-1.107.39-2.507.846-4.2 1.367-1.692.52-3.255.879-4.687 1.074-1.432.195-2.864.293-4.297.293-3.255 0-6.022-1.172-8.3-3.516-2.28-2.343-3.353-5.143-3.223-8.398l2.734-51.953c.26-4.818 2.083-8.887 5.469-12.207 3.385-3.32 7.487-4.98 12.305-4.98h56.836c3.255 0 5.924 1.139 8.007 3.417 2.084 2.279 3.125 4.948 3.125 8.008 0 3.06-1.074 5.697-3.222 7.91-2.149 2.214-4.785 3.32-7.91 3.32h-46.29c-.52 0-1.041.228-1.562.684-.52.456-.781 1.01-.781 1.66l-1.367 31.25c0 .13.065.196.195.196s.26-.066.39-.196c6.641-3.255 13.803-4.817 21.485-4.687 14.453 0 25.65 3.906 33.594 11.718C110 74 113.973 85.133 113.973 99.587c0 34.245-19.531 51.367-58.594 51.367-10.417 0-20.182-1.432-29.297-4.297-3.125-.911-5.404-2.93-6.836-6.054-1.432-3.125-1.758-6.316-.976-9.57.78-2.996 2.539-5.144 5.273-6.446 2.734-1.302 5.599-1.432 8.594-.39 8.333 2.864 15.82 4.296 22.46 4.296zM212.8 34.938c-4.558-8.073-11.491-12.11-20.801-12.11-9.31 0-16.243 4.004-20.8 12.012-4.558 8.008-6.837 21.745-6.837 41.21 0 19.467 2.279 33.204 6.836 41.212 4.558 8.008 11.491 12.011 20.801 12.011 9.31 0 16.243-4.003 20.8-12.011 4.558-8.008 6.837-21.745 6.837-41.211 0-19.466-2.279-33.17-6.836-41.114zm21.289 98.242c-9.245 11.849-23.275 17.773-42.09 17.773-18.815 0-32.845-5.924-42.09-17.773-9.245-11.85-13.867-30.892-13.867-57.13 0-26.236 4.622-45.312 13.867-57.226C159.155 6.91 173.185.954 192 .954c18.815 0 32.845 5.956 42.09 17.87 9.245 11.914 13.867 30.99 13.867 57.227s-4.622 45.28-13.867 57.129zm106.64-98.243c-4.557-8.072-11.49-12.109-20.8-12.109s-16.244 4.004-20.801 12.012c-4.557 8.008-6.836 21.745-6.836 41.21 0 19.467 2.279 33.204 6.836 41.212 4.557 8.008 11.49 12.011 20.8 12.011s16.244-4.003 20.801-12.011c4.558-8.008 6.836-21.745 6.836-41.211 0-19.466-2.278-33.17-6.836-41.114zm21.29 98.243c-9.245 11.849-23.275 17.773-42.09 17.773-18.816 0-32.845-5.924-42.09-17.773-9.245-11.85-13.867-30.892-13.867-57.13 0-26.236 4.622-45.312 13.867-57.226C287.085 6.91 301.114.954 319.93.954c18.815 0 32.845 5.956 42.09 17.87 9.244 11.914 13.867 30.99 13.867 57.227s-4.623 45.28-13.867 57.129z"/>
        <path id="prefix__c" d="M0 0.668L95.203 0.668 95.203 26.999 0 26.999z"/>
        <path id="prefix__e" d="M75.886.004c.03-.003.057-.003.085-.003 1.106 0 1.583 1.446.655 2.106-1.304.928-2.653 1.992-4.016 3.209-1.432 1.279-2.678 2.553-3.762 3.766l19.491 3.426c2.941-.561 6.14-1.04 9.574-1.37 4.447-.426 8.589-.53 12.359-.44 1.01.024 1.497 1.25.783 1.967-3.903 3.911-8.68 9.211-13.484 15.942-11.677 16.358-19.254 34.705-21.884 51.72-.996 6.444-1.887 15.98-.807 27.676l21.323 3.836-1.758 5.136c-2.378 6.958-3.524 10.32-3.639 10.66-4.741 13.905-17.785 23.249-32.456 23.249H40.386c-20.314 0-37.233-15.596-38.926-35.873-1.292-15.51-.244-34.039 6.653-53.409 9.52-26.74 27.981-48.892 45.35-56.971"/>
        <path id="prefix__g" d="M101.068 10.885v13.053c-1.156 1.472-2.326 3.028-3.497 4.669-11.677 16.358-19.254 34.705-21.884 51.72-.996 6.444-1.887 15.98-.807 27.676l21.323 3.836-1.758 5.136c-2.378 6.958-3.524 10.32-3.639 10.66-3.18 9.324-10.092 16.598-18.726 20.378h-46.4c-13.258-5.402-22.96-17.905-24.22-33.002-1.292-15.51-.244-34.039 6.653-53.409 9.52-26.74 27.981-48.892 45.35-56.971C59.694 1.732 72.105.248 75.886.004c.03-.003.057-.003.085-.003 1.106 0 1.583 1.446.655 2.106-1.304.928-2.653 1.992-4.016 3.209-1.432 1.279-2.678 2.553-3.762 3.766l19.491 3.426c2.941-.561 6.14-1.04 9.574-1.37 1.07-.102 2.122-.186 3.155-.253"/>
    </defs>
    <g fill="none" fill-rule="evenodd">
        <path fill="#FBB" d="M329.136 296.03c93.711 0 152.598 21.405 237.701-6.122C611.187 275.562 644 238.21 644 164.583c0-60.663-23.85-112.068-134.362-136.167-41.653-9.083-131.485-27.382-180.502-27.382-83.688 0-191.314-2.14-245.235 27.382C22.45 62.061 1 115 1 159.488c0 50.903 8.982 105.586 72.821 130.42 71.007 27.621 157.616 6.121 255.315 6.121z" opacity=".3"/>
        <path fill="#FF8997" d="M470.845 233.712c4.645 4.719 25.998 10.241 32.629 10.241 5.304 0 20.03-3.534 28.087-7.364 27.9 1.924 44.439 4.317 44.439 6.911 0 6.351-99.169 11.5-221.5 11.5S133 249.851 133 243.5c0-3.386 28.183-6.43 73.034-8.534 3.895 4.914 16.482 8.534 22.966 8.534 7.259 0 46.719-4.978 51.521-10.843 19.213-.353 39.644-.573 60.879-.637 6.153 6.47 20.002 10.98 36.1 10.98 15.774 0 29.388-4.33 35.72-10.592 20.557.293 39.92.736 57.625 1.304z" opacity=".2"/>
        <ellipse cx="232.5" cy="244" fill="#E27380" opacity=".3" rx="99.5" ry="4"/>
        <path fill="#FFF" d="M125.706 240.7C90.888 223.184 67 187.131 67 145.5 67 86.682 114.682 39 173.5 39S280 86.682 280 145.5c0 19.027-4.99 36.888-13.731 52.347C254.52 194.699 241.998 193 229 193c-43.508 0-81.696 19.04-103.294 47.7z" opacity=".3"/>
        <circle cx="173" cy="145" r="84" fill="#FFF" opacity=".3"/>
        <g transform="translate(187 93)">
            <mask id="prefix__b" fill="#fff">
                <use xlink:href="#prefix__a"/>
            </mask>
            <use fill="#FF6C7E" fill-opacity="0" fill-rule="nonzero" stroke="#FF6C7E" stroke-width="4" xlink:href="#prefix__a"/>
            <path fill="#FF6C7E" fill-rule="nonzero" d="M43.598 130.492c21.224 0 31.77-9.635 31.64-28.906 0-15.886-7.617-23.828-22.851-23.828-4.037 0-7.683.586-10.938 1.758-.781.26-2.148.846-4.101 1.757-1.953.912-3.483 1.563-4.59 1.954-1.107.39-2.507.846-4.2 1.367-1.692.52-3.255.879-4.687 1.074-1.432.195-2.864.293-4.297.293-3.255 0-6.022-1.172-8.3-3.516-2.28-2.343-3.353-5.143-3.223-8.398l2.734-51.953c.26-4.818 2.083-8.887 5.469-12.207 3.385-3.32 7.487-4.98 12.305-4.98h56.836c3.255 0 5.924 1.139 8.007 3.417 2.084 2.279 3.125 4.948 3.125 8.008 0 3.06-1.074 5.697-3.222 7.91-2.149 2.214-4.785 3.32-7.91 3.32h-46.29c-.52 0-1.041.228-1.562.684-.52.456-.781 1.01-.781 1.66l-1.367 31.25c0 .13.065.196.195.196s.26-.066.39-.196c6.641-3.255 13.803-4.817 21.485-4.687 14.453 0 25.65 3.906 33.594 11.718C99 76 102.973 87.133 102.973 101.587c0 34.245-19.531 51.367-58.594 51.367-10.417 0-20.182-1.432-29.297-4.297-3.125-.911-5.404-2.93-6.836-6.054-1.432-3.125-1.758-6.316-.976-9.57.78-2.996 2.539-5.144 5.273-6.446 2.734-1.302 5.599-1.432 8.594-.39 8.333 2.864 15.82 4.296 22.46 4.296zM201.8 36.938c-4.558-8.073-11.491-12.11-20.801-12.11-9.31 0-16.243 4.004-20.8 12.012-4.558 8.008-6.837 21.745-6.837 41.21 0 19.467 2.279 33.204 6.836 41.212 4.558 8.008 11.491 12.011 20.801 12.011 9.31 0 16.243-4.003 20.8-12.011 4.558-8.008 6.837-21.745 6.837-41.211 0-19.466-2.279-33.17-6.836-41.114zm21.289 98.242c-9.245 11.849-23.275 17.773-42.09 17.773-18.815 0-32.845-5.924-42.09-17.773-9.245-11.85-13.867-30.892-13.867-57.13 0-26.236 4.622-45.312 13.867-57.226C148.155 8.91 162.185 2.954 181 2.954c18.815 0 32.845 5.956 42.09 17.87 9.245 11.914 13.867 30.99 13.867 57.227s-4.622 45.28-13.867 57.129zm106.64-98.243c-4.557-8.072-11.49-12.109-20.8-12.109s-16.244 4.004-20.801 12.012c-4.557 8.008-6.836 21.745-6.836 41.21 0 19.467 2.279 33.204 6.836 41.212 4.557 8.008 11.49 12.011 20.8 12.011s16.244-4.003 20.801-12.011c4.558-8.008 6.836-21.745 6.836-41.211 0-19.466-2.278-33.17-6.836-41.114zm21.29 98.243c-9.245 11.849-23.275 17.773-42.09 17.773-18.816 0-32.845-5.924-42.09-17.773-9.245-11.85-13.867-30.892-13.867-57.13 0-26.236 4.622-45.312 13.867-57.226 9.245-11.914 23.274-17.87 42.09-17.87 18.815 0 32.845 5.956 42.09 17.87 9.244 11.914 13.867 30.99 13.867 57.227s-4.623 45.28-13.867 57.129z" mask="url(#prefix__b)" opacity=".5"/>
        </g>
        <g>
            <path fill="#FFF" d="M133.871 89.242c-1.07-1.788-2.143-3.576-3.214-5.363l11.78 2.144-8.566 3.219zm-3.415-24.523l1.712-4.587c3.947-10.548 9.35-20.661 16.057-30.056 4.01-5.62 8.517-10.95 13.398-15.843.555-.554.724-1.384.433-2.111-.295-.74-.972-1.21-1.767-1.23-4.148-.1-8.339.053-12.453.445-3.153.302-6.335.755-9.454 1.344l-.048.01-17.9-3.146.351-.364c.76-.782 1.553-1.544 2.36-2.265 1.248-1.115 2.577-2.175 3.946-3.152.724-.517 1.01-1.426.715-2.264-.283-.792-1.008-1.303-1.835-1.303-.044 0-.089 0-.134.004-4.587.296-16.67 1.89-22.713 4.7-18.15 8.443-36.544 31.523-45.769 57.432-6.009 16.88-8.262 34.963-6.695 53.746.836 10.008 5.36 19.266 12.735 26.066 7.38 6.8 16.963 10.545 26.99 10.545h17.965c7.684 0 14.994-2.454 21.135-7.095l.444-.334-.01.394 12.911.325.25-.315c4.38-5.527 8.066-11.504 10.96-17.761 2.791-6.04 5.954-12.882 6.143-22.083.115-5.53.255-12.408-3.766-16.552l-.293-.301.397-.14c3.238-1.124 4.954-2.541 5.25-4.333.558-3.391-4.11-6.554-14.786-12.36l-16.529-7.416z" transform="translate(51 97)"/>
            <g transform="translate(51 97) translate(0 135)">
                <mask id="prefix__d" fill="#fff">
                    <use xlink:href="#prefix__c"/>
                </mask>
                <path fill="#32322E" d="M22.702 27c-4.043 0-7.276-.369-10.48-.934C4.823 24.758-.311 18.997.015 12.37.297 6.65 6.806 1.963 16.213.703c2.162-.29 4.153 1.232 4.443 3.403.289 2.168-1.23 4.16-3.395 4.45-7.038.944-9.26 3.838-9.351 4.24-.122 2.508 2.32 4.873 5.688 5.469 5.597.988 11.405 1.277 23.046-.345 9.747-1.355 17.064-2.84 19.817-3.4l.39-.077c10.94-2.213 22.429-3.716 34.146-4.466 2.18-.133 4.059 1.518 4.198 3.7.14 2.184-1.514 4.067-3.693 4.206-11.362.727-22.494 2.183-33.086 4.325l-.384.078c-2.82.572-10.31 2.091-20.3 3.482-6.285.877-11.05 1.232-15.03 1.232" mask="url(#prefix__d)"/>
            </g>
            <path fill="#FFF" d="M124.879 109.004c-1.08-11.696-.187-21.232.81-27.677 2.628-17.014 10.207-35.362 21.882-51.72 4.804-6.731 9.58-12.03 13.485-15.942.715-.718.225-1.944-.784-1.968-3.77-.09-7.912.016-12.36.442-3.432.328-6.633.807-9.573 1.37-6.496-1.143-12.993-2.284-19.49-3.425 1.082-1.216 2.33-2.49 3.76-3.768 1.364-1.217 2.713-2.28 4.016-3.21.95-.677.428-2.178-.737-2.102-3.781.244-16.196 1.729-22.425 4.627-17.37 8.079-35.83 30.23-45.351 56.972-6.896 19.37-7.945 37.898-6.651 53.408 1.692 20.277 18.61 35.874 38.924 35.874h17.966c14.67 0 27.715-9.344 32.456-23.25.115-.34 1.259-3.702 3.638-10.66.392-1.144 1.375-4.021 1.758-5.137" transform="translate(51 97)"/>
            <g transform="translate(51 97) translate(50 1)">
                <mask id="prefix__f" fill="#fff">
                    <use xlink:href="#prefix__e"/>
                </mask>
                <path fill="#32322E" d="M33.475 3.118c-4.861 8.792-7.987 23.489-.71 33.079 8.05 10.607 24.426 9.16 35.507 8.18 2.932-.26 23.246-2.345 40.478-18.14 5.913-5.42 14.202-13.015 13.162-22.445-.67-6.054-4.912-10.391-6.507-12.024-2.573-2.63-7.747-6.807-18.534-8.585-3.857-.635-48.308-7.352-63.396 19.935" mask="url(#prefix__f)"/>
            </g>
            <g transform="translate(51 97) translate(50 1)">
                <mask id="prefix__h" fill="#fff">
                    <use xlink:href="#prefix__g"/>
                </mask>
                <path fill="#ECECEC" d="M100.318.622c2.531 5.205-.628 11.02-20.58 43.358C68.081 62.868 68.202 62.434 67.26 64.459c-8.982 19.302-11.553 40.538-12.28 47.986-1.252 12.828-.273 17.944-4.858 24.31-7.143 9.915-19.329 11.126-19.863 11.172-17.053 1.427-28.445-15.043-30.56-18.102-6.029-8.715-7.609-17.258-8.733-28.345-.94-9.27-1.435-18.67.038-27.87C-6.83 60.094-.518 47.609 6.515 35.872 14.751 22.127 29.766-.906 55.461-7.597c11.173-2.907 20.434-1.65 23.578-1.126C87.678-7.284 97.25-5.69 100.318.622" mask="url(#prefix__h)"/>
            </g>
            <g>
                <path stroke="#32322E" stroke-linecap="round" stroke-width="1.752" d="M74.879 108.004c-1.08-11.696-.187-21.232.81-27.677 2.628-17.014 10.207-35.362 21.882-51.72 4.804-6.731 9.58-12.031 13.485-15.942.715-.718.225-1.944-.784-1.968-3.77-.09-7.912.016-12.36.442-3.432.328-6.633.807-9.573 1.37-6.496-1.143-12.992-2.284-19.49-3.425 1.082-1.216 2.33-2.49 3.76-3.768 1.364-1.217 2.713-2.28 4.016-3.21.95-.677.428-2.178-.737-2.102-3.781.244-16.196 1.729-22.425 4.627-17.37 8.079-35.83 30.23-45.351 56.972C1.216 80.973.167 99.5 1.46 115.01c1.692 20.277 18.61 35.874 38.924 35.874H58.35c14.67 0 27.715-9.344 32.456-23.25.115-.34 1.259-3.702 3.637-10.661.393-1.143 1.376-4.021 1.759-5.136" transform="translate(51 97) translate(50 1)"/>
                <path stroke="#32322E" stroke-width="1.752" d="M74.32 100.878c.187-.57 4.704-13.566 16.754-15.756.13-.023.322-.058.573-.098 4.901-.772 10.208.646 13.105 2.838 4.9 3.71 4.75 11.093 4.63 16.942-.184 8.85-3.137 15.414-6.07 21.76-2.063 4.46-5.44 10.757-10.862 17.6l-12.778-.32" transform="translate(51 97) translate(50 1)"/>
                <path stroke="#32322E" stroke-width="2.144" d="M75.346 82.382c.83-.102 2.064-.125 3.42.343 3.626 1.25 4.936 4.918 5.129 5.479" transform="translate(51 97) translate(50 1)"/>
                <path stroke="#32322E" stroke-width="1.501" d="M84.59 143.845l2.749-4.48M88.694 143.845l2.478-3.84" transform="translate(51 97) translate(50 1)"/>
                <path fill="#FFF" d="M72.643 60.003c9.986 4.469 18.076 8.64 23.96 11.84 10.466 5.69 14.827 8.78 14.375 11.52-.313 1.9-2.852 3.1-5.11 3.84-5.314-.894-10.693-1.843-16.135-2.846-5.676-1.046-9.778-1.935-15.412-2.454" transform="translate(51 97) translate(50 1)"/>
                <path stroke="#32322E" stroke-width="1.752" d="M72.643 60.003c9.986 4.469 18.076 8.64 23.96 11.84 10.466 5.69 14.827 8.78 14.375 11.52-.313 1.9-2.852 3.1-5.11 3.84-5.314-.894-10.693-1.843-16.135-2.846-5.676-1.046-9.778-1.935-15.412-2.454" transform="translate(51 97) translate(50 1)"/>
            </g>
        </g>
    </g>
</svg>
