<svg xmlns="http://www.w3.org/2000/svg" xmlns:xlink="http://www.w3.org/1999/xlink" width="645" height="305" viewBox="0 0 645 305">
    <defs>
        <path id="prefix__a" d="M26.816 96.46c0 .131-.032.196-.097.196s-.098.065-.098.196c0 .13.065.195.195.195h37.696c1.432 0 2.148-.846 2.148-2.54V39.82c0-.13-.065-.195-.195-.195h-.195L26.816 96.461zm-15.039 22.462c-2.994 0-5.599-1.042-7.812-3.125-2.214-2.083-3.32-4.688-3.32-7.813 0-7.422 2.148-14.062 6.445-19.921l51.758-74.024c5.078-7.292 12.24-11.003 21.484-11.133 3.776 0 6.966 1.335 9.57 4.004 2.605 2.67 3.907 5.892 3.907 9.668v77.93c0 1.562.78 2.409 2.343 2.539h8.985c3.125 0 5.729 1.074 7.812 3.223 2.084 2.148 3.125 4.752 3.125 7.812 0 3.06-1.074 5.632-3.222 7.715-2.149 2.083-4.72 3.125-7.715 3.125h-8.985c-1.432 0-2.213.781-2.343 2.344v14.062c0 3.776-1.302 6.999-3.907 9.668-2.604 2.67-5.794 4.004-9.57 4.004-3.776 0-6.999-1.335-9.668-4.004-2.67-2.67-4.004-5.892-4.004-9.668v-14.062c0-1.433-.716-2.214-2.148-2.344H11.777zm199.024-83.984c-4.558-8.073-11.491-12.11-20.801-12.11-9.31 0-16.243 4.004-20.8 12.012-4.558 8.008-6.837 21.745-6.837 41.21 0 19.467 2.279 33.204 6.836 41.212 4.558 8.008 11.491 12.011 20.801 12.011 9.31 0 16.243-4.003 20.8-12.011 4.558-8.008 6.837-21.745 6.837-41.211 0-19.466-2.279-33.17-6.836-41.114zm21.289 98.242c-9.245 11.849-23.275 17.773-42.09 17.773-18.815 0-32.845-5.924-42.09-17.773-9.245-11.85-13.867-30.892-13.867-57.13 0-26.236 4.622-45.312 13.867-57.226C157.155 6.91 171.185.954 190 .954c18.815 0 32.845 5.956 42.09 17.87 9.245 11.914 13.867 30.99 13.867 57.227s-4.622 45.28-13.867 57.129zm50.586-36.72c0 .131-.033.196-.098.196s-.098.065-.098.196c0 .13.066.195.196.195h37.695c1.432 0 2.149-.846 2.149-2.54V39.82c0-.13-.066-.195-.196-.195h-.195l-39.453 56.836zm-15.04 22.462c-2.994 0-5.598-1.042-7.812-3.125-2.213-2.083-3.32-4.688-3.32-7.813 0-7.422 2.148-14.062 6.445-19.921l51.758-74.024c5.078-7.292 12.24-11.003 21.484-11.133 3.776 0 6.967 1.335 9.57 4.004 2.605 2.67 3.907 5.892 3.907 9.668v77.93c0 1.562.781 2.409 2.344 2.539h8.984c3.125 0 5.73 1.074 7.813 3.223 2.083 2.148 3.125 4.752 3.125 7.812 0 3.06-1.075 5.632-3.223 7.715-2.149 2.083-4.72 3.125-7.715 3.125h-8.984c-1.433 0-2.214.781-2.344 2.344v14.062c0 3.776-1.302 6.999-3.906 9.668-2.604 2.67-5.795 4.004-9.57 4.004-3.777 0-7-1.335-9.669-4.004-2.669-2.67-4.003-5.892-4.003-9.668v-14.062c0-1.433-.717-2.214-2.149-2.344h-52.734z"/>
        <path id="prefix__c" d="M0 0.668L95.203 0.668 95.203 26.999 0 26.999z"/>
        <path id="prefix__e" d="M75.886.004c.03-.003.057-.003.085-.003 1.106 0 1.583 1.446.655 2.106-1.304.928-2.653 1.992-4.016 3.209-1.432 1.279-2.678 2.553-3.762 3.766l19.491 3.426c2.941-.561 6.14-1.04 9.574-1.37 4.447-.426 8.589-.53 12.359-.44 1.01.024 1.497 1.25.783 1.967-3.903 3.911-8.68 9.211-13.484 15.942-11.677 16.358-19.254 34.705-21.884 51.72-.996 6.444-1.887 15.98-.807 27.676l21.323 3.836-1.758 5.136c-2.378 6.958-3.524 10.32-3.639 10.66-4.741 13.905-17.785 23.249-32.456 23.249H40.386c-20.314 0-37.233-15.596-38.926-35.873-1.292-15.51-.244-34.039 6.653-53.409 9.52-26.74 27.981-48.892 45.35-56.971"/>
        <path id="prefix__g" d="M101.068 10.885v13.053c-1.156 1.472-2.326 3.028-3.497 4.669-11.677 16.358-19.254 34.705-21.884 51.72-.996 6.444-1.887 15.98-.807 27.676l21.323 3.836-1.758 5.136c-2.378 6.958-3.524 10.32-3.639 10.66-3.18 9.324-10.092 16.598-18.726 20.378h-46.4c-13.258-5.402-22.96-17.905-24.22-33.002-1.292-15.51-.244-34.039 6.653-53.409 9.52-26.74 27.981-48.892 45.35-56.971C59.694 1.732 72.105.248 75.886.004c.03-.003.057-.003.085-.003 1.106 0 1.583 1.446.655 2.106-1.304.928-2.653 1.992-4.016 3.209-1.432 1.279-2.678 2.553-3.762 3.766l19.491 3.426c2.941-.561 6.14-1.04 9.574-1.37 1.07-.102 2.122-.186 3.155-.253"/>
    </defs>
    <g fill="none" fill-rule="evenodd">
        <path fill="#FBB" d="M329.136 296.03c93.711 0 152.598 21.405 237.701-6.122C611.187 275.562 644 238.21 644 164.583c0-60.663-23.85-112.068-134.362-136.167-41.653-9.083-131.485-27.382-180.502-27.382-83.688 0-191.314-2.14-245.235 27.382C22.45 62.061 1 115 1 159.488c0 50.903 8.982 105.586 72.821 130.42 71.007 27.621 157.616 6.121 255.315 6.121z" opacity=".3"/>
        <path fill="#FF8997" d="M510.972 235.36c1.998 3.306 6.854 5.64 12.528 5.64 4.793 0 9.002-1.665 11.398-4.174C560.775 238.707 576 241.01 576 243.5c0 6.351-99.169 11.5-221.5 11.5S133 249.851 133 243.5c0-4.455 48.801-8.319 120.165-10.229 1.037 5.51 6.836 9.729 13.835 9.729 7.26 0 13.229-4.539 13.93-10.35 19.094-.35 39.386-.566 60.47-.63 6.153 6.47 20.002 10.98 36.1 10.98 15.774 0 29.388-4.33 35.72-10.592 37.494.534 71.016 1.567 97.752 2.952z" opacity=".2"/>
        <ellipse cx="232.5" cy="244" fill="#E27380" opacity=".3" rx="99.5" ry="4"/>
        <path fill="#FFF" d="M125.706 240.7C90.888 223.184 67 187.131 67 145.5 67 86.682 114.682 39 173.5 39S280 86.682 280 145.5c0 19.027-4.99 36.888-13.731 52.347C254.52 194.699 241.998 193 229 193c-43.508 0-81.696 19.04-103.294 47.7z" opacity=".3"/>
        <circle cx="173" cy="145" r="84" fill="#FFF" opacity=".3"/>
        <g transform="translate(187 93)">
            <mask id="prefix__b" fill="#fff">
                <use xlink:href="#prefix__a"/>
            </mask>
            <use fill="#FF8997" fill-opacity="0" fill-rule="nonzero" stroke="#FF6C7E" stroke-width="4" xlink:href="#prefix__a"/>
            <path fill="#FF6C7E" fill-rule="nonzero" d="M17.816 96.46c0 .131-.032.196-.097.196s-.098.065-.098.196c0 .13.065.195.195.195h37.696c1.432 0 2.148-.846 2.148-2.54V39.82c0-.13-.065-.195-.195-.195h-.195L17.816 96.461zM2.777 118.923c-2.994 0-5.599-1.042-7.812-3.125-2.214-2.083-3.32-4.688-3.32-7.813 0-7.422 2.148-14.062 6.445-19.921l51.758-74.024c5.078-7.292 12.24-11.003 21.484-11.133 3.776 0 6.966 1.335 9.57 4.004 2.605 2.67 3.907 5.892 3.907 9.668v77.93c0 1.562.78 2.409 2.343 2.539h8.985c3.125 0 5.729 1.074 7.812 3.223 2.084 2.148 3.125 4.752 3.125 7.812 0 3.06-1.074 5.632-3.222 7.715-2.149 2.083-4.72 3.125-7.715 3.125h-8.985c-1.432 0-2.213.781-2.343 2.344v14.062c0 3.776-1.302 6.999-3.907 9.668-2.604 2.67-5.794 4.004-9.57 4.004-3.776 0-6.999-1.335-9.668-4.004-2.67-2.67-4.004-5.892-4.004-9.668v-14.062c0-1.433-.716-2.214-2.148-2.344H2.777zm199.024-83.984c-4.558-8.073-11.491-12.11-20.801-12.11-9.31 0-16.243 4.004-20.8 12.012-4.558 8.008-6.837 21.745-6.837 41.21 0 19.467 2.279 33.204 6.836 41.212 4.558 8.008 11.491 12.011 20.801 12.011 9.31 0 16.243-4.003 20.8-12.011 4.558-8.008 6.837-21.745 6.837-41.211 0-19.466-2.279-33.17-6.836-41.114zm21.289 98.242c-9.245 11.849-23.275 17.773-42.09 17.773-18.815 0-32.845-5.924-42.09-17.773-9.245-11.85-13.867-30.892-13.867-57.13 0-26.236 4.622-45.312 13.867-57.226C148.155 6.91 162.185.954 181 .954c18.815 0 32.845 5.956 42.09 17.87 9.245 11.914 13.867 30.99 13.867 57.227s-4.622 45.28-13.867 57.129zm50.586-36.72c0 .131-.033.196-.098.196s-.098.065-.098.196c0 .13.066.195.196.195h37.695c1.432 0 2.149-.846 2.149-2.54V39.82c0-.13-.066-.195-.196-.195h-.195l-39.453 56.836zm-15.04 22.462c-2.994 0-5.598-1.042-7.812-3.125-2.213-2.083-3.32-4.688-3.32-7.813 0-7.422 2.148-14.062 6.445-19.921l51.758-74.024c5.078-7.292 12.24-11.003 21.484-11.133 3.776 0 6.967 1.335 9.57 4.004 2.605 2.67 3.907 5.892 3.907 9.668v77.93c0 1.562.781 2.409 2.344 2.539h8.984c3.125 0 5.73 1.074 7.813 3.223 2.083 2.148 3.125 4.752 3.125 7.812 0 3.06-1.075 5.632-3.223 7.715-2.149 2.083-4.72 3.125-7.715 3.125h-8.984c-1.433 0-2.214.781-2.344 2.344v14.062c0 3.776-1.302 6.999-3.906 9.668-2.604 2.67-5.795 4.004-9.57 4.004-3.777 0-7-1.335-9.669-4.004-2.669-2.67-4.003-5.892-4.003-9.668v-14.062c0-1.433-.717-2.214-2.149-2.344h-52.734z" mask="url(#prefix__b)" opacity=".5"/>
        </g>
        <g>
            <path fill="#FFF" d="M133.871 89.242c-1.07-1.788-2.143-3.576-3.214-5.363l11.78 2.144-8.566 3.219zm-3.415-24.523l1.712-4.587c3.947-10.548 9.35-20.661 16.057-30.056 4.01-5.62 8.517-10.95 13.398-15.843.555-.554.724-1.384.433-2.111-.295-.74-.972-1.21-1.767-1.23-4.148-.1-8.339.053-12.453.445-3.153.302-6.335.755-9.454 1.344l-.048.01-17.9-3.146.351-.364c.76-.782 1.553-1.544 2.36-2.265 1.248-1.115 2.577-2.175 3.946-3.152.724-.517 1.01-1.426.715-2.264-.283-.792-1.008-1.303-1.835-1.303-.044 0-.089 0-.134.004-4.587.296-16.67 1.89-22.713 4.7-18.15 8.443-36.544 31.523-45.769 57.432-6.009 16.88-8.262 34.963-6.695 53.746.836 10.008 5.36 19.266 12.735 26.066 7.38 6.8 16.963 10.545 26.99 10.545h17.965c7.684 0 14.994-2.454 21.135-7.095l.444-.334-.01.394 12.911.325.25-.315c4.38-5.527 8.066-11.504 10.96-17.761 2.791-6.04 5.954-12.882 6.143-22.083.115-5.53.255-12.408-3.766-16.552l-.293-.301.397-.14c3.238-1.124 4.954-2.541 5.25-4.333.558-3.391-4.11-6.554-14.786-12.36l-16.529-7.416z" transform="translate(51 97)"/>
            <g transform="translate(51 97) translate(0 135)">
                <mask id="prefix__d" fill="#fff">
                    <use xlink:href="#prefix__c"/>
                </mask>
                <path fill="#32322E" d="M22.702 27c-4.043 0-7.276-.369-10.48-.934C4.823 24.758-.311 18.997.015 12.37.297 6.65 6.806 1.963 16.213.703c2.162-.29 4.153 1.232 4.443 3.403.289 2.168-1.23 4.16-3.395 4.45-7.038.944-9.26 3.838-9.351 4.24-.122 2.508 2.32 4.873 5.688 5.469 5.597.988 11.405 1.277 23.046-.345 9.747-1.355 17.064-2.84 19.817-3.4l.39-.077c10.94-2.213 22.429-3.716 34.146-4.466 2.18-.133 4.059 1.518 4.198 3.7.14 2.184-1.514 4.067-3.693 4.206-11.362.727-22.494 2.183-33.086 4.325l-.384.078c-2.82.572-10.31 2.091-20.3 3.482-6.285.877-11.05 1.232-15.03 1.232" mask="url(#prefix__d)"/>
            </g>
            <path fill="#FFF" d="M124.879 109.004c-1.08-11.696-.187-21.232.81-27.677 2.628-17.014 10.207-35.362 21.882-51.72 4.804-6.731 9.58-12.03 13.485-15.942.715-.718.225-1.944-.784-1.968-3.77-.09-7.912.016-12.36.442-3.432.328-6.633.807-9.573 1.37-6.496-1.143-12.993-2.284-19.49-3.425 1.082-1.216 2.33-2.49 3.76-3.768 1.364-1.217 2.713-2.28 4.016-3.21.95-.677.428-2.178-.737-2.102-3.781.244-16.196 1.729-22.425 4.627-17.37 8.079-35.83 30.23-45.351 56.972-6.896 19.37-7.945 37.898-6.651 53.408 1.692 20.277 18.61 35.874 38.924 35.874h17.966c14.67 0 27.715-9.344 32.456-23.25.115-.34 1.259-3.702 3.638-10.66.392-1.144 1.375-4.021 1.758-5.137" transform="translate(51 97)"/>
            <g transform="translate(51 97) translate(50 1)">
                <mask id="prefix__f" fill="#fff">
                    <use xlink:href="#prefix__e"/>
                </mask>
                <path fill="#32322E" d="M33.475 3.118c-4.861 8.792-7.987 23.489-.71 33.079 8.05 10.607 24.426 9.16 35.507 8.18 2.932-.26 23.246-2.345 40.478-18.14 5.913-5.42 14.202-13.015 13.162-22.445-.67-6.054-4.912-10.391-6.507-12.024-2.573-2.63-7.747-6.807-18.534-8.585-3.857-.635-48.308-7.352-63.396 19.935" mask="url(#prefix__f)"/>
            </g>
            <g transform="translate(51 97) translate(50 1)">
                <mask id="prefix__h" fill="#fff">
                    <use xlink:href="#prefix__g"/>
                </mask>
                <path fill="#ECECEC" d="M100.318.622c2.531 5.205-.628 11.02-20.58 43.358C68.081 62.868 68.202 62.434 67.26 64.459c-8.982 19.302-11.553 40.538-12.28 47.986-1.252 12.828-.273 17.944-4.858 24.31-7.143 9.915-19.329 11.126-19.863 11.172-17.053 1.427-28.445-15.043-30.56-18.102-6.029-8.715-7.609-17.258-8.733-28.345-.94-9.27-1.435-18.67.038-27.87C-6.83 60.094-.518 47.609 6.515 35.872 14.751 22.127 29.766-.906 55.461-7.597c11.173-2.907 20.434-1.65 23.578-1.126C87.678-7.284 97.25-5.69 100.318.622" mask="url(#prefix__h)"/>
            </g>
            <g>
                <path stroke="#32322E" stroke-linecap="round" stroke-width="1.752" d="M74.879 108.004c-1.08-11.696-.187-21.232.81-27.677 2.628-17.014 10.207-35.362 21.882-51.72 4.804-6.731 9.58-12.031 13.485-15.942.715-.718.225-1.944-.784-1.968-3.77-.09-7.912.016-12.36.442-3.432.328-6.633.807-9.573 1.37-6.496-1.143-12.992-2.284-19.49-3.425 1.082-1.216 2.33-2.49 3.76-3.768 1.364-1.217 2.713-2.28 4.016-3.21.95-.677.428-2.178-.737-2.102-3.781.244-16.196 1.729-22.425 4.627-17.37 8.079-35.83 30.23-45.351 56.972C1.216 80.973.167 99.5 1.46 115.01c1.692 20.277 18.61 35.874 38.924 35.874H58.35c14.67 0 27.715-9.344 32.456-23.25.115-.34 1.259-3.702 3.637-10.661.393-1.143 1.376-4.021 1.759-5.136" transform="translate(51 97) translate(50 1)"/>
                <path stroke="#32322E" stroke-width="1.752" d="M74.32 100.878c.187-.57 4.704-13.566 16.754-15.756.13-.023.322-.058.573-.098 4.901-.772 10.208.646 13.105 2.838 4.9 3.71 4.75 11.093 4.63 16.942-.184 8.85-3.137 15.414-6.07 21.76-2.063 4.46-5.44 10.757-10.862 17.6l-12.778-.32" transform="translate(51 97) translate(50 1)"/>
                <path stroke="#32322E" stroke-width="2.144" d="M75.346 82.382c.83-.102 2.064-.125 3.42.343 3.626 1.25 4.936 4.918 5.129 5.479" transform="translate(51 97) translate(50 1)"/>
                <path stroke="#32322E" stroke-width="1.501" d="M84.59 143.845l2.749-4.48M88.694 143.845l2.478-3.84" transform="translate(51 97) translate(50 1)"/>
                <path fill="#FFF" d="M72.643 60.003c9.986 4.469 18.076 8.64 23.96 11.84 10.466 5.69 14.827 8.78 14.375 11.52-.313 1.9-2.852 3.1-5.11 3.84-5.314-.894-10.693-1.843-16.135-2.846-5.676-1.046-9.778-1.935-15.412-2.454" transform="translate(51 97) translate(50 1)"/>
                <path stroke="#32322E" stroke-width="1.752" d="M72.643 60.003c9.986 4.469 18.076 8.64 23.96 11.84 10.466 5.69 14.827 8.78 14.375 11.52-.313 1.9-2.852 3.1-5.11 3.84-5.314-.894-10.693-1.843-16.135-2.846-5.676-1.046-9.778-1.935-15.412-2.454" transform="translate(51 97) translate(50 1)"/>
            </g>
        </g>
    </g>
</svg>
