<svg xmlns="http://www.w3.org/2000/svg" xmlns:xlink="http://www.w3.org/1999/xlink" width="440" height="464" viewBox="0 0 440 464">
    <defs>
        <path id="prefix__a" d="M0 0H440V464H0z"/>
        <path id="prefix__c" d="M14.908 150.69C9.705 110.937 3.734 62.897.675 29.87c-.399-4.324 5.522-5.934 8.447-2.517L46.51 70.99c1.096 1.279 2.743 1.96 4.367 1.812L128.43 60.48c1.536-.137 2.86-1.01 3.56-2.325l23.536-55.479c.375-.709.893-1.25 1.49-1.635.142-.094 1.494-.937 3.246-.655 1.835.294 3.459 1.712 4.213 3.627 5.783 15.313 11.554 31.244 17.252 47.772 7.09 20.562 14.468 42.855 21.812 66.43-11.22 8.43-23.072 10.247-29.99 11.222-6.92.978-22.332 2.941-39.07-4.88-21.232-9.924-29.94-28.751-32.174-34.054-.537-2.379-2.869-3.66-4.698-3.09-1.394.43-2.43 1.909-2.448 3.628-.185 4.05-1.88 31.004-24.956 48.81-3.22 2.485-23.83 17.872-49.613 12.38-1.983-.422-3.876-.942-5.682-1.542z"/>
    </defs>
    <g fill="none" fill-rule="evenodd">
        <mask id="prefix__b" fill="#fff">
            <use xlink:href="#prefix__a"/>
        </mask>
        <g mask="url(#prefix__b)">
            <g>
                <g>
                    <path fill="#FFF" d="M1.115 47.93c3.34.04 27.996 3.903 64.225-.148 10.75-1.202 28.922-6.717 54.515-16.545L112.579 3.76C95.665 6.352 80.656 8.19 67.554 9.276 51.982 10.566 30.308 7.89.514.016" transform="rotate(-30 220.608 251.85) scale(-1 1) rotate(-3 3562.718 2460.943)"/>
                    <path stroke="#32322E" stroke-width="5.112" d="M1.115 47.93c3.34.04 27.996 3.903 64.225-.148 10.75-1.202 28.922-6.717 54.515-16.545L112.579 3.76C95.665 6.352 80.656 8.19 67.554 9.276 51.982 10.566 30.308 7.89.514.016M115.617 12.83l-12.287 2.79M117.226 20.962l-12.289 2.784" transform="rotate(-30 220.608 251.85) scale(-1 1) rotate(-3 3562.718 2460.943)"/>
                </g>
                <g>
                    <path fill="#32322E" d="M175.98 416.555c28.366 7.703 73.01 14.4 124.609 2.576 30.008-6.874 56.839-24.91 76.429-38.079 16.775-11.274 26.005-17.482 30.328-12.618 1.54 1.738 2.31 4.016 2.28 6.77-.042 4.327-2.076 8.536-5.583 11.542-16.119 13.833-33.88 25.662-52.8 35.153-14.937 7.49-46.012 23.083-89.383 25.863-22.132 1.42-44.447-.674-66.337-6.217l-.519-.129-25.42-26.597 6.396 1.736z" transform="rotate(-30 220.608 251.85) translate(42.259)"/>
                    <path fill="#FFF" d="M263.044 283.177c-7.58 61.875-20.987 123.238-40.222 184.09-.717 23.232.86 59.606 4.733 109.124h-29.062l-35.737-99.512-81.058-18.38-50.843 118.24-30.725-.348s18.753-140.887 32.897-226.937c17.335-105.48 49.157-211.204 76.638-290.907 5.698-16.527 11.469-32.459 17.252-47.772.754-1.915 2.378-3.333 4.213-3.627 1.752-.281 3.104.561 3.246.655.597.386 1.115.927 1.49 1.636l23.537 55.478c.7 1.315 2.023 2.188 3.56 2.325l77.553 12.321c1.624.149 3.271-.533 4.367-1.811l37.387-43.638c2.925-3.416 8.846-1.807 8.447 2.518-6.111 65.992-23.853 191.923-23.853 191.923 9.169.164 9.522 4.304 24.183.128 14.66-4.176 26.773-11.39 36.223-17.217 2.97-1.83 5.154-3.25 8.69-4.418 9.911-3.264 18.685-.628 23.863.924 10.163 3.05 17.144 8.582 21.273 12.613-5.08 4.442-15.234 13.33-15.234 13.33s-11.111-4.949-21.068-6.065c-7.11 9.41-17.84 21.587-33.088 33.165-20.57 15.612-35.636 18.186-48.662 22.162z" transform="rotate(-30 220.608 251.85) translate(42.259)"/>
                    <g transform="rotate(-30 220.608 251.85) translate(42.259) matrix(-1 0 0 1 291.8 7)">
                        <use fill="#32322E" xlink:href="#prefix__c"/>
                    </g>
                    <path stroke="#32322E" stroke-linecap="round" stroke-linejoin="round" stroke-width="4.05" d="M171.812 133.414c2.105 5.086 6.62 8.058 13.545 8.918 6.926.86 12.232-.452 15.92-3.935" transform="rotate(-30 220.608 251.85) translate(42.259)"/>
                    <path stroke="#32322E" stroke-width="4.055" d="M371.652 228.467L359 223.2M376.982 224.248L364.4 217.8" transform="rotate(-30 220.608 251.85) translate(42.259)"/>
                    <path stroke="#32322E" stroke-linecap="round" stroke-width="4.73" d="M263.044 283.177c-7.58 61.875-20.987 123.238-40.222 184.09-.717 23.232.86 59.606 4.733 109.124h-29.062l-35.737-99.512-81.058-18.38-50.843 118.24-30.725-.348s18.753-140.887 32.897-226.937c17.335-105.48 49.157-211.204 76.638-290.907 5.698-16.527 11.469-32.459 17.252-47.772.754-1.915 2.378-3.333 4.213-3.627 1.752-.281 3.104.561 3.246.655.597.386 1.115.927 1.49 1.636l23.537 55.478c.7 1.315 2.023 2.188 3.56 2.325l77.553 12.321c1.624.149 3.271-.533 4.367-1.811l37.387-43.638c2.925-3.416 8.846-1.807 8.447 2.518-6.111 65.992-23.853 191.923-23.853 191.923 9.169.164 9.522 4.304 24.183.128 14.66-4.176 26.773-11.39 36.223-17.217 2.97-1.83 5.154-3.25 8.69-4.418 9.911-3.264 18.685-.628 23.863.924 10.163 3.05 17.144 8.582 21.273 12.613-5.08 4.442-15.234 13.33-15.234 13.33s-11.111-4.949-21.068-6.065c-7.11 9.41-17.84 21.587-33.088 33.165-20.57 15.612-35.636 18.186-48.662 22.162z" transform="rotate(-30 220.608 251.85) translate(42.259)"/>
                    <path fill="#FFF" d="M144.747 115.644c-3.372.005-6.695-.403-11.94-2.308-5.117-1.851-9.764-6.854-9.32-12.307.446-5.497 5.791-8.573 6.2-8.798 4.493-2.5 9.102-1.22 13.563.018 3.836 1.064 9.68 2.69 12.326 7.974.462.934 1.777 3.561 1.09 6.604-1.256 5.563-7.381 8.81-11.92 8.817" transform="rotate(-30 220.608 251.85) translate(42.259)"/>
                    <path fill="#32322E" d="M125.963 98.795c-1.407 6.754 2.064 13.191 7.754 14.377 5.684 1.185 11.434-3.329 12.842-10.088 1.407-6.754-2.067-13.192-7.754-14.377-5.687-1.185-11.437 3.331-12.842 10.088" transform="rotate(-30 220.608 251.85) translate(42.259)"/>
                    <path stroke="#32322E" stroke-linecap="round" stroke-width="4.055" d="M188.82 127.222l-2.62 13.87" transform="rotate(-30 220.608 251.85) translate(42.259)"/>
                    <path fill="#FF6C7E" d="M183.104 128.14l-3.385-4.14c-1.315-1.605.15-3.747 2.32-3.39l13.885 2.254c2.17.352 2.874 2.848 1.121 3.953l-4.52 2.854c-2.965 1.869-7.204 1.183-9.421-1.531" transform="rotate(-30 220.608 251.85) translate(42.259)"/>
                    <path fill-rule="nonzero" stroke="#FFF" stroke-linecap="round" stroke-linejoin="round" stroke-width="2.7" d="M252.199 123.034c-3.396-2.09-7.194-3.28-11.394-3.57-4.2-.289-9.756.044-16.669 1 3.236-3.57 6.54-6.119 9.913-7.648 3.372-1.528 6.92-2.293 10.647-2.293" transform="rotate(-30 220.608 251.85) translate(42.259)"/>
                </g>
                <g stroke-linejoin="round">
                    <path stroke="#32322E" stroke-width="4.631" d="M9.438 0C1.282 4.895-1.72 13.566.95 23.09M20.006 2.904c-6.844 2.002-12.09 8.49-11.48 14.58" transform="rotate(-30 220.608 251.85) scale(-1 1) rotate(4 -3142.906 -6294.84)"/>
                </g>
            </g>
        </g>
    </g>
</svg>
