<svg xmlns="http://www.w3.org/2000/svg" width="18" height="18" viewBox="0 0 18 18">
    <path fill="#FFF" fill-rule="evenodd" d="M16.272 6.231l.14.333h.009l-.15-.333zm-.62.333l-.292-.007-.003.007h.296zm-.286-.02l.734.02h.3l-.512-1.141-.372.785-.15.337zm-3.2-3.707c.895 0 1.624.729 1.624 1.625v1.08c0 .188-.152.34-.34.34-.189 0-.341-.152-.341-.34v-1.08c0-.52-.424-.944-.944-.944l-1.713-.02v.45c0 .188-.153.34-.34.34h-5.65c-.189 0-.341-.152-.341-.34l.02-.43H2.407c-.496 0-.77.125-.883.336-.049.09-.06.168-.06.286v11.492c0 .52.423.943.943.943h9.758c.52 0 .944-.423.944-.943V8.367c0-.188.152-.34.34-.34.189 0 .34.152.34.34v7.265c0 .896-.728 1.624-1.624 1.624H2.407c-.896 0-1.624-.728-1.624-1.624V4.14c0-.816.61-1.303 1.624-1.303l1.714.02v-.083c0-.524.426-.95.95-.95l.577.012C5.925 1.2 6.558.783 7.255.783h.062c.698 0 1.33.417 1.59 1.041h.595c.523 0 .95.426.95.95l-.02.063h1.733zM9.77 2.774c0-.148-.121-.269-.27-.269h-.82c-.155 0-.29-.103-.33-.251-.126-.465-.551-.79-1.034-.79h-.062c-.482 0-.907.325-1.034.79-.04.148-.175.251-.329.251h-.821c-.148 0-.27.121-.27.269l-.018.833H9.77v-.833zm3.678 3.77c.09 0 .178.037.24.1.064.064.1.151.1.241s-.036.178-.1.241c-.062.063-.15.1-.24.1s-.177-.037-.24-.1c-.064-.064-.1-.151-.1-.241s.036-.177.1-.24c.063-.064.15-.1.24-.1zm3.467 4.574c.09 0 .178.037.24.1.064.064.1.151.1.241s-.036.178-.1.241c-.062.063-.15.1-.24.1s-.177-.037-.24-.1c-.064-.063-.1-.151-.1-.24 0-.09.036-.178.1-.241.063-.064.15-.1.24-.1zm.34-4.233v3.284c0 .188-.152.34-.34.34-.188 0-.34-.152-.34-.34l.019-2.943-1.393-.02-.02 7.88 1.393.02V12.86c0-.188.153-.34.34-.34.19 0 .342.152.342.34v3.61c0 .433-.353.785-.786.785h-1.164c-.433 0-.786-.352-.786-.786V6.885c0-.048.01-.095.03-.139l1.027-2.295c.055-.123.177-.201.31-.201.135 0 .257.078.311.2l1.028 2.296c.02.044.03.091.03.139zm-2.054 8.862v.723c0 .058.047.105.105.105h1.164c.057 0 .104-.047.104-.105v-.704l-1.373-.019zM4.58 6.58c.754 0 1.368.614 1.368 1.368 0 .754-.614 1.367-1.368 1.367-.754 0-1.367-.613-1.367-1.367s.613-1.368 1.367-1.368zm0 2.054c.379 0 .687-.308.687-.686 0-.379-.308-.687-.687-.687-.379 0-.687.308-.687.687 0 .378.308.686.687.686zm0 2.58c.754 0 1.368.614 1.368 1.368 0 .754-.614 1.368-1.368 1.368-.754 0-1.367-.614-1.367-1.368 0-.754.613-1.368 1.367-1.368zm0 2.055c.379 0 .687-.308.687-.687 0-.379-.308-.687-.687-.687-.379 0-.687.308-.687.687 0 .379.308.687.687.687zm2.76-5.026h3.681c.189 0 .34.152.34.34 0 .189-.151.34-.34.34H7.34c-.188 0-.34-.151-.34-.34 0-.188.152-.34.34-.34zm0-1.541h3.681c.189 0 .34.153.34.34 0 .189-.151.341-.34.341H7.34c-.188 0-.34-.152-.34-.34 0-.188.152-.341.34-.341zm0 6.175h3.681c.189 0 .34.153.34.341 0 .188-.151.34-.34.34H7.34c-.188 0-.34-.152-.34-.34 0-.188.152-.34.34-.34zm0-1.54h3.681c.189 0 .34.152.34.34 0 .188-.151.34-.34.34H7.34c-.188 0-.34-.152-.34-.34 0-.188.152-.34.34-.34z" opacity=".7"/>
</svg>
