<svg xmlns="http://www.w3.org/2000/svg" width="18" height="18" viewBox="0 0 18 18">
    <path fill="#FFF" fill-rule="evenodd" d="M2.645 7.42c.156-.62.4-1.21.73-1.761l-.461-.46c-.303-.304-.47-.706-.47-1.134 0-.428.167-.83.47-1.133l.018-.018c.302-.302.705-.47 1.133-.47.428 0 .83.168 1.133.47l.68.681c.153.152.153.398 0 .55-.151.152-.397.152-.55 0l-.68-.68c-.156-.156-.363-.242-.583-.242-.22 0-.427.086-.583.242l-.017.017c-.156.156-.242.363-.242.583 0 .22.086.427.242.583l.68.68c.131.132.152.337.05.491-.42.631-.709 1.326-.857 2.067-.037.181-.197.312-.382.312h-.962c-.454 0-.824.37-.824.824v.025c0 .454.37.824.824.824h.962c.185 0 .345.13.381.313.149.74.437 1.435.857 2.066.103.154.082.36-.049.49l-.68.681c-.156.157-.242.363-.242.583 0 .22.086.427.242.583l.017.017c.156.156.362.242.583.242.22 0 .427-.086.582-.242l.68-.68c.132-.131.338-.152.492-.05.631.421 1.326.71 2.066.857.182.037.313.197.313.382v.962c0 .455.37.824.824.824h.025c.454 0 .824-.37.824-.824v-.962c0-.185.13-.345.313-.382.74-.148 1.435-.436 2.066-.856.154-.103.36-.082.49.049l.682.68c.155.156.362.242.582.242.22 0 .428-.086.583-.242l.017-.017c.156-.156.242-.363.242-.583 0-.22-.086-.426-.242-.583l-.68-.68c-.153-.152-.153-.398 0-.55.152-.153.398-.153.55 0l.68.68c.304.303.47.705.47 1.133 0 .428-.166.83-.47 1.133l-.016.018c-.303.303-.706.469-1.134.469-.428 0-.83-.166-1.133-.47l-.46-.46c-.551.33-1.141.574-1.761.73v.651c0 .883-.72 1.603-1.603 1.603h-.025c-.883 0-1.602-.72-1.602-1.603v-.65c-.62-.157-1.21-.401-1.761-.731l-.461.46c-.302.304-.705.47-1.133.47-.428 0-.83-.166-1.133-.47l-.018-.017c-.303-.302-.47-.705-.47-1.133 0-.428.167-.83.47-1.133l.46-.46c-.329-.551-.574-1.141-.73-1.762h-.65c-.884 0-1.603-.718-1.603-1.602v-.025c0-.884.72-1.602 1.603-1.602h.65zm12.05-1.761c.329.55.573 1.14.73 1.76h.65c.884 0 1.602.72 1.602 1.603v.025c0 .884-.718 1.602-1.602 1.602h-.962c-.215 0-.39-.174-.39-.389 0-.215.175-.39.39-.39h.962c.454 0 .824-.369.824-.823v-.025c0-.454-.37-.824-.824-.824h-.962c-.185 0-.345-.13-.382-.312-.148-.74-.436-1.436-.856-2.067-.103-.154-.082-.36.049-.491l.68-.68c.156-.156.242-.363.242-.583 0-.22-.086-.427-.242-.583l-.017-.017c-.156-.156-.363-.242-.583-.242-.22 0-.427.086-.582.242l-.681.68c-.131.132-.337.152-.491.05-.631-.42-1.326-.709-2.066-.858-.182-.036-.313-.196-.313-.381v-.962c0-.454-.37-.824-.824-.824h-.025c-.454 0-.824.37-.824.824v.962c0 .215-.174.389-.39.389-.214 0-.388-.174-.388-.389v-.962c0-.884.719-1.603 1.602-1.603h.025c.884 0 1.603.72 1.603 1.603v.65c.62.157 1.21.402 1.76.731l.461-.46c.303-.303.705-.47 1.133-.47.428 0 .831.167 1.134.47l.017.017c.625.625.625 1.641 0 2.266l-.46.46zm-5.66 4.655c.705 0 1.28-.574 1.28-1.28 0-.705-.575-1.28-1.28-1.28-.706 0-1.28.575-1.28 1.28 0 .215-.175.39-.39.39-.215 0-.389-.175-.389-.39 0-1.135.923-2.058 2.059-2.058 1.135 0 2.058.923 2.058 2.058 0 1.136-.923 2.06-2.058 2.06-.471 0-.931-.164-1.296-.46-.167-.135-.193-.38-.057-.547.135-.167.38-.192.547-.057.23.186.509.284.806.284z" opacity=".7"/>
</svg>
