<svg xmlns="http://www.w3.org/2000/svg" width="50" height="50" viewBox="0 0 50 50">
    <g fill="none" fill-rule="evenodd">
        <rect width="48.485" height="48.485" x=".758" y=".758" fill="#ECECEC" fill-rule="nonzero" opacity=".7" rx="24.242"/>
        <g fill="#7B7B7B">
            <path d="M11.19 3.902c.152 0 .3-.061.407-.168.107-.107.168-.255.168-.407 0-.151-.061-.3-.168-.407-.107-.107-.255-.168-.407-.168-.152 0-.3.06-.407.168-.107.108-.169.255-.169.407 0 .152.062.3.17.407.106.107.254.168.406.168M21.592 9.078c.106 0 .21-.03.302-.086l.07-.043c.27-.166.354-.52.188-.791-.167-.27-.52-.355-.792-.188l-.071.044c-.27.167-.354.52-.186.79.106.173.292.274.489.274M12.954 24.143c-.152 0-.3.062-.407.168-.107.108-.168.256-.168.407 0 .151.061.3.168.407.108.107.255.168.407.168.151 0 .3-.061.407-.168.107-.107.169-.256.169-.407 0-.151-.062-.3-.17-.407-.106-.106-.255-.168-.406-.168M13.892 7.97l-.071.043c-.27.167-.354.522-.187.792.106.172.292.273.49.273.106 0 .21-.029.302-.086l.07-.043c.27-.167.354-.52.187-.791-.166-.27-.52-.355-.791-.188M20.049 12.284l-.822-.008h.823l-.001.008zm-.1.296c-.35.787-1.149 1.346-2.056 1.346-1.007 0-1.879-.688-2.125-1.65h.84l3.434.032c-.025.094-.056.184-.092.272zm-4.213-.304h.006c.02.088.046.173.075.256-.033-.083-.06-.168-.081-.256zm-.611-1.118c-.318 0-.575.258-.575.575 0 1.844 1.5 3.343 3.343 3.343s3.343-1.5 3.343-3.343c0-.317-.258-.575-.575-.575h-5.536zM7.125 19.952c-.107.107-.168.255-.168.407 0 .151.061.3.168.407.107.107.256.168.407.168.151 0 .3-.061.407-.168.107-.108.168-.256.168-.407 0-.152-.061-.3-.168-.407-.107-.107-.256-.168-.407-.168-.151 0-.3.061-.407.168M4.136 19.952c-.107.107-.169.255-.169.407 0 .151.062.3.169.407.107.107.255.168.407.168.15 0 .3-.061.406-.168.107-.108.169-.256.169-.407 0-.152-.062-.3-.169-.407-.107-.107-.255-.168-.406-.168-.152 0-.3.061-.407.168M10.115 19.952c-.107.107-.17.255-.17.407 0 .151.063.3.17.407.107.107.255.168.406.168.152 0 .3-.061.407-.168.107-.108.168-.256.168-.407 0-.152-.061-.3-.168-.407-.107-.107-.255-.168-.407-.168-.15 0-.3.061-.406.168" transform="translate(11.632 11.632)"/>
            <path d="M25.85 17.854l-.177-.719.193.724-.016-.005zm-17.586-4.96l-.06-.245c.023.082.046.165.071.246h-.011zM1.99 26.025l.495-.118-.499.134.004-.017zm24.366-10.658c1.006-1.598 1.535-3.435 1.535-5.334C27.892 4.5 23.39 0 17.859 0c-1.853 0-3.663.51-5.236 1.473-.27.166-.356.52-.19.79.166.271.52.357.792.19 1.39-.852 2.993-1.303 4.634-1.303 4.897 0 8.882 3.984 8.882 8.882 0 1.776-.522 3.49-1.51 4.957-.138.204-.13.472.015.666l.586 2.194-.78-.208-1.567-.454c-.166-.044-.343-.012-.483.087-1.508 1.073-3.286 1.64-5.143 1.64-1.058 0-2.092-.184-3.076-.548-.68-2.55-2.708-4.578-5.279-5.277-.343-.965-.527-2-.527-3.057 0-1.659.46-3.277 1.33-4.678.168-.27.085-.624-.185-.793-.27-.167-.624-.084-.792.186-.983 1.584-1.504 3.412-1.504 5.285 0 .975.14 1.934.415 2.86l-.061-.005c-.2-.05-.423-.06-.648-.06-4.153 0-7.532 3.38-7.532 7.532 0 1.49.43 2.92 1.248 4.155L.663 26.66c-.053.198.004.41.148.556.146.145.358.202.556.15l2.225-.597c1.166.735 2.531 1.124 3.94 1.124 1.434 0 2.83-.406 4.036-1.172.268-.17.347-.525.176-.794-.17-.268-.525-.347-.794-.177-1.02.65-2.202.992-3.418.992-1.266 0-2.489-.37-3.537-1.07-.138-.091-.308-.12-.468-.077l-1.531.41.13-.484.294-.976c.045-.166.013-.344-.087-.483-.774-1.084-1.183-2.365-1.183-3.702 0-3.52 2.863-6.382 6.382-6.382 3.519 0 6.382 2.863 6.382 6.382 0 .751-.13 1.487-.384 2.186-.11.299.045.628.343.738.299.109.629-.045.737-.344.302-.826.454-1.694.454-2.58 0-.245-.011-.489-.035-.733.084.025.17.049.255.071.817.253 1.69.367 2.575.367 2.01 0 3.94-.588 5.596-1.704l3.032.823c.198.053.41-.004.555-.15.146-.144.202-.356.149-.555l-.834-3.112z" transform="translate(11.632 11.632)"/>
        </g>
    </g>
</svg>
