<svg xmlns="http://www.w3.org/2000/svg" width="120" height="120" viewBox="0 0 120 120">
    <g fill="none" fill-rule="evenodd">
        <circle cx="60" cy="60" r="59.167" fill="#FBB" opacity=".3"/>
        <path fill="#FF6C7E" fill-rule="nonzero" d="M60.49 78.333c-.8 0-1.448-.64-1.448-1.432V58.567H50.29c-1.467 0-2.78-.872-3.344-2.22-.566-1.354-.259-2.894.783-3.924l9.614-9.5c1.694-1.675 4.451-1.675 6.146 0l9.613 9.5c1.042 1.03 1.35 2.57.784 3.924-.565 1.348-1.877 2.22-3.344 2.22h-3.115c-.8 0-1.447-.642-1.447-1.433 0-.79.648-1.432 1.447-1.432h3.115c.433 0 .612-.316.668-.451.058-.138.159-.492-.154-.8l-9.613-9.502c-.566-.56-1.488-.56-2.054 0l-9.614 9.501c-.312.309-.212.663-.154.8.057.136.235.452.669.452h8.75c1.597 0 2.896 1.285 2.896 2.865V76.9c0 .791-.648 1.432-1.448 1.432z"/>
    </g>
</svg>
