<svg xmlns="http://www.w3.org/2000/svg" xmlns:xlink="http://www.w3.org/1999/xlink" width="150" height="150" viewBox="0 0 150 150">
    <defs>
        <circle id="prefix__a" cx="72.115" cy="72.115" r="72.115"/>
        <path id="prefix__c" d="M82.266 78.583C78.796 51.02 72.74 31.91 66.884 1.724c-.338-1.745-2.865-1.865-3.63-.26l-9.772 20.517c-.286.601-.86 1.016-1.52 1.1l-27.63 3.478c-.624.079-1.248-.148-1.676-.61L6.359 8.402c-.23-.25-.497-.42-.777-.519-.068-.025-.699-.24-1.36.025-.691.275-1.171.979-1.249 1.801-.528 6.56-.98 13.362-1.335 20.394C.996 42.817-.58 65.323.825 88.855c.525 8.801 1.942 18.293 2.683 27.04 7.363.322 57.456 0 82.027 0 0-3.694-2.767-33.41-3.269-37.312z"/>
    </defs>
    <g fill="none" fill-rule="evenodd" transform="translate(2.885 2.885)">
        <circle cx="72.115" cy="72.115" r="72.115" fill="#F5F5F5"/>
        <mask id="prefix__b" fill="#fff">
            <use xlink:href="#prefix__a"/>
        </mask>
        <g mask="url(#prefix__b)">
            <g>
                <path stroke="#FFF" stroke-width="1.706" d="M82.266 79.16C78.796 51.597 72.74 32.488 66.884 2.3c-.338-1.745-2.865-1.865-3.63-.26l-9.772 20.517c-.286.601-.86 1.016-1.52 1.1l-27.63 3.478c-.624.079-1.248-.148-1.676-.61L6.359 8.978c-.23-.249-.497-.419-.777-.518-.068-.025-.699-.24-1.36.024-.691.276-1.171.98-1.249 1.802-.528 6.56-.98 13.362-1.335 20.394C.996 43.394-.58 65.9.825 89.432c.525 8.8 1.942 18.293 2.683 27.04 7.363.322 57.456 0 82.027 0 0-3.694-2.767-33.41-3.269-37.312z" transform="translate(30.477 31.522)"/>
                <g transform="translate(30.477 31.522) translate(0 .577)">
                    <mask id="prefix__d" fill="#fff">
                        <use xlink:href="#prefix__c"/>
                    </mask>
                    <path fill="#A0A0A0" d="M-.326 61.377c5.771 2.229 10.952 1.344 13.896.805 2.797-.514 9.002-1.738 14.454-6.929 6.919-6.586 7.854-15.015 8.033-17.36-.097-.991.636-1.79 1.417-1.804.593-.012 1.181.426 1.412 1.092.594 1.547 4.719 11.786 15.92 15.722 1.564.549 11.502 3.863 20.748-1.59 6.042-3.564 8.65-9.021 10.162-12.297 3.737-8.102 2.797-16.205 1.264-32.447-.412-4.366-.94-8.816-2.814-12.78-2.703-5.71-8.02-9.882-13.862-12.286-5.842-2.405-12.215-3.207-18.52-3.594-14.92-.914-30.289.47-43.888 6.674C2.599-13.001-2.475-9.784-6.054-5.19c-2.713 3.481-4.462 7.62-5.79 11.832-3.243 10.285-9.84 32.529 1.36 46.874 1.32 1.69 4.517 5.681 10.158 7.861" mask="url(#prefix__d)"/>
                </g>
                <g>
                    <path stroke="#A0A0A0" stroke-width="3.135" d="M82.015 78.7C78.545 51.137 72.49 32.028 66.633 1.84c-.337-1.745-2.865-1.865-3.63-.26L53.232 22.1c-.286.6-.86 1.015-1.52 1.1l-27.63 3.477c-.623.079-1.248-.148-1.676-.61L6.108 8.52c-.23-.25-.497-.42-.777-.519-.068-.025-.698-.24-1.36.025-.69.275-1.171.979-1.248 1.801-.529 6.56-.981 13.362-1.336 20.394C.746 42.934-.83 65.44.574 88.972c.525 8.801 1.943 18.293 2.683 27.04 7.363.322 57.456 0 82.027 0 0-3.694-2.767-33.41-3.269-37.312z" transform="translate(30.477 31.522) translate(.25 .46)"/>
                    <path fill="#F5F5F5" d="M21.25 49.635l-2.838.149c-3.008-.057-5.337-1.954-5.66-4.167-.324-2.232 1.514-3.946 1.655-4.073 1.555-1.406 3.499-1.317 5.382-1.231 1.617.074 4.085.187 5.614 2.051.254.31.971 1.28 1.037 2.532.129 2.45-2.207 4.581-5.19 4.739M56.306 45.22l2.786-.558c2.9-.8 4.687-3.215 4.45-5.439-.24-2.242-2.445-3.448-2.613-3.536-1.854-.977-3.716-.409-5.519.142-1.55.472-3.911 1.192-4.93 3.379-.17.36-.624 1.48-.377 2.71.481 2.404 3.273 3.89 6.203 3.303" transform="translate(30.477 31.522) translate(.25 .46)"/>
                    <path fill="#A0A0A0" d="M21.904 43.922c.34 2.71-1.09 5.12-3.197 5.386-2.108.265-4.092-1.716-4.433-4.424-.341-2.711 1.09-5.122 3.198-5.387 2.106-.265 4.091 1.716 4.432 4.425M51.238 40.23c.34 2.708 2.326 4.69 4.433 4.424 2.107-.265 3.538-2.675 3.197-5.386-.341-2.709-2.326-4.69-4.433-4.424-2.106.265-3.538 2.676-3.197 5.385" transform="translate(30.477 31.522) translate(.25 .46)"/>
                    <path stroke="#A0A0A0" stroke-linecap="round" stroke-width="1.706" d="M32.799 54.444c2.021.822 4.571 1.024 7.65.608 3.077-.417 5.256-1.259 6.535-2.527M39.431 48.538l.76 6.035" transform="translate(30.477 31.522) translate(.25 .46)"/>
                    <path fill="#A0A0A0" d="M37.64 49.969l-1.798-1.234c-.697-.478-.373-1.486.513-1.598l5.681-.715c.886-.112 1.45.785.893 1.422l-1.436 1.64c-.94 1.076-2.675 1.294-3.853.485" transform="translate(30.477 31.522) translate(.25 .46)"/>
                </g>
            </g>
        </g>
        <g fill-rule="nonzero">
            <path fill="#F5F5F5" d="M52.465 40.76H4.6c-2.535 0-4.6-2.072-4.6-4.621V4.622C0 2.072 2.065 0 4.6 0h47.865c2.536 0 4.6 2.073 4.6 4.622v31.517c0 2.55-2.064 4.622-4.6 4.622z" transform="rotate(9 -547.687 542.759)"/>
            <path fill="#A0A0A0" stroke="#A0A0A0" stroke-width=".627" d="M52.465 40.76H4.6c-2.535 0-4.6-2.072-4.6-4.621V4.622C0 2.072 2.065 0 4.6 0h47.865c2.536 0 4.6 2.073 4.6 4.622v31.517c0 2.55-2.064 4.622-4.6 4.622zM4.6 1.85c-1.522 0-2.76 1.244-2.76 2.773v31.517c0 1.529 1.238 2.773 2.76 2.773h47.865c1.522 0 2.76-1.244 2.76-2.773V4.622c0-1.529-1.238-2.773-2.76-2.773H4.6z" transform="rotate(9 -547.687 542.759)"/>
            <g fill="#A0A0A0" stroke="#A0A0A0" stroke-width="1.254">
                <path d="M36.812 12.006c-.228 0-.456-.082-.633-.25L25.526 1.8c-.372-.347-.39-.931-.041-1.302.35-.374.933-.391 1.309-.04l10.653 9.955c.372.347.39.931.04 1.302-.183.194-.427.291-.675.291zM1.252 12.006c-.246 0-.493-.097-.676-.29-.35-.372-.331-.956.04-1.303L11.275.457c.374-.346.96-.332 1.309.041.35.37.33.955-.041 1.302L1.885 11.756c-.178.168-.405.25-.633.25z" transform="rotate(9 -547.687 542.759) translate(9.51 19.122)"/>
            </g>
            <path fill="#A0A0A0" stroke="#A0A0A0" stroke-width="1.254" d="M28.298 24.658c-1.223 0-2.446-.402-3.376-1.203L1.317 3.102c-.383-.33-.423-.903-.09-1.283.336-.378.915-.413 1.297-.087L26.13 22.083c1.175 1.012 3.16 1.012 4.333 0L54.04 1.764c.381-.328.96-.292 1.298.088.333.38.294.952-.088 1.283L31.673 23.453c-.932.803-2.153 1.205-3.375 1.205z" transform="rotate(9 -547.687 542.759)"/>
        </g>
        <g>
            <path fill="#F5F5F5" d="M9.546 29.056c2.108.031 13.814-5.009 20.312-9.472C38.017 13.98 41.135 8.506 42.666 6.296L38.095 0c-2.156 1.719-10.723 6.281-19.537 8.794-7.766 2.214-15.83 2.54-18.37 2.107" transform="translate(42.642 95.945)"/>
            <path stroke="#A0A0A0" stroke-width="2.508" d="M8.292 27.802c2.108.03 14.114-2.092 20.611-6.556 8.16-5.604 12.208-11.496 13.74-13.706C41.118 5.442 39.617 2.1 38.094 0c-2.156 1.719-10.723 6.281-19.537 8.794-7.766 2.214-15.83 2.54-18.37 2.107" transform="translate(42.642 95.945)"/>
            <path stroke="#A0A0A0" stroke-width="1.881" d="M39.997 2.294L35.97 5.25M40.28 5.738l-2.517 2.2" transform="translate(42.642 95.945)"/>
        </g>
    </g>
</svg>
