<svg xmlns="http://www.w3.org/2000/svg" width="46" height="46" viewBox="0 0 46 46">
    <g fill="none" fill-rule="evenodd">
        <circle cx="23" cy="23" r="22" fill="#FBB" fill-rule="nonzero" opacity=".5"/>
        <circle cx="23" cy="19" r="5" fill="#FF6C7E"/>
        <path fill="#FF6C7E" fill-rule="nonzero" d="M14.883 33c-.488 0-.883-.398-.883-.89 0-3.502 1.995-6.652 5.067-8.165l.489-.24-.41-.363c-1.261-1.116-1.998-2.718-1.998-4.438C17.148 15.65 19.773 13 23 13c3.227 0 5.852 2.65 5.852 5.904 0 1.72-.737 3.322-1.999 4.438l-.409.362.489.24C30.005 25.459 32 28.609 32 32.112c0 .49-.395.889-.883.889-.487 0-.882-.398-.882-.89 0-4.026-3.246-7.301-7.235-7.301-3.99 0-7.235 3.275-7.235 7.302 0 .49-.395.889-.882.889zm4.03-14.096c0 2.276 1.833 4.126 4.087 4.126 2.254 0 4.087-1.85 4.087-4.126 0-2.276-1.833-4.126-4.087-4.126-2.254 0-4.087 1.85-4.087 4.126z"/>
    </g>
</svg>
