<svg xmlns="http://www.w3.org/2000/svg" width="18" height="18" viewBox="0 0 18 18">
    <path fill="#F16F63" d="M9 17.609C4.246 17.609.391 13.754.391 9S4.246.391 9 .391 17.609 4.246 17.609 9 13.754 17.609 9 17.609zm.61-7.35c.176-.166.269-.368.277-.606l.185-4.914c.026-.298-.07-.56-.29-.783-.22-.224-.48-.336-.784-.336-.303 0-.56.11-.77.329-.211.22-.312.483-.304.79l.185 4.914c.009.238.1.44.277.606.175.167.38.25.612.25.233 0 .437-.083.613-.25zm-.566 1.331h-.092c-.255 0-.474.092-.659.277-.184.184-.276.406-.276.665 0 .26.09.48.27.665.18.185.402.277.665.277h.092c.255 0 .475-.092.659-.277.184-.184.277-.406.277-.665 0-.26-.09-.48-.27-.665-.18-.185-.402-.277-.666-.277z"/>
</svg>
