<svg xmlns="http://www.w3.org/2000/svg" width="15" height="15" viewBox="0 0 15 15">
    <g fill="none" fill-rule="evenodd" transform="translate(.326 .326)">
        <circle cx="7.174" cy="7.174" r="6.862" fill="#32322E"/>
        <path fill="#FFF" fill-rule="nonzero" d="M8.923 7.326c-.356-.256-.768-.396-1.178-.51-.055-.015-.11-.028-.166-.042V4.351c.396.058.688.179.883.328.138.105.233.222.298.354.064.132.098.281.098.452 0 .22.182.397.406.397.224 0 .405-.178.405-.397 0-.277-.058-.548-.178-.794-.18-.37-.499-.673-.914-.87-.287-.138-.623-.225-.997-.268v-.349c0-.22-.182-.397-.406-.397-.224 0-.405.178-.405.397v.327c-.294.022-.558.079-.791.166-.46.17-.795.46-1.003.785-.209.326-.296.68-.296 1.003-.001.34.082.645.24.894.136.218.321.387.524.517.355.228.76.35 1.165.456l.16.04v2.606c-.394-.043-.696-.167-.9-.336-.248-.21-.376-.476-.378-.817 0-.22-.182-.397-.406-.397-.224 0-.405.178-.405.397-.003.555.238 1.072.666 1.423.367.304.856.486 1.423.531v.345c0 .219.182.397.406.397.224 0 .405-.178.405-.397v-.36c.46-.045.888-.155 1.254-.378.25-.153.468-.364.614-.632.148-.266.222-.582.222-.929 0-.362-.079-.683-.23-.951-.131-.235-.313-.422-.516-.568zM6.768 6.57c-.394-.104-.735-.225-.943-.38-.111-.084-.189-.17-.244-.277-.055-.107-.091-.24-.092-.429 0-.244.092-.536.316-.759.112-.112.26-.212.46-.287.14-.052.307-.09.503-.11v2.242zm1.966 2.826c-.058.103-.131.188-.228.264-.143.114-.343.205-.592.265-.103.026-.217.045-.335.06v-2.39c.248.07.475.148.659.244.205.107.353.227.454.376.099.15.165.337.166.629 0 .24-.05.415-.124.552z"/>
    </g>
</svg>
