<svg xmlns="http://www.w3.org/2000/svg" width="200" height="200" viewBox="0 0 200 200">
    <g fill="none" fill-rule="evenodd">
        <circle cx="100" cy="100" r="99.231" fill="#FF8997" opacity=".2"/>
        <rect width="126.678" height="92.897" x="45.529" y="61.574" fill="#F6C6CC" rx="4.223"/>
        <g fill-rule="nonzero" transform="translate(39.23 53.846)">
            <path fill="#FFA1AC" d="M118.264 92.335H3.133C1.403 92.335 0 90.932 0 89.202v-86.6C0 1.165 1.165 0 2.602 0h116.193c1.437 0 2.602 1.165 2.602 2.602v86.6c0 1.73-1.402 3.133-3.133 3.133z"/>
            <path fill="#FF8997" d="M118.795 0h-10.801c1.437 0 2.602 1.165 2.602 2.602V81.49c0 2.437-1.975 4.412-4.411 4.412H3.133C1.403 85.902 0 84.499 0 82.769v6.433c0 1.73 1.402 3.133 3.133 3.133h115.132c1.73 0 3.132-1.403 3.132-3.133v-86.6c0-1.437-1.165-2.602-2.602-2.602z"/>
            <path fill="#FF8997" d="M121.397 17.52H0V2.602C0 1.165 1.165 0 2.602 0h116.193c1.437 0 2.602 1.165 2.602 2.602V17.52z"/>
            <path fill="#FF6C7E" d="M121.344 2.078c-.034-.17-.086-.333-.151-.489-.033-.077-.07-.153-.11-.227-.08-.148-.174-.286-.28-.415-.133-.16-.286-.303-.453-.428-.434-.324-.971-.519-1.555-.519h-10.801c1.437 0 2.602 1.165 2.602 2.602V17.52h10.801V2.602c0-.18-.018-.355-.053-.524z"/>
            <path fill="#FFBCC4" d="M58.236 78.374H15.84c-1.729 0-3.13-1.401-3.13-3.13V32.848c0-1.73 1.401-3.13 3.13-3.13h42.396c1.729 0 3.13 1.4 3.13 3.13v42.395c0 1.73-1.401 3.131-3.13 3.131z"/>
            <g fill="#FFF">
                <path d="M32.572 3.8H1.978C.99 3.8.19 3 .19 2.013c0-.987.8-1.787 1.787-1.787h30.594c.987 0 1.787.8 1.787 1.787 0 .987-.8 1.787-1.787 1.787zM32.572 16.777H1.978c-.987 0-1.787-.8-1.787-1.787 0-.986.8-1.787 1.787-1.787h30.594c.987 0 1.787.8 1.787 1.787 0 .987-.8 1.787-1.787 1.787zM32.572 29.755H1.978c-.987 0-1.787-.8-1.787-1.787 0-.987.8-1.787 1.787-1.787h30.594c.987 0 1.787.8 1.787 1.787 0 .987-.8 1.787-1.787 1.787z" transform="translate(73.473 38.635)"/>
            </g>
            <path fill="#FFF" d="M51.668 51.25l-13.3-14.697c0-.002-.002-.003-.003-.004l-.002-.002c-.021-.023-.044-.044-.066-.066-.02-.02-.038-.04-.06-.06-.137-.124-.287-.222-.447-.296-.02-.01-.041-.017-.062-.025-.033-.014-.065-.028-.098-.04-.038-.013-.076-.023-.114-.034l-.051-.015c-.04-.01-.079-.016-.118-.023-.017-.003-.034-.008-.051-.01-.037-.005-.074-.008-.111-.01-.02-.002-.04-.006-.06-.006-.033-.002-.066-.001-.098 0-.025 0-.05-.002-.075 0-.027 0-.055.005-.082.007-.03.003-.06.005-.09.01-.024.003-.049.009-.073.013-.032.006-.064.011-.095.019-.027.006-.053.015-.08.023-.029.009-.058.016-.086.026-.044.015-.088.034-.13.053l-.03.012c-.16.074-.311.172-.447.296-.017.015-.031.031-.047.047-.027.026-.054.051-.08.08l-.001.001-.003.004-13.3 14.696c-.663.732-.607 1.862.125 2.524.342.31.771.462 1.199.462.487 0 .973-.198 1.325-.587l11.98-13.239 11.98 13.239c.354.39.839.587 1.326.587.428 0 .857-.152 1.199-.462.732-.662.789-1.792.126-2.524z"/>
            <path fill="#FF8997" d="M19.757 52.448l4.133 16.204c.29 1.134 1.31 1.927 2.48 1.927h21.336c1.17 0 2.192-.793 2.48-1.927l4.134-16.204H19.757z"/>
            <path fill="#FF6C7E" d="M53.404 56.399H20.673c-1.331 0-2.41-1.08-2.41-2.41v-.645c0-1.332 1.079-2.41 2.41-2.41h32.731c1.331 0 2.41 1.078 2.41 2.41v.645c0 1.33-1.079 2.41-2.41 2.41z"/>
            <circle cx="16.528" cy="8.76" r="3.585" fill="#FFB4BD"/>
            <circle cx="29.275" cy="8.76" r="3.585" fill="#FFB4BD"/>
            <circle cx="42.024" cy="8.76" r="3.585" fill="#FFB4BD"/>
        </g>
    </g>
</svg>
