<svg xmlns="http://www.w3.org/2000/svg" width="16" height="16" viewBox="0 0 16 16">
    <g fill="none" fill-rule="evenodd" transform="translate(.348 .348)">
        <circle cx="7.652" cy="7.652" r="7.319" fill="#FFF"/>
        <path fill="#F16F63" fill-rule="nonzero" d="M9.518 7.814c-.38-.272-.82-.422-1.256-.543-.06-.017-.118-.03-.177-.045V4.64c.421.062.733.191.941.35.147.112.248.237.318.378.068.14.105.3.105.482 0 .233.194.423.432.423.24 0 .433-.19.433-.423 0-.296-.062-.585-.19-.847-.191-.395-.532-.718-.975-.929-.307-.146-.664-.24-1.064-.285v-.372c0-.234-.194-.424-.433-.424s-.432.19-.432.424v.349c-.313.023-.595.083-.844.176-.49.181-.848.49-1.07.838-.222.348-.315.726-.315 1.07-.001.362.088.688.255.953.146.233.344.414.56.552.378.243.811.373 1.243.486l.17.042v2.78c-.42-.045-.743-.177-.959-.357-.266-.224-.402-.509-.405-.872 0-.234-.193-.424-.432-.424s-.432.19-.432.424c-.004.592.254 1.144.71 1.518.391.324.913.518 1.519.566v.368c0 .233.193.423.432.423s.433-.19.433-.423v-.383c.49-.049.946-.167 1.337-.404.267-.163.499-.389.655-.674.158-.285.237-.621.236-.991.001-.387-.084-.73-.245-1.015-.14-.25-.334-.45-.55-.606zM7.22 7.01c-.42-.11-.783-.24-1.005-.406-.12-.088-.202-.181-.261-.295-.059-.114-.097-.255-.098-.457 0-.26.098-.572.337-.81.12-.12.277-.226.491-.306.148-.055.327-.096.536-.117v2.391zm2.097 3.015c-.061.11-.14.2-.243.281-.153.121-.366.219-.63.283-.112.027-.232.047-.358.063V8.103c.264.074.506.157.702.26.219.114.377.242.484.4.106.16.176.36.178.672-.001.256-.053.442-.133.589z"/>
    </g>
</svg>
