<svg xmlns="http://www.w3.org/2000/svg" width="16" height="16" viewBox="0 0 16 16">
    <path fill="#FF6C7E" d="M2.948 15.652h10.104c.635 0 1.153-.516 1.153-1.15V7.905c.465-.488.752-1.149.752-1.875V4.327 4.32v-.007l-.001-.016v-.001c-.005-.1-.034-.194-.082-.276l-1.638-2.968c-.24-.435-.699-.705-1.196-.705H3.96c-.497 0-.955.27-1.195.705l-1.64 2.969c-.05.086-.079.186-.081.293V6.03c0 .726.286 1.387.752 1.876V14.5c0 .635.517 1.151 1.152 1.151zm6.04-14.085l.395 2.15H6.618l.395-2.15h1.974zm4.748 4.464c0 .828-.676 1.503-1.505 1.503-.83 0-1.505-.675-1.505-1.503V4.936h3.01v1.095zm-7.24-1.094h3.01V6.03c0 .829-.676 1.503-1.506 1.503S6.495 6.86 6.495 6.03V4.937zm-1.222 0V6.03c0 .829-.675 1.503-1.505 1.503-.83 0-1.505-.674-1.505-1.503V4.937h3.01zm3.987 9.496H6.74v-3.837h2.52v3.837zm1.22 0v-4.3c0-.417-.34-.756-.757-.756H6.276c-.418 0-.757.34-.757.756v4.3H3.017V8.648c.239.068.491.105.752.105.853 0 1.615-.393 2.116-1.007.5.614 1.262 1.007 2.115 1.007.853 0 1.615-.393 2.115-1.007.5.614 1.263 1.007 2.116 1.007.261 0 .513-.037.753-.106v5.786H10.48zm1.685-12.79l1.147 2.074h-2.69l-.395-2.15h1.812c.053 0 .101.029.126.075zm-8.332 0c.025-.047.074-.076.126-.076h1.812l-.396 2.15H2.688l1.146-2.075z"/>
</svg>
