<svg xmlns="http://www.w3.org/2000/svg" xmlns:xlink="http://www.w3.org/1999/xlink" width="250" height="250" viewBox="0 0 250 250">
    <defs>
        <rect id="prefix__a" width="204.949" height="158.022" x=".348" y=".757" rx="15.134"/>
        <rect id="prefix__c" width="196.737" height="158.903" x="0" y="0" rx="15.134"/>
        <path id="prefix__e" d="M88.858 102.178C85.032 71.785 79.662 34.84 73.204 1.554c-.372-1.925-3.16-2.057-4.002-.286L58.425 23.89c-.315.663-.947 1.12-1.675 1.213l-30.468 3.835c-.688.087-1.376-.163-1.848-.673L6.463 8.916c-.254-.274-.548-.461-.857-.571-.075-.028-.77-.264-1.5.027-.761.304-1.29 1.08-1.376 1.987-.583 7.232-1.082 14.733-1.473 22.487-.707 14.02-1.585 27.342-.036 53.29.58 9.705 1.282 35.204 2.098 44.85 8.12.355 59.752 0 86.847 0 0-4.073-.755-24.504-1.308-28.808z"/>
    </defs>
    <g fill="none" fill-rule="evenodd">
        <g>
            <g transform="translate(4.808 32.692) translate(34.134)">
                <mask id="prefix__b" fill="#fff">
                    <use xlink:href="#prefix__a"/>
                </mask>
                <use fill="#FFC9D0" xlink:href="#prefix__a"/>
                <path fill="#FFB1BA" d="M0 .962H204.949V33.121H0zM-6.704 147.316H204.94899999999998V158.808H-6.704z" mask="url(#prefix__b)"/>
                <circle cx="14.77" cy="16.693" r="2.27" fill="#FFF" mask="url(#prefix__b)" opacity=".4"/>
                <circle cx="23.424" cy="16.693" r="2.27" fill="#FFF" mask="url(#prefix__b)" opacity=".4"/>
                <circle cx="32.078" cy="16.693" r="2.27" fill="#FFF" mask="url(#prefix__b)" opacity=".4"/>
                <rect width="201.466" height="165.524" x="-28.837" y="19.189" fill="#E2808C" mask="url(#prefix__b)" opacity=".4" rx="18.917"/>
            </g>
            <g transform="translate(4.808 32.692) translate(0 24.675)">
                <mask id="prefix__d" fill="#fff">
                    <use xlink:href="#prefix__c"/>
                </mask>
                <use fill="#FFF3F3" xlink:href="#prefix__c"/>
                <path fill="#FFD0D5" d="M-20.43 0H206.57399999999998V24.214H-20.43z" mask="url(#prefix__d)"/>
                <circle cx="11.35" cy="12.107" r="2.27" fill="#FFF" mask="url(#prefix__d)"/>
                <circle cx="20.43" cy="12.107" r="2.27" fill="#FFF" mask="url(#prefix__d)"/>
                <circle cx="29.511" cy="12.107" r="2.27" fill="#FFF" mask="url(#prefix__d)"/>
                <g mask="url(#prefix__d)">
                    <g>
                        <g>
                            <path fill="#FFF" d="M89.539 102.859C85.713 72.466 80.343 35.52 73.885 2.235c-.372-1.925-3.16-2.057-4.002-.286L59.106 24.572c-.315.663-.947 1.12-1.675 1.213L26.963 29.62c-.688.087-1.376-.163-1.848-.673L7.144 9.597c-.254-.274-.548-.461-.857-.571-.075-.028-.77-.264-1.5.027-.761.304-1.29 1.08-1.376 1.987-.583 7.232-1.082 14.733-1.473 22.487-.707 14.02-1.585 27.342-.036 53.29.58 9.705 1.282 35.204 2.098 44.85 8.12.355 59.752 0 86.847 0 0-4.073-.755-24.504-1.308-28.808z" transform="translate(-20.43 33.294) translate(43.888)"/>
                            <g transform="translate(-20.43 33.294) translate(43.888) translate(.681 .681)">
                                <mask id="prefix__f" fill="#fff">
                                    <use xlink:href="#prefix__e"/>
                                </mask>
                                <path fill="#E57280" d="M-.908 67.333c6.363 2.457 12.076 1.482 15.322.887 3.085-.566 9.927-1.916 15.94-7.64 7.629-7.263 8.66-16.557 8.857-19.144-.108-1.092.702-1.972 1.563-1.988.653-.014 1.302.47 1.557 1.204.654 1.705 5.203 12.996 17.555 17.336 1.724.605 12.683 4.26 22.878-1.754 6.663-3.929 9.539-9.946 11.205-13.56 4.122-8.933 3.084-17.868 1.394-35.778-.453-4.815-1.035-9.72-3.103-14.092-2.98-6.298-8.843-10.897-15.285-13.548-6.442-2.652-13.469-3.537-20.422-3.964-16.453-1.007-33.4.518-48.395 7.36C2.318-14.684-3.28-11.136-7.224-6.071c-2.992 3.84-4.92 8.403-6.384 13.047-3.577 11.341-10.852 35.87 1.499 51.688 1.454 1.865 4.98 6.265 11.2 8.669" mask="url(#prefix__f)"/>
                            </g>
                            <g transform="translate(-20.43 33.294) translate(43.888) translate(.409 .204)">
                                <path stroke="#E57280" stroke-width="1.881" d="M89.13 102.655C85.304 72.262 79.934 35.317 73.476 2.03c-.372-1.924-3.159-2.057-4.002-.286L58.698 24.368c-.316.662-.948 1.12-1.676 1.213l-30.468 3.834c-.687.088-1.376-.162-1.848-.672L6.736 9.393c-.255-.275-.549-.462-.857-.571-.076-.028-.77-.265-1.5.027-.762.304-1.292 1.08-1.377 1.986C2.42 18.068 1.921 25.57 1.53 33.323c-.708 14.02-1.585 27.341-.036 53.29.579 9.705 1.281 35.204 2.097 44.85 8.12.354 59.752 0 86.847 0 0-4.073-.755-24.504-1.308-28.808z"/>
                                <path fill="#FFF" d="M67.11 51.18c3.62-1.117 6.88-6.467 6.584-9.569-.298-3.127-.52-4.377-2.832-5.739-2.313-1.362-6.466-.767-8.715 0-1.933.658-4.423 2.95-5.46 5.74-1.037 2.789-1.098 4.027-.791 5.741.601 3.352 4.083 5.426 7.738 4.606l3.477-.78zM19.013 58.147c-3.78-.131-7.52-1.931-8.882-4.913-1.375-3.007-1.832-4.263-.446-6.718 1.385-2.455 5.473-4.092 7.92-4.573 2.104-.415 5.573.368 7.984 2.366 2.41 1.998 3.117 3.094 3.74 4.818 1.218 3.37-.756 6.977-4.537 8.25-2.52.848-4.447 1.105-5.779.77z"/>
                                <ellipse cx="66.187" cy="44.568" fill="#E57280" fill-rule="nonzero" rx="4.594" ry="5.534" transform="rotate(-5 66.187 44.568)"/>
                                <ellipse cx="21.555" cy="50.861" fill="#E57280" fill-rule="nonzero" rx="4.594" ry="5.534" transform="rotate(-21 21.555 50.861)"/>
                                <path stroke="#E57280" stroke-linecap="round" stroke-width="1.881" d="M36.334 65.427L44.602 60.706 52.497 62.688M43.48 53.523l.838 6.655"/>
                                <path fill="#E57280" d="M41.506 55.1l-1.983-1.36c-.769-.527-.412-1.638.565-1.762l6.265-.789c.977-.123 1.6.866.985 1.568l-1.584 1.81c-1.037 1.185-2.95 1.425-4.248.533"/>
                            </g>
                        </g>
                        <path fill="#FFD0D5" d="M0 114.259H227.004V125.609H0z" transform="translate(-20.43 33.294)"/>
                        <g transform="translate(-20.43 33.294) translate(120.69 32.916)">
                            <circle fill="#FFD0D6" opacity=".8" style="mix-blend-mode:multiply" cx="38.969" cy="41.807" r="35.186"/>
                            <circle cx="35.059" cy="35.815" r="35.059" fill="#FFF" fill-rule="nonzero"/>
                            <circle cx="35.059" cy="35.815" r="34.119" fill="#FF6C7E" fill-rule="nonzero" stroke="#EC5769" stroke-width="1.879"/>
                            <g fill-rule="nonzero">
                                <path fill="#FFF" d="M4.495 27.462c2.478 0 4.494 2.107 4.494 4.697s-2.016 4.697-4.494 4.697C2.016 36.856 0 34.75 0 32.16s2.016-4.697 4.495-4.697zM6.633 0c1.3 0 2.356 1.096 2.356 2.443v19.685c0 1.347-1.057 2.443-2.356 2.443H2.357c-1.3 0-2.357-1.096-2.357-2.443V2.443C0 1.096 1.057 0 2.357 0h4.276z" transform="translate(30.564 16.938)"/>
                                <path fill="#FF6C7E" d="M2.766 11.563c-.382 0-.692.332-.692.742v9.355c0 .41.31.743.692.743.382 0 .691-.333.691-.743v-9.355c0-.41-.31-.742-.691-.742zM2.766 8.672c-.382 0-.692.347-.692.774v.62c0 .427.31.774.692.774.382 0 .691-.347.691-.774v-.62c0-.427-.31-.774-.691-.774z" transform="translate(30.564 16.938)"/>
                            </g>
                        </g>
                        <g>
                            <path fill="#FFF" d="M8.513 29.122c4.767.07 13.864-.437 23.856-5.275 11.3-5.47 17.702-13.556 20.46-17.536C51.3 4.21 49.773 2.104 48.246 0 44.182 3.242 37.2 7.968 27.43 10.835 15.566 14.315 5.44 13.338 0 12.41" transform="translate(-20.43 33.294) rotate(-11 414.208 -355.545)"/>
                            <path stroke="#E57280" stroke-width="1.881" d="M8.513 29.122c4.767.07 13.864-.437 23.856-5.275 11.3-5.47 17.702-13.556 20.46-17.536C51.3 4.21 49.773 2.104 48.246 0 44.182 3.242 37.2 7.968 27.43 10.835 15.566 14.315 5.44 13.338 0 12.41M49.267 1.798l-2.522 2.208M51.065 4.495L48.543 6.7" transform="translate(-20.43 33.294) rotate(-11 414.208 -355.545)"/>
                        </g>
                    </g>
                </g>
                <g fill="#FF8B99" fill-rule="nonzero" mask="url(#prefix__d)">
                    <g>
                        <path d="M1.809 0C.81 0 0 .81 0 1.809v10.853c0 1 .81 1.81 1.809 1.81.999 0 1.809-.81 1.809-1.81V1.81C3.618.81 2.808 0 1.808 0zM3.088 18.689c-.337-.337-.803-.529-1.28-.529-.475 0-.942.192-1.278.529-.336.338-.53.803-.53 1.28 0 .476.193.94.53 1.28.336.335.803.527 1.279.527.476 0 .942-.192 1.279-.528.336-.338.53-.803.53-1.279 0-.477-.194-.942-.53-1.28zM44.01 37.847l-7.805 2.841c-.94.342-1.423 1.38-1.082 2.319.342.939 1.38 1.423 2.319 1.081l7.805-2.84c.939-.343 1.423-1.38 1.081-2.32-.341-.938-1.38-1.422-2.318-1.08zM52.116 35.184c-.431-.201-.936-.223-1.383-.06-.447.162-.82.503-1.02.935-.202.431-.224.936-.061 1.383.162.447.504.82.935 1.02.431.201.936.224 1.383.061.447-.163.82-.504 1.02-.936.202-.43.224-.935.061-1.382-.162-.448-.504-.82-.935-1.02zM38.321 18.69c-.706-.706-1.851-.706-2.558 0l-8.9 8.9c-.707.707-.707 1.853 0 2.56.353.352.816.529 1.279.529.463 0 .925-.177 1.279-.53l8.9-8.9c.706-.707.706-1.852 0-2.559zM19.482 9.218c-.923-.381-1.981.056-2.364.979l-2.452 5.919c-.382.923.056 1.98.98 2.363.226.094.46.139.691.139.71 0 1.383-.42 1.672-1.118l2.452-5.919c.382-.923-.056-1.98-.98-2.363z" transform="rotate(-6 401.745 -1213.898)"/>
                    </g>
                </g>
            </g>
        </g>
        <circle cx="25" cy="27.885" r="10.577" fill="#FF6C7E" opacity=".2"/>
        <circle cx="225.481" cy="213.942" r="6.25" fill="#FF6C7E" opacity=".4"/>
        <circle cx="243.75" cy="224.519" r="4.327" fill="#FF6C7E" opacity=".2"/>
        <circle cx="207.692" cy="234.615" r="2.885" fill="#FBB" opacity=".6"/>
        <circle cx="48.558" cy="12.019" r="5.288" fill="#FF6C7E" opacity=".4"/>
    </g>
</svg>
