<svg xmlns="http://www.w3.org/2000/svg" width="176" height="36" viewBox="0 0 176 36">
    <defs>
        <linearGradient id="prefix__a" x1="38.582%" x2="61.401%" y1="100.075%" y2="0%">
            <stop offset="0%" stop-color="#FF4652"/>
            <stop offset="100%" stop-color="#FF6C7E"/>
        </linearGradient>
    </defs>
    <g fill="none" fill-rule="evenodd">
        <g fill="#32322E">
            <path fill-rule="nonzero" d="M82.393 2.67H76.96c-.263-.008-.517.092-.703.278-.186.185-.287.439-.28.701v10.396c-.022 1.303-.21 2.598-.558 3.853-.078.26-.049.54.08.779.13.238.35.416.61.493.098.026.2.037.3.033.453 0 .852-.297.981-.73.404-1.443.62-2.933.643-4.43v-.435h3.297v2.833c0 1.983-.964 2.47-1.26 2.571l-.035.012c-.466.17-.744.65-.658 1.137.086.488.51.844 1.007.845.12 0 .24-.021.353-.062.62-.213 2.64-1.173 2.64-4.503V3.649c.007-.262-.094-.516-.28-.701-.186-.186-.44-.286-.703-.279zm-4.366 1.96h3.302V7.16h-3.305l.003-2.528zm0 7.018V9.12h3.302v2.528h-3.302zM73.83 4.78h.314c.361.015.701-.169.886-.478.185-.31.185-.696 0-1.005-.185-.31-.525-.494-.886-.479h-.314v-.816c.015-.374-.176-.727-.5-.919-.322-.192-.725-.192-1.047 0-.323.192-.515.545-.5.92v.815h-3.19v-.816c.015-.374-.177-.727-.5-.919-.323-.192-.725-.192-1.048 0-.323.192-.515.545-.5.92v.815h-.715c-.527.022-.943.455-.943.981s.416.96.943.98h.697v8.663h-.697c-.527.022-.943.455-.943.981 0 .527.416.96.943.981h8.3c.362.015.702-.169.887-.478.185-.31.185-.696 0-1.005-.185-.31-.525-.494-.886-.479h-.314l.013-8.662zM68.587 8.32h3.19v1.58h-3.19v-1.58zm3.19-3.541v1.58h-3.19V4.78h3.19zm-3.19 8.662v-1.576h3.19v1.58l-3.19-.004zm5.373 4.78c.387.4.38 1.037-.013 1.43-.394.394-1.032.4-1.434.015l-1.367-1.362c-.26-.258-.36-.634-.266-.987.095-.353.371-.628.725-.723.354-.094.731.007.99.265l1.365 1.362zm-5.081-1.364c.399.399.399 1.045 0 1.444l-2.015 2.01c-.255.276-.64.39-1.005.297-.364-.092-.648-.376-.74-.739-.093-.363.021-.747.297-1.002l2.015-2.01c.4-.398 1.049-.398 1.45 0h-.002zM46.114 7.693c-.4-.4-.4-1.045 0-1.444l3.385-3.378c.257-.266.638-.374.997-.28.36.092.64.372.733.73.094.357-.013.738-.28.994L47.56 7.693c-.4.398-1.047.398-1.447 0zM62.525 7.6l-6.344-6.338c-.377-.39-.99-.433-1.417-.099-.222.184-.355.452-.368.74-.013.286.096.565.3.768l6.351 6.337c.378.391.99.434 1.42.1.22-.186.35-.455.362-.742.011-.287-.1-.565-.304-.766zm-2.908 1.824H46.332c-.572.022-1.024.492-1.024 1.063 0 .57.452 1.04 1.024 1.063h3.61c-.196.915-.5 1.805-.901 2.651-1.028 2.198-2.925 3.817-2.944 3.832-.29.244-.429.625-.362.999.067.373.328.683.686.812.357.13.757.058 1.048-.186.092-.077 2.269-1.924 3.501-4.559.538-1.126.92-2.32 1.137-3.55h6.445v3.544c0 3.603-3.615 3.769-4.03 3.776-.588.002-1.063.48-1.06 1.067.003.586.482 1.06 1.07 1.057 1.036-.04 2.054-.287 2.992-.727 1.434-.689 3.142-2.146 3.142-5.173v-4.605c-.007-.579-.47-1.048-1.05-1.064zM42.69 9.737c0 .282-.113.553-.313.752-.2.2-.47.31-.753.31h-9.31v9.18c0 .282-.113.553-.313.752-.2.2-.47.311-.753.31-.283.001-.554-.11-.754-.31-.2-.2-.313-.47-.313-.751V10.8H23.44c-.588 0-1.065-.476-1.065-1.063 0-.586.477-1.062 1.065-1.062h6.744V2.001c0-.586.477-1.062 1.065-1.062s1.064.476 1.064 1.062V3.76h7.236c.565 0 1.023.458 1.023 1.021 0 .564-.458 1.02-1.023 1.02h-7.234v2.875h9.31c.282 0 .553.111.753.31.2.2.313.47.313.752zm-6.484 2.954c-.417-.417-1.094-.417-1.511 0-.417.416-.417 1.091 0 1.507l3.694 3.677c.27.27.664.375 1.033.276.368-.098.656-.386.755-.753.1-.368-.006-.76-.276-1.03l-3.695-3.677zM19.355 8.332c.015.374-.176.727-.5.92-.322.191-.725.191-1.048 0-.323-.193-.514-.546-.499-.92V5.797h-6.282V7.7c1.132.754 2.339 1.389 3.602 1.894 1.447.553 2.953.935 4.489 1.14.522.052.91.505.881 1.028-.028.523-.464.93-.989.926-.036.003-.073.003-.11 0-3.184-.39-6.233-1.522-8.899-3.305-2.666 1.782-5.715 2.914-8.9 3.305-.036.003-.073.003-.11 0-.524.005-.96-.403-.989-.926-.028-.523.36-.976.882-1.029 1.536-.204 3.042-.586 4.489-1.139 1.265-.505 2.474-1.14 3.607-1.894V5.797H2.705v2.535c0 .564-.458 1.022-1.024 1.022C1.116 9.353.658 8.896.658 8.332V4.814c0-.541.44-.98.983-.98h7.346V2.9H2.752c-.527-.022-.943-.455-.943-.981s.416-.96.943-.98h14.5c.528.02.944.454.944.98s-.416.96-.943.98h-6.227v.936h7.347c.542 0 .982.438.982.98v3.516zm-13.123-.02c.542 0 .982-.439.982-.98 0-.542-.44-.98-.982-.98H4.814c-.542 0-.982.438-.982.98 0 .541.44.98.982.98h1.418zM10.71 12.7c.527-.022.944-.455.944-.981s-.417-.96-.944-.98H9.128c-.527.02-.943.454-.943.98s.416.959.943.98h1.582zm3.19-6.353c-.542 0-.982.44-.982.98 0 .542.44.98.983.98h1.417c.543 0 .982-.438.982-.98 0-.54-.44-.98-.982-.98h-1.417zm3.037 8.028c0-.541-.44-.98-.982-.98H4.032c-.543 0-.982.439-.982.98 0 .541.44.98.982.98h10.764c-.076.18-.19.34-.336.469-1.11 1.044-4.126 1.28-5.768 1.184-.323-.026-.642.084-.88.302-.185.183-.29.433-.29.693 0 .26.105.51.29.694l1.793 1.79c.384.382 1.007.382 1.39 0 .385-.384.385-1.005 0-1.388l-.088-.09c1.635-.133 3.726-.542 4.955-1.697.688-.623 1.078-1.508 1.075-2.434v-.503z" transform="translate(46.933 7.2)"/>
            <path d="M101.114 16.99c0 .506-.18.938-.54 1.297-.36.359-.793.538-1.301.538h-4.994c-.07 0-.106.042-.106.126 0 .225-.084.426-.254.602-.169.175-.373.263-.613.263h-.212c-.31 0-.568-.105-.772-.316-.205-.211-.307-.464-.307-.76v-3.775c0-.507.18-.939.54-1.298.36-.358.793-.538 1.301-.538h5.417c.508 0 .942.18 1.301.538.36.359.54.791.54 1.298v2.025zm-2.158-.064v-1.898c0-.155-.085-.232-.254-.232h-4.275c-.155 0-.24.077-.254.232v1.898c0 .155.085.232.254.232h4.275c.169 0 .254-.077.254-.232zM87.698 4.312c-.24 0-.448-.088-.624-.263-.176-.176-.264-.384-.264-.623s.088-.446.264-.622c.176-.176.385-.264.624-.264h7.533c.141 0 .212-.07.212-.21v-.443c0-.324.106-.595.317-.813.212-.218.48-.327.804-.327.325 0 .596.113.815.338.219.225.328.492.328.802v.442c0 .141.064.211.19.211h7.534c.24 0 .448.088.624.264.176.176.264.383.264.622 0 .24-.088.447-.264.623-.176.175-.385.263-.624.263h-3.11c-.17 0-.29.078-.36.232-.24.493-.544 1.027-.91 1.603-.029.043-.032.088-.011.138.021.049.06.073.116.073h2.666c.508 0 .942.18 1.302.538.36.359.54.791.54 1.298v9.26c0 1.42-.152 2.292-.456 2.615-.303.324-1.103.485-2.401.485-.706 0-1.369-.014-1.99-.042-.267-.014-.497-.116-.687-.306-.19-.19-.293-.418-.307-.685-.014-.24.07-.454.254-.643.183-.19.402-.278.656-.264.776.042 1.277.063 1.502.063.55 0 .882-.053.995-.158.113-.106.17-.432.17-.98v-4.81c0-.155-.092-.232-.276-.232-1.03.042-2.045.063-3.047.063-1.072 0-1.774-.134-2.105-.4-.332-.268-.498-.852-.498-1.752V8.447c0-.155-.077-.24-.232-.253h-1.63c-.155 0-.232.084-.232.253-.029 1.139-.325 2.106-.89 2.9-.564.795-1.516 1.557-2.856 2.289-.31.168-.638.207-.984.116-.345-.092-.617-.278-.814-.56-.015-.013-.036-.02-.064-.02-.028 0-.042.014-.042.042v6.328c0 .323-.11.594-.328.812-.219.218-.487.327-.804.327-.318 0-.586-.112-.804-.337-.22-.225-.328-.493-.328-.802V8.194c0-.507.18-.94.54-1.298.359-.358.793-.538 1.3-.538h2.434c.155 0 .204-.077.148-.232-.085-.225-.324-.759-.72-1.603-.07-.14-.183-.21-.338-.21h-3.132zm11.935 4.135v1.286c0 .507.067.805.2.897.135.091.561.137 1.28.137.452 0 1.122-.014 2.011-.042.07 0 .134-.025.19-.074.057-.05.085-.109.085-.18V8.448c0-.155-.084-.24-.254-.253h-3.237c-.184.014-.275.098-.275.253zm-5.82-4.135c-.14 0-.183.07-.126.211.197.45.416.992.656 1.624.042.141.155.211.338.211h3.386c.17 0 .303-.07.402-.21.409-.563.748-1.104 1.016-1.625.028-.042.024-.088-.011-.137-.035-.05-.081-.074-.138-.074h-5.522zM93.2 8.468c0-.169-.078-.26-.233-.274h-2.983c-.156 0-.24.084-.254.253v3.649c0 .056.028.098.084.126.057.029.113.029.17 0 1.255-.618 2.098-1.188 2.528-1.708.43-.52.66-1.202.688-2.046zm17.662-1.899c-.325 0-.596-.105-.815-.316-.219-.211-.328-.478-.328-.802V4.207c0-.506.18-.939.54-1.297.36-.359.793-.538 1.301-.538h6.158c.14 0 .218-.07.232-.211v-.443c0-.324.117-.601.35-.833.232-.232.511-.348.835-.348.325 0 .604.119.836.358.233.24.35.513.35.823v.443c0 .14.077.21.232.21h6.158c.508 0 .941.18 1.301.539.36.358.54.79.54 1.297V5.45c0 .324-.106.591-.318.802-.211.21-.48.316-.804.316-.127 0-.254-.02-.38-.063-.142-.056-.233-.007-.276.148-.056.197-.165.358-.328.485-.162.126-.356.19-.582.19h-3.343c-.155 0-.219.091-.19.274.31 1.21.733 2.412 1.27 3.607.07.155.161.176.274.063.65-.576 1.355-1.286 2.116-2.13.184-.197.417-.31.699-.338.282-.028.532.042.75.211.22.169.34.39.36.665.022.274-.06.516-.243.727-.832.999-1.728 1.892-2.687 2.68-.113.098-.127.217-.042.358.959 1.476 2.066 2.777 3.322 3.902.24.211.38.475.423.791.042.317-.039.605-.243.865-.205.26-.47.408-.794.443-.324.035-.614-.06-.867-.285-1.58-1.378-2.96-3.104-4.137-5.178-1.178-2.074-1.993-4.208-2.444-6.402-.029-.155-.12-.24-.275-.253h-.53c-.14 0-.282.056-.423.168-.127.113-.338.275-.634.486-.127.098-.134.204-.022.316 1.129 1.055 2.007 2.292 2.635 3.713.628 1.42.941 2.886.941 4.398 0 1.511-.19 2.555-.57 3.132-.382.577-1.002.865-1.863.865-.578 0-1.382-.021-2.412-.063-.268-.015-.505-.12-.71-.317-.204-.197-.313-.429-.327-.696-.014-.253.078-.475.275-.664.198-.19.423-.278.677-.264.818.042 1.376.063 1.672.063.395 0 .649-.112.762-.337.112-.225.169-.802.169-1.73 0-.492-.014-.85-.042-1.076 0-.056-.025-.091-.075-.105-.049-.014-.095-.007-.137.02-1.947 1.632-4.535 3.074-7.766 4.325-.254.099-.515.091-.783-.021-.268-.113-.458-.302-.571-.57-.099-.253-.092-.502.021-.748s.303-.419.571-.517c3.372-1.21 6.08-2.65 8.126-4.324.113-.085.14-.211.085-.38-.142-.38-.29-.696-.445-.95-.084-.14-.19-.168-.317-.084-1.693 1.266-3.887 2.412-6.581 3.439-.254.098-.508.095-.762-.01-.254-.106-.437-.279-.55-.518-.099-.239-.099-.478 0-.717s.275-.4.529-.485c2.582-.872 4.726-1.891 6.433-3.059.127-.098.14-.204.042-.316-.353-.38-.628-.661-.825-.844-.113-.112-.247-.126-.402-.042-1.27.703-2.716 1.357-4.338 1.962-.24.098-.487.095-.74-.01-.255-.106-.438-.286-.55-.539-.1-.225-.096-.45.01-.675.105-.225.285-.372.54-.443 2.073-.66 3.85-1.42 5.332-2.278.028-.042.014-.077-.043-.105h-3.809c-.211 0-.402-.064-.57-.19-.17-.127-.283-.288-.34-.485-.028-.14-.112-.19-.253-.148-.127.042-.254.063-.381.063zm1.121-2.13v.865c0 .126.078.175.233.147.014 0 .039-.003.074-.01.035-.007.074-.01.116-.01h13.458c.029 0 .064.003.106.01.043.007.07.01.085.01.155.028.233-.02.233-.147v-.865c0-.155-.078-.232-.233-.232h-13.839c-.155 0-.233.077-.233.232z" transform="translate(46.933 7.2)"/>
        </g>
        <g fill-rule="nonzero">
            <path fill="#FFF" stroke="#CCC" stroke-width=".5" d="M12.691 0h10.72c4.413 0 6.014.46 7.627 1.322 1.613.863 2.88 2.13 3.742 3.743.863 1.613 1.323 3.213 1.323 7.626V23.31c0 4.413-.46 6.013-1.323 7.626-.863 1.614-2.129 2.88-3.742 3.743S27.824 36 23.411 36h-10.72c-4.413 0-6.013-.46-7.626-1.322-1.614-.863-2.88-2.13-3.743-3.743S0 27.722 0 23.31V12.69c0-4.413.46-6.013 1.322-7.626.863-1.614 2.13-2.88 3.743-3.743S8.278 0 12.69 0z"/>
            <path fill="url(#prefix__a)" d="M7.477 4.74c.468-.041.714.085.741.38.009.097-.504.82-.966 1.726-.49.956-.934 2.11-1.055 2.767-.312 1.632-.398 3.3-.257 4.955.192 2.135.85 3.152 1.976 3.051.786-.068 1.493-.684 2.123-1.847.63-1.163 1.083-2.672 1.36-4.527.278-1.907.329-3.84.15-5.76-.094-1.055-.42-1.835-.977-2.34-.507-.481-1.198-.72-1.895-.655-.564.074-1.117.21-1.651.403-.392.141-.791.261-1.196.36-.341.03-.524-.102-.551-.398-.018-.199.108-.435.38-.709.328-.316.697-.587 1.098-.806C7.86.697 9.095.308 10.369.202c1.308-.12 2.401-.035 3.279.256.83.257 1.587.711 2.204 1.323 1.222 1.21 1.922 2.811 2.1 4.806.128 1.333.054 2.678-.218 3.99-.242 1.195-.678 2.342-1.29 3.397-.577.979-1.295 1.87-2.13 2.642-1.646 1.52-3.76 2.442-5.998 2.614-2.357.209-4.22-.24-5.591-1.346C1.388 16.81.63 15.28.455 13.294c-.116-1.286-.113-2.52.294-3.59.773-2.05 2.05-3.25 3.66-4.096.954-.49 1.998-.786 3.068-.868zM2.824 25.35c-.377.03-.585-.18-.621-.608-.053-.65-.035-1.509.077-1.763.188-.324.504-.555.871-.635.372-.07 10.87-.956 10.87-.956.377-.03.584.173.62.609.053.65.033 1.533-.077 1.764-.196.317-.51.545-.873.633-.37.069-10.867.956-10.867.956z" transform="translate(9.026 5.25)"/>
        </g>
    </g>
</svg>
