<svg xmlns="http://www.w3.org/2000/svg" width="16" height="16" viewBox="0 0 16 16">
    <g fill="#FF6C7E" fill-rule="evenodd">
        <ellipse cx="7.827" cy="5.005" rx="3.602" ry="3.587"/>
        <path fill-rule="nonzero" d="M1.944 15.087c-.354 0-.64-.285-.64-.636 0-2.505 1.446-4.758 3.673-5.84l.354-.172-.297-.26c-.914-.798-1.448-1.944-1.448-3.174 0-2.328 1.902-4.222 4.241-4.222 2.339 0 4.241 1.894 4.241 4.222 0 1.23-.534 2.376-1.448 3.174l-.297.26.354.172c2.227 1.082 3.673 3.335 3.673 5.84 0 .351-.286.636-.64.636-.354 0-.64-.285-.64-.636 0-2.88-2.352-5.223-5.243-5.223-2.891 0-5.243 2.343-5.243 5.223 0 .351-.287.636-.64.636zm2.92-10.082c0 1.628 1.33 2.952 2.963 2.952s2.962-1.324 2.962-2.952c0-1.627-1.329-2.95-2.962-2.95-1.633 0-2.962 1.323-2.962 2.95z"/>
    </g>
</svg>
