<svg xmlns="http://www.w3.org/2000/svg" width="66" height="66" viewBox="0 0 66 66">
    <g fill="#FFF" fill-rule="evenodd">
        <circle cx="33.122" cy="33.122" r="31.682" fill-rule="nonzero" opacity=".1"/>
        <circle cx="33.122" cy="27.361" r="7.2"/>
        <path fill-rule="nonzero" d="M21.432 47.522c-.703 0-1.271-.573-1.271-1.28 0-5.044 2.872-9.581 7.297-11.76l.704-.346-.59-.522c-1.816-1.607-2.878-3.914-2.878-6.39 0-4.688 3.78-8.503 8.428-8.503 4.647 0 8.428 3.815 8.428 8.502 0 2.477-1.062 4.784-2.88 6.391l-.589.522.704.346c4.425 2.179 7.297 6.716 7.297 11.76 0 .707-.568 1.28-1.27 1.28-.703 0-1.271-.573-1.271-1.28 0-5.8-4.674-10.516-10.42-10.516-5.744 0-10.418 4.717-10.418 10.516 0 .707-.569 1.28-1.271 1.28zm5.804-20.299c0 3.278 2.64 5.942 5.886 5.942 3.245 0 5.886-2.664 5.886-5.942 0-3.277-2.64-5.941-5.886-5.941s-5.886 2.664-5.886 5.941z"/>
    </g>
</svg>
