<svg xmlns="http://www.w3.org/2000/svg" width="18" height="18" viewBox="0 0 18 18">
    <g fill="#FFF" fill-rule="evenodd" opacity=".7">
        <path d="M10.725 7.383c-.196 0-.355.16-.355.356 0 .196.159.354.355.354.197 0 .356-.158.356-.354 0-.197-.16-.356-.356-.356M8.513 2.873c1.201.784 1.938 2.106 1.97 3.536.005.193.164.347.356.347H10.848c.196-.005.352-.167.347-.364-.038-1.663-.895-3.201-2.293-4.114-.164-.107-.384-.06-.492.103-.108.165-.062.385.103.492" transform="translate(.391 .392)"/>
        <path d="M16.255 16.223c-.387.386-1.013.386-1.4 0l-3.086-3.081.195-.171.001.002.004-.003h.001l.1-.1.035-.035.067-.068.01-.009 1.014-1.012 3.059 3.08c.386.387.386 1.01 0 1.397zm-4.038-4.476l-.476.446-1.03-1.056c.16-.146.315-.3.461-.462l.05.05.995 1.02v.002zM6.409.71c3.141 0 5.697 2.55 5.697 5.686 0 3.139-2.546 5.686-5.697 5.686-3.141 0-5.697-2.551-5.697-5.686S3.268.71 6.409.71zm10.349 13.614l-3.325-3.318c-.138-.139-.364-.139-.503 0l-.238.237-1.095-1.12c.79-1.063 1.22-2.384 1.22-3.727C12.818 2.869 9.944 0 6.41 0 2.875 0 0 2.869 0 6.396c0 3.527 2.875 6.396 6.409 6.396 1.345 0 2.67-.428 3.759-1.216l1.098 1.12-.238.209c-.139.138-.139.363 0 .502l3.325 3.318c.664.663 1.74.663 2.405 0 .665-.664.665-1.737 0-2.4z" transform="translate(.391 .392)"/>
        <path d="M6.293 7.27c-.166 0-.344-.09-.502-.254-.138-.142-.383-.16-.546-.04-.164.118-.185.33-.047.472.206.213.45.362.708.436v.392c0 .185.173.335.387.335.214 0 .387-.15.387-.335v-.393c.451-.139.775-.511.775-.949 0-.555-.521-1.006-1.162-1.006-.213 0-.387-.15-.387-.335 0-.185.174-.336.387-.336.137 0 .282.06.419.176.154.128.399.125.547-.008.15-.134.145-.346-.009-.474-.196-.165-.393-.258-.57-.31v-.39c0-.185-.173-.335-.387-.335-.214 0-.387.15-.387.335v.393c-.45.139-.774.511-.774.949 0 .554.52 1.006 1.161 1.006.214 0 .387.15.387.335 0 .185-.173.336-.387.336" transform="translate(.391 .392)"/>
    </g>
</svg>
