<svg xmlns="http://www.w3.org/2000/svg" width="18" height="18" viewBox="0 0 18 18">
    <path fill="#FFF" fill-rule="evenodd" d="M15.647 14.098c-.124.16-.356.19-.517.067-.16-.125-.191-.356-.067-.517 1.049-1.36 1.615-3.015 1.615-4.744 0-4.295-3.481-7.776-7.775-7.776-4.294 0-7.775 3.481-7.775 7.776 0 4.293 3.481 7.774 7.775 7.774 1.43 0 2.81-.386 4.02-1.119.174-.105.401-.05.507.125.105.174.05.4-.124.506-1.326.802-2.839 1.225-4.403 1.225-4.7 0-8.512-3.81-8.512-8.511C.391 4.202 4.202.39 8.903.39c4.701 0 8.513 3.811 8.513 8.513 0 1.892-.621 3.706-1.77 5.194zm-9.418.552c-.16-.074-.229-.264-.155-.423.075-.16.264-.229.423-.154.299.138.61.25.93.337.17.045.271.22.226.39-.046.17-.22.27-.39.225-.357-.096-.702-.221-1.034-.375zM2.782 7.263c.045-.17.22-.27.39-.225.17.046.27.22.225.39-.575 2.145.146 4.417 1.837 5.84.134.113.152.314.039.449-.114.134-.314.151-.449.038-1.88-1.582-2.681-4.108-2.042-6.492zm8.95-3.684c-.074.16-.263.23-.423.155-.298-.139-.61-.251-.93-.337-.17-.046-.27-.22-.225-.39.045-.17.22-.27.39-.225.356.095.701.22 1.033.375.16.074.23.263.155.422zm3.293 6.964c-.046.17-.22.27-.39.225-.17-.045-.27-.22-.225-.39.574-2.144-.146-4.416-1.838-5.84-.134-.113-.151-.314-.038-.448.113-.135.314-.152.448-.039 1.88 1.582 2.682 4.108 2.043 6.492zm-5.44-3.85c.812 0 1.473.662 1.473 1.475l-.019.113-.75-.02v-.093c0-.388-.316-.704-.705-.704h-1.09c-.388 0-.704.316-.704.704 0 .388.316.704.705.704h1.09c.812 0 1.473.662 1.473 1.475 0 .813-.66 1.474-1.474 1.474l-.16-.02-.02 1.11-.75-.02.02-1.07h-.18c-.812 0-1.474-.661-1.474-1.474l.02-.113.75.02v.093c0 .388.316.704.705.704h1.09c.388 0 .704-.316.704-.704 0-.389-.316-.705-.705-.705h-1.09c-.812 0-1.474-.661-1.474-1.474s.662-1.475 1.475-1.475l.16.02.02-1.109.75.02-.02 1.07h.18z" opacity=".7"/>
</svg>
