<svg xmlns="http://www.w3.org/2000/svg" width="18" height="18" viewBox="0 0 18 18">
    <path fill="#FFF" fill-rule="evenodd" d="M5.987 10.771c.192 0 .347.157.347.35v.568c0 .193-.155.35-.347.35-.192 0-.347-.157-.347-.35v-.567c0-.194.155-.35.347-.35zm6.206 0c.192 0 .347.157.347.35v.568c0 .193-.155.35-.347.35-.192 0-.347-.157-.347-.35v-.567c0-.194.155-.35.347-.35zm-2.599.648c.126-.146.346-.16.49-.033.145.127.16.348.034.493-.255.295-.63.463-1.028.463-.4 0-.774-.169-1.028-.463-.126-.145-.11-.366.033-.493.145-.128.364-.113.491.033.122.142.305.223.504.223.198 0 .382-.081.504-.223zM.937 6.814V1.888C.937 1.063 1.6.39 2.417.39h13.344c.817 0 1.482.672 1.482 1.497v4.926c0 .433-.12.85-.34 1.212v7.005c.29.095.494.37.494.686v1.737c0 .193-.155.35-.347.35H1.13c-.192 0-.347-.157-.347-.35v-1.737c0-.317.204-.591.493-.686V8.026c-.22-.362-.34-.78-.34-1.212zM13.34 1.09v5.372h3.208V1.888c0-.44-.353-.797-.787-.797H13.34zm.038 6.072c.16.726.822 1.273 1.563 1.273.747 0 1.409-.547 1.57-1.273h-3.133zm-3.94-.7h3.207V1.091H9.437v5.372zm.037.7c.162.728.82 1.271 1.563 1.273h.006c.739-.002 1.405-.55 1.563-1.273H9.475zM4.84 1.091H2.418c-.434 0-.787.357-.787.797v4.575H4.84v-3.24c0-.193.155-.35.347-.35.192 0 .347.157.347.35v3.24h3.209V1.091H5.534v1.124c0 .193-.155.35-.347.35-.192 0-.347-.157-.347-.35V1.09zm.732 6.072c.163.726.824 1.273 1.564 1.273h.005c.743-.001 1.407-.552 1.564-1.273H5.572zm-3.903 0c.16.724.815 1.258 1.566 1.273H3.23h.007c.74 0 1.401-.547 1.563-1.273H1.67zm15.033 8.554c0-.012-.009-.022-.02-.022h-2.064c-.193 0-.347-.156-.347-.35 0-.19.158-.35.347-.35h1.59V8.753c-.373.248-.816.383-1.264.383-.784 0-1.535-.426-1.951-1.096-.411.667-1.169 1.096-1.952 1.096-.788 0-1.534-.424-1.951-1.097-.417.672-1.163 1.097-1.952 1.097-.787 0-1.535-.425-1.95-1.096-.417.673-1.163 1.096-1.953 1.096-.346 0-.692-.08-1.003-.234-.09-.044-.177-.094-.26-.149v6.242H13.62c.188 0 .347.16.347.35 0 .194-.155.35-.347.35H1.497c-.01 0-.02.01-.02.022v1.388h15.225v-1.388z" opacity=".7"/>
</svg>
