<svg xmlns="http://www.w3.org/2000/svg" width="18" height="18" viewBox="0 0 18 18">
    <path fill="#FFF" fill-rule="evenodd" d="M9.331 1.652l7.835 5.736c.2.147.243.427.097.628-.086.117-.22.183-.363.183-.094 0-.187-.03-.265-.086L9.078 2.562l-7.58 5.55c-.201.147-.482.104-.629-.096-.146-.2-.102-.481.097-.628l7.835-5.736c.158-.116.373-.116.53 0m5.747 6.522c.248 0 .45.202.45.45v7.264c0 .248-.202.45-.45.45h-4.294c-.235 0-.43-.182-.447-.415-.002-.01-.002-.022-.002-.035v-4.16c0-.7-.57-1.27-1.269-1.27-.7 0-1.269.57-1.269 1.27v4.16l-.001.035c-.018.233-.213.414-.448.414H3.054c-.248 0-.449-.2-.449-.449V8.623c0-.247.201-.449.45-.449.247 0 .448.202.448.45l-.02 6.815 3.416.02v-3.732c0-1.194.972-2.166 2.167-2.166 1.195 0 2.167.971 2.167 2.166l-.02 3.712 3.416.02V8.623c0-.247.201-.449.45-.449" opacity=".7"/>
</svg>
