<?xml version="1.0" encoding="UTF-8"?>
<svg width="124px" height="124px" viewBox="0 0 124 124" version="1.1" xmlns="http://www.w3.org/2000/svg" xmlns:xlink="http://www.w3.org/1999/xlink">
    <!-- Generator: Sketch 52.3 (67297) - http://www.bohemiancoding.com/sketch -->
    <title>Moto / icon_purchase_step03</title>
    <desc>Created with Sketch.</desc>
    <g id="Moto-/-icon_purchase_step03" stroke="none" stroke-width="1" fill="none" fill-rule="evenodd">
        <rect id="Rectangle-Copy-9" fill-rule="nonzero" x="0" y="0" width="124" height="124"></rect>
        <g id="Group-15" transform="translate(12.000000, 24.000000)">
            <rect id="Rectangle" fill="#FFF3B5" fill-rule="nonzero" x="37" y="5" width="63" height="37" rx="5"></rect>
            <g id="Group-4" fill="#7B7B7B">
                <path d="M85.4604045,2.19202434e-12 C84.8073831,2.19202434e-12 84.2774122,0.530252738 84.2774122,1.18362153 C84.2774122,1.83759977 84.8073831,2.36785235 85.4604045,2.36785235 L91.9677145,2.36785235 C93.4376218,2.36785235 94.6334065,3.56427305 94.6334065,5.03496228 L94.6334065,34.1037789 C94.6334065,35.5744681 93.4376218,36.7708888 91.9677145,36.7708888 L47.3001949,36.7708888 C46.9864766,36.7708888 46.6855507,36.8958333 46.4632065,37.1176862 L39.6485137,43.936004 L39.6485137,37.9551196 C39.6485137,37.3011414 39.119152,36.7708888 38.4655214,36.7708888 L36.212232,36.7708888 C34.7423245,36.7708888 33.54654,35.5744681 33.54654,34.1037789 L33.54654,5.03496228 C33.54654,3.56427305 34.7423245,2.36785235 36.212232,2.36785235 L81.5160819,2.36785235 C82.1697124,2.36785235 82.6996833,1.83759977 82.6996833,1.18362153 C82.6996833,0.530252738 82.1697124,2.19202434e-12 81.5160819,2.19202434e-12 L36.212232,2.19202434e-12 C33.4375,2.19202434e-12 31.1799464,2.25875435 31.1799464,5.03496228 L31.1799464,34.1037789 C31.1799464,36.8799868 33.4375,39.1387411 36.212232,39.1387411 L37.2825293,39.1387411 L37.2825293,46.793883 C37.2825293,47.2729388 37.5706628,47.7044549 38.0129142,47.8879101 C38.159113,47.9482492 38.3126219,47.978114 38.4655214,47.978114 C38.7731481,47.978114 39.0759016,47.8574357 39.3025098,47.6313166 L47.789961,39.1387411 L91.9677145,39.1387411 C94.7424465,39.1387411 97,36.8799868 97,34.1037789 L97,5.03496228 C97,2.25875435 94.7424465,2.19202434e-12 91.9677145,2.19202434e-12 L85.4604045,2.19202434e-12 Z" id="Path"></path>
                <path d="M49.0868664,52.103114 C48.4716131,51.4875332 47.6528996,51.1486591 46.7824075,51.1486591 C45.9119152,51.1486591 45.0932017,51.4875332 44.4779484,52.103114 L37.2453704,59.339539 C34.3652535,57.8334995 31.8597709,56.3975509 29.0600633,54.0351839 C28.5605506,53.6140293 27.8143275,53.6774159 27.3927875,54.1771941 C26.9718567,54.6769726 27.0352095,55.4235927 27.5347222,55.8453569 C30.768153,58.5728059 33.5824805,60.112367 36.9255604,61.8414782 C37.3830409,62.0779587 37.9410331,61.9914118 38.3053118,61.6269392 L42.1966375,57.7341534 L55.0249756,70.5693151 C50.8814572,74.1281028 45.0134016,75.3671875 38.350999,74.056793 C30.8583089,72.5824468 22.929459,67.9668108 16.0252193,61.0588985 C9.12097949,54.1509863 4.50718815,46.2173095 3.03362573,38.7206338 C1.72392795,32.054078 2.96235384,26.1829012 6.51864031,22.0377882 L19.3488061,34.8741689 L15.4562621,38.7681738 C15.0919835,39.1326464 15.0054824,39.6915448 15.2424465,40.1492685 C17.5986841,44.707613 19.4998782,48.0524711 24.262305,52.8180408 C24.7246589,53.280031 25.4739278,53.280031 25.9356725,52.8180408 C26.3980264,52.355441 26.3980264,51.6057735 25.9356725,51.1437832 C21.6660575,46.8718972 19.8769494,43.9134529 17.7430556,39.8292885 L24.9762427,32.5916444 C25.5921053,31.9760638 25.9307992,31.1569149 25.9307992,30.2859597 C25.9307992,29.4150045 25.5921053,28.5958556 24.9762427,27.9802748 L13.3765839,16.3744458 C12.7613304,15.7582558 11.9426169,15.4187721 11.0721248,15.4187721 C10.2016326,15.4187721 9.38291914,15.7582558 8.76766565,16.3738364 L5.64936639,19.4937943 C0.903996101,24.2416889 -0.849780741,31.2324911 0.711500975,39.1771388 C2.27461021,47.1303191 7.1186648,55.4961215 14.3518519,62.733156 C21.5844298,69.9695811 29.9457846,74.8162123 37.8947368,76.3795435 C39.7867933,76.7519392 41.6240253,76.936004 43.3905946,76.9353946 C49.0369152,76.9353946 53.9528508,75.0557402 57.567617,71.4390514 L60.685307,68.3197031 C61.3011696,67.7035129 61.6398635,66.8849734 61.6398635,66.0140182 C61.6398635,65.1430629 61.3011696,64.3239139 60.685307,63.7083333 L49.0868664,52.103114 Z M10.4410331,18.048094 C10.6091618,17.8798759 10.8333333,17.7866246 11.0721248,17.7866246 C11.3109162,17.7866246 11.5350877,17.8792664 11.7032164,18.048094 L23.3034844,29.6545324 C23.4716131,29.8227505 23.5648148,30.0470413 23.5648148,30.2859597 C23.5648148,30.5248781 23.4716131,30.7491689 23.3034844,30.917387 L21.0221736,33.1999113 L8.15972226,20.3306183 L10.4410331,18.048094 Z M59.0125488,66.6454455 L56.7306286,68.9279699 L43.8700048,56.0598959 L46.1513157,53.7773714 C46.3194445,53.6085438 46.5442252,53.515902 46.7824075,53.515902 C47.0205896,53.515902 47.2447612,53.6085438 47.4134989,53.7773714 L59.0125488,65.3819813 C59.3603802,65.7306073 59.3603802,66.2974291 59.0125488,66.6454455 Z" id="Shape" fill-rule="nonzero"></path>
                <text id="要保持-電話暢通喔！" font-family="rounded-x-mgenplus-1pp-bold, Rounded-X Mgen+ 1pp" font-size="10" font-weight="bold">
                    <tspan x="37" y="16">要保持</tspan>
                    <tspan x="37" y="30">電話暢通喔！</tspan>
                </text>
            </g>
        </g>
    </g>
</svg>