<?xml version="1.0" encoding="UTF-8"?>
<svg width="124px" height="124px" viewBox="0 0 124 124" version="1.1" xmlns="http://www.w3.org/2000/svg" xmlns:xlink="http://www.w3.org/1999/xlink">
    <!-- Generator: Sketch 52.3 (67297) - http://www.bohemiancoding.com/sketch -->
    <title>Moto / icon_purchase_step02</title>
    <desc>Created with Sketch.</desc>
    <g id="Moto-/-icon_purchase_step02" stroke="none" stroke-width="1" fill="none" fill-rule="evenodd">
        <rect id="Rectangle-Copy-10" fill-rule="nonzero" x="0" y="0" width="124" height="124"></rect>
        <path d="M56,54 L55.0628645,58.9980561 C55.0420753,58.9993456 55.0211141,59 55,59 L35,59 C34.4477153,59 34,58.5522847 34,58 L34,37 C34,36.4477153 34.4477153,36 35,36 L55,36 C55.5522847,36 56,36.4477153 56,37 L56,54 Z M52.53125,72.5 L48.21875,95.5 L35,95.5 C34.4477153,95.5 34,95.0522847 34,94.5 L34,73.5 C34,72.9477153 34.4477153,72.5 35,72.5 L52.53125,72.5 Z M58.5760435,98.9277679 L62.6875,77 L97,77 C100.313708,77 103,79.6862915 103,83 L103,94 C103,97.3137085 100.313708,100 97,100 L62,100 C60.727233,100 59.5470265,99.6037016 58.5760435,98.9277679 Z M65.1884273,63.6617208 L67,54 L98,54 C100.761424,54 103,56.2385763 103,59 C103,61.7614237 100.761424,64 98,64 L67,64 C66.3610671,64 65.7501253,63.880156 65.1884273,63.6617208 Z M68.3129947,46.9973616 L70.75,34 L96.5,34 C100.089851,34 103,36.9101491 103,40.5 C103,44.0898509 100.089851,47 96.5,47 L68.5,47 C68.4374546,47 68.3751156,46.9991166 68.3129947,46.9973616 Z" id="Combined-Shape" fill="#FFF3B5" fill-rule="nonzero"></path>
        <path d="M53.9456072,100.740034 C53.781358,101.552015 52.9899667,102.077106 52.1779854,101.912857 C51.366004,101.748608 50.8409134,100.957216 51.0051627,100.145235 L66.6167051,22.9681245 C66.7809544,22.1561432 67.5723456,21.6310526 68.3843269,21.7953018 C69.1963083,21.959551 69.7213989,22.7509423 69.5571497,23.5629236 L53.9456072,100.740034 Z M60.1547129,31.8415315 L57.4296875,46.375 L57.4296875,32.9018555 C57.4296875,32.0356445 58.131836,31.3330078 58.9990235,31.3330078 C59.4562328,31.3330078 59.8679549,31.528984 60.1547129,31.8415315 Z M54.7872925,60.4677735 L54.1990662,63.6049805 L36.6083985,63.6049805 C35.7426757,63.6049805 35.040039,62.902832 35.040039,62.0361328 C35.040039,61.1699219 35.7426757,60.4677735 36.6083985,60.4677735 L54.7872925,60.4677735 Z M53.3063954,68.3658913 L50.3574219,84.09375 L50.3574219,70.6801758 L31.7988281,70.6801758 L31.7988281,89.2387695 L49.3927307,89.2387695 L48.8045044,92.3759765 L30.2299805,92.3759765 C29.3637695,92.3759765 28.6611328,91.6738281 28.6611328,90.8076172 L28.6611328,69.1113281 C28.6611328,68.2451173 29.3637695,67.5429688 30.2299805,67.5429688 L51.9257813,67.5429688 C52.5221737,67.5429688 53.0410251,67.8758167 53.3063954,68.3658913 Z M19,100.405762 L19,90.6938476 C19,89.828125 19.7026367,89.1254882 20.5683594,89.1254882 C21.4355469,89.1254882 22.137207,89.828125 22.137207,90.6938476 L22.137207,98.836914 L29.984375,98.836914 C30.8510742,98.836914 31.553711,99.5390625 31.553711,100.405762 C31.553711,101.271973 30.8510742,101.974609 29.984375,101.974609 L20.5683594,101.974609 C19.7026367,101.974609 19,101.271973 19,100.405762 Z M19,33.3222656 L19,23.6103515 C19,22.7441406 19.7026367,22.0415039 20.5683594,22.0415039 L29.984375,22.0415039 C30.8510742,22.0415039 31.553711,22.7441406 31.553711,23.6103515 C31.553711,24.4770508 30.8510742,25.178711 29.984375,25.178711 L22.137207,25.178711 L22.137207,33.3222656 C22.137207,34.1884765 21.4355469,34.890625 20.5683594,34.890625 C19.7026367,34.890625 19,34.1884765 19,33.3222656 Z M28.6611328,33.0756836 C28.6611328,32.2089844 29.3637695,31.506836 30.2299805,31.506836 L51.9257813,31.506836 C52.7919923,31.506836 53.4946289,32.2089844 53.4946289,33.0756836 L53.4946289,38.4208985 C53.4946289,39.2875976 52.7919923,39.9902344 51.9257813,39.9902344 C51.0595703,39.9902344 50.3574219,39.2875976 50.3574219,38.4208985 L50.3574219,34.644043 L31.7988281,34.644043 L31.7988281,53.2026368 L50.3574219,53.2026368 L50.3574219,50.6572265 C50.3574219,49.7905274 51.0595703,49.0883789 51.9257813,49.0883789 C52.7919923,49.0883789 53.4946289,49.7905274 53.4946289,50.6572265 L53.4946289,54.7709961 C53.4946289,55.6376953 52.7919923,56.3398438 51.9257813,56.3398438 L30.2299805,56.3398438 C29.3637695,56.3398438 28.6611328,55.6376953 28.6611328,54.7709961 L28.6611328,33.0756836 Z M37.8237305,39.100586 L44.3325195,39.100586 C45.1987305,39.100586 45.9013672,39.8027344 45.9013672,40.6689453 L45.9013672,47.1777344 C45.9013672,48.0439453 45.1987305,48.746582 44.3325195,48.746582 L37.8237305,48.746582 C36.9570312,48.746582 36.2553711,48.0439453 36.2553711,47.1777344 L36.2553711,40.6689453 C36.2553711,39.8027344 36.9570312,39.100586 37.8237305,39.100586 Z M42.7641601,45.609375 L42.7641601,42.237793 L39.3925781,42.237793 L39.3925781,45.609375 L42.7641601,45.609375 Z M37.8237305,84.899414 C36.9570312,84.899414 36.2553711,84.1967774 36.2553711,83.3305664 L36.2553711,76.8217774 C36.2553711,75.9550781 36.9570312,75.253418 37.8237305,75.253418 L44.3325195,75.253418 C45.1987305,75.253418 45.9013672,75.9550781 45.9013672,76.8217774 L45.9013672,83.3305664 C45.9013672,84.1967774 45.1987305,84.899414 44.3325195,84.899414 L37.8237305,84.899414 Z M39.3925781,78.390625 L39.3925781,81.762207 L42.7641601,81.762207 L42.7641601,78.390625 L39.3925781,78.390625 Z M29.9125976,60.4741211 C30.7558594,60.2758789 31.600586,60.7983399 31.7988281,61.6411133 C31.9980469,62.484375 31.475586,63.3291015 30.631836,63.527832 L30.5478515,63.5473633 C30.4267577,63.5761719 30.3061524,63.590332 30.1865235,63.590332 C29.475586,63.590332 28.831543,63.1030274 28.6611327,62.3808594 C28.4624024,61.5375976 28.9848632,60.6928711 29.828125,60.4936524 L29.9125976,60.4741211 Z M51.6098632,42.9736328 C52.4526367,42.7758789 53.2973632,43.2998048 53.4951172,44.1430664 C53.6928711,44.9858399 53.1699219,45.8305664 52.3261719,46.0283203 L52.2421875,46.0478515 C52.1210937,46.0766601 52.0009765,46.090332 51.8828125,46.090332 C51.1704101,46.090332 50.5258789,45.602539 50.3569336,44.8793945 C50.1591797,44.0356445 50.6821289,43.1914063 51.5253906,42.9936524 L51.6098632,42.9736328 Z M59.125,96 L59.603125,93.45 L92.925,93.45 C95.9763732,93.45 98.45,90.9763732 98.45,87.925 L98.45,80.3281646 C98.45,77.2767913 95.9763732,74.8031646 92.925,74.8031646 L63.0994066,74.8031646 L63.5775316,72.2531646 L92.925,72.2531646 C97.3846994,72.2531646 101,75.8684652 101,80.3281646 L101,87.925 C101,92.3846994 97.3846994,96 92.925,96 L59.125,96 Z M61.6687698,82.4332278 L62.1468948,79.8832278 L81.271195,79.8832278 C81.9753581,79.8832278 82.546195,80.4540648 82.546195,81.1582278 C82.546195,81.8623909 81.9753581,82.4332278 81.271195,82.4332278 L61.6687698,82.4332278 Z M64.2130736,68.8636076 L64.6911986,66.3136076 L100.152778,66.3136076 C100.856941,66.3136076 101.427778,66.8844445 101.427778,67.5886076 C101.427778,68.2927707 100.856941,68.8636076 100.152778,68.8636076 L64.2130736,68.8636076 Z M65.4857595,62.0759494 L65.9638845,59.5259494 L94.6392405,59.5259494 C96.7438649,59.5259494 98.45,57.8198142 98.45,55.7151899 C98.45,53.6105655 96.7438649,51.9044304 94.6392405,51.9044304 L67.3929193,51.9044304 L67.8710443,49.3544304 L94.6392405,49.3544304 C98.152191,49.3544304 101,52.2022394 101,55.7151899 C101,59.2281403 98.152191,62.0759494 94.6392405,62.0759494 L65.4857595,62.0759494 Z M68.6661392,45.1139241 L69.1442642,42.5639241 L92.943038,42.5639241 C95.9844491,42.5639241 98.45,40.0983732 98.45,37.056962 C98.45,34.0155509 95.9844491,31.55 92.943038,31.55 L71.209375,31.55 L71.6875,29 L92.943038,29 C97.3927752,29 101,32.6072248 101,37.056962 C101,41.5066993 97.3927752,45.1139241 92.943038,45.1139241 L68.6661392,45.1139241 Z M69.9377571,38.331962 L70.4158821,35.781962 L70.5,35.781962 C71.2041631,35.781962 71.775,36.352799 71.775,37.056962 C71.775,37.7611251 71.2041631,38.331962 70.5,38.331962 L69.9377571,38.331962 Z M83.2083333,38.331962 C82.5041703,38.331962 81.9333333,37.7611251 81.9333333,37.056962 C81.9333333,36.352799 82.5041703,35.781962 83.2083333,35.781962 L92.4351128,35.781962 C93.1392759,35.781962 93.7101128,36.352799 93.7101128,37.056962 C93.7101128,37.7611251 93.1392759,38.331962 92.4351128,38.331962 L83.2083333,38.331962 Z M75.5833333,38.331962 C74.8791703,38.331962 74.3083333,37.7611251 74.3083333,37.056962 C74.3083333,36.352799 74.8791703,35.781962 75.5833333,35.781962 L77.2777778,35.781962 C77.9819408,35.781962 78.5527778,36.352799 78.5527778,37.056962 C78.5527778,37.7611251 77.9819408,38.331962 77.2777778,38.331962 L75.5833333,38.331962 Z" id="Combined-Shape" fill="#7B7B7B" fill-rule="nonzero"></path>
    </g>
</svg>