<?xml version="1.0" encoding="UTF-8"?>
<svg width="282px" height="60px" viewBox="0 0 282 60" version="1.1" xmlns="http://www.w3.org/2000/svg" xmlns:xlink="http://www.w3.org/1999/xlink">
    <!-- Generator: Sketch 50.2 (55047) - http://www.bohemiancoding.com/sketch -->
    <title>icon_logo</title>
    <desc>Created with Sketch.</desc>
    <defs>
        <linearGradient x1="26.65%" y1="100.075%" x2="73.315%" y2="0%" id="linearGradient-1">
            <stop stop-color="#FF4652" offset="0%"></stop>
            <stop stop-color="#FF6C7E" offset="100%"></stop>
        </linearGradient>
    </defs>
    <g id="icon_logo" stroke="none" stroke-width="1" fill="none" fill-rule="evenodd">
        <path d="M281.792857,46.2 C281.646302,46.0351528 281.430246,45.9494578 281.210455,45.969 L280.348861,45.969 L280.348861,33.957 C280.354374,33.6990868 280.330199,33.4413951 280.276812,33.189 C280.240121,33.0030052 280.152872,32.8307034 280.024638,32.691 C279.893077,32.5673585 279.730023,32.4822552 279.553313,32.445 C279.330814,32.4018897 279.104466,32.3817837 278.877847,32.385 L273.873395,32.385 C273.64578,32.3817264 273.41843,32.4018319 273.194928,32.445 C273.022,32.4794444 272.862589,32.5627387 272.735611,32.685 C272.608867,32.820639 272.522566,32.9889662 272.486439,33.171 C272.435767,33.4237613 272.412616,33.6812605 272.417391,33.939 L272.417391,45.978 L271.51677,45.978 C271.296242,45.959405 271.079687,46.0448575 270.931366,46.209 C270.81458,46.3654847 270.754265,46.5568795 270.760248,46.752 C270.753615,46.943091 270.815348,47.1302894 270.934369,47.28 C271.08857,47.4315201 271.301281,47.5082184 271.51677,47.49 L281.204451,47.49 C281.41909,47.5085522 281.631019,47.4317401 281.783851,47.28 C281.904905,47.131229 281.967838,46.9436234 281.960973,46.752 C281.969889,46.5541849 281.910539,46.3593121 281.792857,46.2 Z M278.817805,45.969 L273.948447,45.969 L273.948447,43.005 L278.817805,43.005 L278.817805,45.969 Z M278.817805,41.562 L273.948447,41.562 L273.948447,38.49 L278.817805,38.49 L278.817805,41.562 Z M278.817805,37.038 L273.948447,37.038 L273.948447,34.038 C273.944126,33.9714657 273.950203,33.9046649 273.96646,33.84 C273.96646,33.84 273.99648,33.825 274.059524,33.825 L278.622671,33.825 C278.763768,33.825 278.793789,33.849 278.793789,33.849 C278.793789,33.849 278.817805,33.876 278.817805,34.005 L278.817805,37.038 Z M270.541097,40.749 C270.372981,40.449 270.207867,40.194 270.048758,39.963 C269.940683,39.804 269.826605,39.648 269.709524,39.492 L269.709524,47.268 C269.738319,47.461234 269.676213,47.6569284 269.541239,47.7982599 C269.406265,47.9395914 269.213548,48.0107228 269.019048,47.991 C268.81826,48.0282726 268.612005,47.9640839 268.467899,47.8194769 C268.323793,47.6748699 268.260418,47.4684921 268.298551,47.268 L268.298551,41.004 C268.145445,41.334 267.998344,41.664 267.815217,41.988 C267.584058,42.435 267.328882,42.888 267.055694,43.329 C266.914193,43.6018241 266.698879,43.8294634 266.434265,43.986 C266.224181,44.0724591 265.983907,44.0404447 265.80383,43.902 C265.609975,43.7990975 265.4796,43.6070394 265.45559,43.389 C265.476555,43.1031861 265.589205,42.8317505 265.776812,42.615 C266.261973,41.9129908 266.692532,41.1748254 267.0647,40.407 C267.482539,39.5357504 267.847452,38.6401267 268.157453,37.725 L266.389234,37.725 C266.180895,37.7430361 265.973828,37.6783721 265.812836,37.545 C265.682482,37.3953906 265.6176,37.1997971 265.632712,37.002 C265.61945,36.809887 265.684405,36.6205661 265.812836,36.477 C265.973828,36.3436279 266.180895,36.2789639 266.389234,36.297 L268.307557,36.297 L268.307557,34.551 C268.115424,34.599 267.914286,34.644 267.707143,34.686 L266.950621,34.848 C266.687433,34.9211622 266.409255,34.9211622 266.146066,34.848 C265.943896,34.7349663 265.818715,34.5215018 265.818841,34.29 C265.777951,34.080792 265.839275,33.8646347 265.983954,33.708 C266.196076,33.5468825 266.446397,33.4435153 266.710455,33.408 C267.48499,33.252 268.18147,33.084 268.778882,32.91 C269.361069,32.7411934 269.931664,32.5347584 270.48706,32.292 C270.721223,32.1777519 270.974806,32.1085483 271.234576,32.088 L271.258592,32.088 C271.472325,32.1007599 271.65836,32.2384252 271.732919,32.439 C271.851812,32.6394156 271.875986,32.8820951 271.798965,33.102 C271.635507,33.3499423 271.390044,33.5325855 271.105487,33.618 C270.865321,33.72 270.625155,33.816 270.38499,33.903 C270.144824,33.99 269.943685,34.056 269.715528,34.128 L269.715528,36.3 L271.477743,36.3 C271.675347,36.2701148 271.875659,36.3333904 272.020171,36.4713457 C272.164684,36.6093009 272.237094,36.8063724 272.216253,37.005 C272.239432,37.205676 272.168509,37.4057938 272.024109,37.5471613 C271.879709,37.6885288 271.67804,37.7552784 271.477743,37.728 L269.991718,37.728 C270.372981,38.178 270.685197,38.553 270.919358,38.844 C271.163461,39.1440374 271.391922,39.4564521 271.60383,39.78 C271.7738,40.0125248 271.889696,40.2800273 271.943064,40.563 C271.941208,40.7916255 271.816124,41.0014835 271.615839,41.112 C271.451984,41.2565311 271.228063,41.3124727 271.015424,41.262 C270.800297,41.1585186 270.63127,40.9789173 270.541097,40.758 L270.541097,40.749 Z" id="Shape" fill="#979BA0" fill-rule="nonzero"></path>
        <path d="M261.820083,34.968 C261.66337,34.8386893 261.47258,34.7574251 261.270704,34.734 C260.989378,34.6936267 260.705296,34.6755703 260.421118,34.68 L255.746894,34.68 L255.746894,32.238 C255.767925,32.0292223 255.697911,31.8215131 255.554762,31.668 C255.390929,31.5432006 255.186696,31.4833621 254.981366,31.5 C254.767596,31.4827748 254.55469,31.5423473 254.380952,31.668 C254.239154,31.8223144 254.16935,32.029401 254.18882,32.238 L254.18882,34.68 L249.598654,34.68 C249.315713,34.6744141 249.032968,34.6985465 248.755072,34.752 C248.556747,34.7868659 248.371278,34.8738417 248.217702,35.004 C248.074867,35.1436093 247.981128,35.3256966 247.950518,35.523 C247.90636,35.7866339 247.886264,36.0537318 247.890476,36.321 L247.890476,41.721 C247.886535,41.9802991 247.906635,42.2394056 247.950518,42.495 C247.9838,42.6898286 248.072369,42.8710086 248.205694,43.017 C248.352654,43.1624582 248.54172,43.2579756 248.746066,43.29 C249.027008,43.3433844 249.312732,43.3675134 249.598654,43.362 L254.18882,43.362 L254.18882,47.283 C254.171488,47.4758101 254.221331,47.6686848 254.329917,47.829 C254.506721,47.9744649 254.73669,48.0387246 254.963354,48.006 C255.181449,48.0277168 255.398806,47.9582104 255.563768,47.814 C255.68289,47.6704981 255.742986,47.4871188 255.731884,47.301 L255.731884,43.356 L260.42412,43.356 C260.710042,43.3615134 260.995766,43.3373844 261.276708,43.284 C261.482318,43.2496316 261.673327,43.1557575 261.826087,43.014 C261.963925,42.8687904 262.055823,42.6861653 262.090269,42.489 C262.134152,42.2334056 262.154251,41.9742991 262.150311,41.715 L262.150311,36.339 C262.155141,36.0554187 262.132014,35.7720512 262.081263,35.493 C262.051117,35.295065 261.959797,35.1115017 261.820083,34.968 Z M254.200828,41.868 L249.595652,41.868 C249.545792,41.8746901 249.495968,41.8554532 249.463561,41.817 C249.430438,41.7753362 249.413392,41.7231691 249.415528,41.67 L249.415528,36.339 C249.414769,36.2959379 249.432207,36.2545504 249.463561,36.225 C249.504057,36.1897359 249.557145,36.172413 249.610663,36.177 L254.200828,36.177 L254.200828,41.868 Z M260.652277,41.586 C260.652277,41.763 260.610248,41.808 260.59824,41.817 C260.546012,41.8521406 260.48405,41.8699819 260.421118,41.868 L255.746894,41.868 L255.746894,36.168 L260.43913,36.168 C260.501408,36.1620452 260.56406,36.174567 260.619255,36.204 C260.640269,36.219 260.652277,36.264 260.652277,36.33 L260.652277,41.586 Z" id="Shape" fill="#979BA0" fill-rule="nonzero"></path>
        <path d="M242.949068,37.821 C242.441683,36.9263613 241.696775,36.189234 240.796584,35.691 C238.675539,34.595701 236.153111,34.6035396 234.038923,35.712 C233.043695,36.2688877 232.224258,37.0929559 231.673292,38.091 C230.546911,40.2883209 230.523546,42.8878149 231.610248,45.105 C232.132707,46.088852 232.932162,46.8981854 233.909834,47.433 C234.982736,47.9988546 236.182377,48.2817788 237.395238,48.255 C238.255255,48.264992 239.110496,48.1259335 239.922981,47.844 C240.614652,47.6137665 241.246357,47.2325454 241.772257,46.728 C241.930886,46.589914 242.020879,46.3892149 242.018427,46.179 C242.021966,46.0089062 241.960814,45.8438017 241.847308,45.717 C241.595135,45.435 241.165839,45.453 240.826605,45.768 C240.016046,46.551 238.860248,46.947 237.395238,46.947 C236.422987,46.9722217 235.460252,46.7502848 234.597308,46.302 C233.825467,45.8867538 233.19751,45.2477248 232.796066,44.469 C231.941086,42.6499397 231.962082,40.5407036 232.853106,38.739 C233.280449,37.9439608 233.924852,37.286478 234.711387,36.843 C235.530069,36.3962382 236.450539,36.1688632 237.38323,36.183 C238.333932,36.1542016 239.275968,36.3712062 240.118116,36.813 C240.813171,37.1903297 241.387563,37.7560068 241.775259,38.445 C242.135549,39.104656 242.323474,39.8444865 242.321636,40.596 C242.342759,41.2381119 242.246101,41.8786651 242.036439,42.486 C241.903281,42.8785115 241.669325,43.229204 241.357971,43.503 C241.152411,43.6828967 240.892323,43.7885508 240.619462,43.803 C240.406423,43.8219576 240.193587,43.7645315 240.019048,43.641 C239.884076,43.4811716 239.821079,43.2727724 239.844928,43.065 C239.844928,43.026 239.844928,42.906 239.901967,42.558 L240.502381,39.063 C240.521989,39.0050739 240.531138,38.9441259 240.5294,38.883 C240.536457,38.7053498 240.467711,38.5330579 240.340269,38.409 C240.211489,38.2904653 240.04088,38.2278798 239.865942,38.235 C239.703584,38.232112 239.544974,38.2838889 239.415631,38.382 C239.287099,38.4812348 239.202085,38.6264127 239.178468,38.787 L239.157453,38.904 C239.016261,38.7199964 238.843455,38.562546 238.647101,38.439 C238.245324,38.1879717 237.778907,38.0597174 237.305176,38.07 C236.665626,38.0625327 236.041653,38.2672151 235.530952,38.652 C235.011952,39.0485147 234.60447,39.5725017 234.348137,40.173 C234.071104,40.804629 233.929961,41.4873761 233.933851,42.177 C233.893273,42.923644 234.130677,43.6588745 234.600311,44.241 C235.041773,44.745625 235.686093,45.0262883 236.356522,45.006 C236.858586,45.016062 237.352822,44.8806055 237.779503,44.616 C238.071008,44.4273421 238.32961,44.1922274 238.545031,43.92 C238.639243,44.1957969 238.813838,44.4371367 239.046377,44.613 C239.449448,44.8929188 239.934128,45.0311525 240.424327,45.006 C240.976933,45.0051143 241.517684,44.8458122 241.982402,44.547 C242.514895,44.1906707 242.93213,43.6872067 243.18323,43.098 C243.516579,42.3082754 243.67432,41.455625 243.645549,40.599 C243.655221,39.6286837 243.415403,38.6721397 242.949068,37.821 Z M238.809213,40.836 C238.811045,41.3316732 238.719383,41.8232515 238.539027,42.285 C238.374905,42.7113617 238.106566,43.0898716 237.758489,43.386 C237.429862,43.6627887 237.011342,43.8100232 236.581677,43.8 C236.232434,43.8076304 235.899535,43.6523844 235.681056,43.38 C235.409258,43.0217851 235.276004,42.5775574 235.305797,42.129 C235.306067,41.6564755 235.395701,41.1882588 235.569979,40.749 C235.727207,40.3379109 235.987752,39.974226 236.326501,39.693 C236.645362,39.4302507 237.048101,39.2907734 237.461284,39.3 C237.827243,39.2799144 238.184039,39.418816 238.439959,39.681 C238.705811,40.0049219 238.837888,40.4180474 238.809213,40.836 Z" id="Shape" fill="#979BA0" fill-rule="nonzero"></path>
        <path d="M222.045135,15.09 L212.330435,15.09 C211.860677,15.0766033 211.406146,15.2571991 211.073842,15.589274 C210.741538,15.921349 210.560818,16.3755662 210.574224,16.845 L210.574224,35.463 C210.532787,37.7958674 210.196904,40.1141836 209.574534,42.363 C209.435722,42.8284572 209.487762,43.3299664 209.719192,43.7570573 C209.950623,44.1841482 210.342457,44.501785 210.808385,44.64 C210.983631,44.6860323 211.164665,44.7062455 211.345756,44.7 C212.155542,44.7001183 212.868927,44.1678899 213.098965,43.392 C213.821681,40.8073276 214.208126,38.1403712 214.248758,35.457 L214.248758,34.68 L220.141822,34.68 L220.141822,39.753 C220.141822,43.305 218.418634,44.175 217.890269,44.358 L217.827226,44.379 C216.993402,44.6832325 216.497983,45.5412502 216.651698,46.4149008 C216.805413,47.2885515 217.563994,47.9262377 218.451656,47.928 C218.666639,47.927661 218.879938,47.8901057 219.082091,47.817 C220.189855,47.436 223.801346,45.717 223.801346,39.753 L223.801346,16.845 C223.814752,16.3755662 223.634031,15.921349 223.301727,15.589274 C222.969423,15.2571991 222.514892,15.0766033 222.045135,15.09 Z M214.239752,18.603 L220.141822,18.603 L220.141822,23.13 L214.233747,23.13 L214.239752,18.603 Z M214.239752,31.17 L214.239752,26.643 L220.141822,26.643 L220.141822,31.17 L214.239752,31.17 Z M206.734576,18.87 L207.295963,18.87 C207.94126,18.8966557 208.54929,18.5678207 208.879886,18.0133817 C209.210482,17.4589428 209.210482,16.7680572 208.879886,16.2136183 C208.54929,15.6591793 207.94126,15.3303443 207.295963,15.357 L206.734576,15.357 L206.734576,13.896 C206.761776,13.2250733 206.419097,12.5931446 205.841767,12.2495881 C205.264437,11.9060315 204.545191,11.9060315 203.967861,12.2495881 C203.390531,12.5931446 203.047851,13.2250733 203.075052,13.896 L203.075052,15.357 L197.371118,15.357 L197.371118,13.896 C197.398319,13.2250733 197.055639,12.5931446 196.478309,12.2495881 C195.900979,11.9060315 195.181733,11.9060315 194.604403,12.2495881 C194.027073,12.5931446 193.684394,13.2250733 193.711594,13.896 L193.711594,15.357 L192.432712,15.357 C191.490193,15.3959332 190.746156,16.1708264 190.746156,17.1135 C190.746156,18.0561736 191.490193,18.8310668 192.432712,18.87 L193.678571,18.87 L193.678571,34.383 L192.432712,34.383 C191.490193,34.4219332 190.746156,35.1968264 190.746156,36.1395 C190.746156,37.0821736 191.490193,37.8570668 192.432712,37.896 L207.271946,37.896 C207.917244,37.9226557 208.525274,37.5938207 208.855869,37.0393817 C209.186465,36.4849428 209.186465,35.7940572 208.855869,35.2396183 C208.525274,34.6851793 207.917244,34.3563443 207.271946,34.383 L206.710559,34.383 L206.734576,18.87 Z M197.362112,25.212 L203.066046,25.212 L203.066046,28.041 L197.362112,28.041 L197.362112,25.212 Z M203.066046,18.87 L203.066046,21.699 L197.362112,21.699 L197.362112,18.87 L203.066046,18.87 Z M197.362112,34.383 L197.362112,31.56 L203.066046,31.56 L203.066046,34.389 L197.362112,34.383 Z M206.968737,42.942 C207.660141,43.6600979 207.649484,44.7990201 206.944763,45.5040722 C206.240042,46.2091243 205.100347,46.2210945 204.380952,45.531 L201.937267,43.092 C201.474468,42.6295197 201.293724,41.9554399 201.46312,41.32368 C201.632516,40.6919201 202.126318,40.1984595 202.758513,40.0291799 C203.390709,39.8599004 204.065254,40.0405196 204.528054,40.503 L206.968737,42.942 Z M197.884472,40.5 C198.598284,41.2144288 198.598284,42.3715712 197.884472,43.086 L194.281988,46.686 C193.826267,47.178807 193.137199,47.3828536 192.486379,47.2177155 C191.835559,47.0525774 191.327372,46.5447418 191.16212,45.8943702 C190.996868,45.2439986 191.201056,44.5554065 191.694203,44.1 L195.296687,40.5 C196.012638,39.7863352 197.171523,39.7863352 197.887474,40.5 L197.884472,40.5 Z" id="Shape" fill="#303842" fill-rule="nonzero"></path>
        <path d="M157.023292,24.138 C156.30948,23.4235712 156.30948,22.2664288 157.023292,21.552 L163.075466,15.504 C163.534541,15.0260937 164.21623,14.833433 164.857778,15.0002788 C165.499326,15.1671246 166.00055,15.667423 166.168255,16.3083344 C166.335959,16.9492458 166.143956,17.6306881 165.666253,18.09 L159.611077,24.138 C158.896155,24.8513199 157.738214,24.8513199 157.023292,24.138 Z M186.362526,23.973 L175.020704,12.624 C174.346659,11.9241048 173.25189,11.8476275 172.486957,12.447 C172.09116,12.7759993 171.852515,13.2565111 171.829657,13.7704735 C171.806798,14.2844359 172.001845,14.7842096 172.366874,15.147 L183.720704,26.496 C184.395763,27.1963194 185.491556,27.2727777 186.257453,26.673 C186.650382,26.3413036 186.885603,25.8597646 186.905591,25.3461463 C186.925579,24.832528 186.728491,24.3341885 186.362526,23.973 Z M181.16294,27.24 L157.413561,27.24 C156.390963,27.2805765 155.582881,28.1208023 155.582881,29.1435 C155.582881,30.1661977 156.390963,31.0064235 157.413561,31.047 L163.868012,31.047 C163.515721,32.6868335 162.974753,34.2804291 162.255901,35.796 C160.418634,39.732 157.026294,42.63 156.993271,42.657 C156.473091,43.094829 156.226165,43.7767211 156.345507,44.4458142 C156.46485,45.1149073 156.93233,45.6695502 157.571853,45.9008142 C158.211376,46.1320783 158.925783,46.004829 159.445963,45.567 C159.611077,45.429 163.50176,42.123 165.70528,37.404 C166.667209,35.3865584 167.350907,33.2480712 167.737681,31.047 L179.259627,31.047 L179.259627,37.392 C179.259627,43.845 172.79617,44.142 172.054658,44.154 C171.003488,44.1589706 170.155378,45.0145544 170.160352,46.065 C170.165326,47.1154456 171.0215,47.9629706 172.072671,47.958 C173.925223,47.8868493 175.744531,47.4440687 177.42236,46.656 C179.986128,45.423 183.039234,42.813 183.039234,37.392 L183.039234,29.145 C183.026747,28.1097102 182.198616,27.2689086 181.16294,27.24 Z" id="Shape" fill="#303842" fill-rule="nonzero"></path>
        <path d="M151.04617,27.756 C151.04617,28.260962 150.845231,28.7451983 150.487641,29.1019789 C150.130052,29.4587594 149.645165,29.6587965 149.139855,29.658 L132.496377,29.658 L132.496377,46.098 C132.496377,46.602962 132.295438,47.0871983 131.937848,47.4439789 C131.580259,47.8007594 131.095372,48.0007965 130.590062,48 C130.084752,48.0007965 129.599866,47.8007594 129.242276,47.4439789 C128.884686,47.0871983 128.683747,46.602962 128.683747,46.098 L128.683747,29.658 L116.630435,29.658 C115.579264,29.658 114.727122,28.8064456 114.727122,27.756 C114.727122,26.7055544 115.579264,25.854 116.630435,25.854 L128.686749,25.854 L128.686749,13.902 C128.686749,12.8515544 129.538892,12 130.590062,12 C131.641233,12 132.493375,12.8515544 132.493375,13.902 L132.493375,17.049 L145.429296,17.049 C146.439502,17.0506549 147.257558,17.8694893 147.257557,18.879 C147.257557,19.8880242 146.439017,20.706 145.429296,20.706 L132.496377,20.706 L132.496377,25.854 L149.139855,25.854 C149.645165,25.8532035 150.130052,26.0532406 150.487641,26.4100211 C150.845231,26.7668017 151.04617,27.251038 151.04617,27.756 Z M139.455176,33.045 C138.709077,32.2994156 137.499412,32.2994156 136.753313,33.045 C136.007214,33.7905844 136.007214,34.9994156 136.753313,35.745 L143.357867,42.33 C143.840509,42.8123086 144.543974,43.0006716 145.203275,42.8241344 C145.862575,42.6475972 146.377547,42.1329801 146.554206,41.4741343 C146.730865,40.8152886 146.542372,40.1123085 146.059731,39.63 L139.455176,33.045 Z" id="Shape" fill="#303842" fill-rule="nonzero"></path>
        <path d="M109.920807,25.476 C109.948008,26.1469267 109.605328,26.7788554 109.027998,27.1224119 C108.450668,27.4659685 107.731423,27.4659685 107.154093,27.1224119 C106.576763,26.7788554 106.234083,26.1469267 106.261284,25.476 L106.261284,20.937 L95.0305383,20.937 L95.0305383,24.342 C97.0538007,25.6925329 99.211837,26.8296218 101.469979,27.735 C104.056261,28.7247662 106.749337,29.4094009 109.494513,29.775 C110.428154,29.8695062 111.12249,30.6808041 111.071103,31.6171676 C111.019716,32.5535312 110.240764,33.2840875 109.302381,33.276 C109.23741,33.2803878 109.172217,33.2803878 109.107246,33.276 C103.412657,32.5764782 97.9623856,30.5489368 93.1962733,27.357 C88.4297492,30.5481335 82.9796755,32.5756014 77.2853002,33.276 C77.2203294,33.2803878 77.1551364,33.2803878 77.0901656,33.276 C76.1517828,33.2840875 75.3728306,32.5535312 75.3214436,31.6171676 C75.2700566,30.6808041 75.9643929,29.8695062 76.8980331,29.775 C79.6432099,29.4094009 82.3362857,28.7247662 84.9225673,27.735 C87.1838201,26.8301851 89.3449001,25.6930827 91.3710145,24.342 L91.3710145,20.937 L80.1552795,20.937 L80.1552795,25.476 C80.1552795,26.4866811 79.3353952,27.306 78.3240166,27.306 C77.3138105,27.3043451 76.4957543,26.4855107 76.4957557,25.476 L76.4957557,19.176 C76.4957557,18.2067403 77.2820382,17.421 78.2519669,17.421 L91.3860248,17.421 L91.3860248,15.75 L80.2393375,15.75 C79.2968182,15.7110668 78.5527811,14.9361736 78.5527811,13.9935 C78.5527811,13.0508264 79.2968182,12.2759332 80.2393375,12.237 L106.162215,12.237 C107.104735,12.2759332 107.848772,13.0508264 107.848772,13.9935 C107.848772,14.9361736 107.104735,15.7110668 106.162215,15.75 L95.0305383,15.75 L95.0305383,17.424 L108.164596,17.424 C109.134525,17.424 109.920807,18.2097403 109.920807,19.179 L109.920807,25.476 Z M86.4596273,25.44 C87.429556,25.44 88.2158385,24.6542597 88.2158385,23.685 C88.2158385,22.7157403 87.429556,21.93 86.4596273,21.93 L83.9258799,21.93 C82.9559513,21.93 82.1696687,22.7157403 82.1696687,23.685 C82.1696687,24.6542597 82.9559513,25.44 83.9258799,25.44 L86.4596273,25.44 Z M94.4661491,33.3 C95.4086684,33.2610668 96.1527054,32.4861736 96.1527054,31.5435 C96.1527054,30.6008264 95.4086684,29.8259332 94.4661491,29.787 L91.6381988,29.787 C90.6956795,29.8259332 89.9516424,30.6008264 89.9516424,31.5435 C89.9516424,32.4861736 90.6956795,33.2610668 91.6381988,33.3 L94.4661491,33.3 Z M100.170083,21.924 C99.2001542,21.924 98.4138716,22.7097403 98.4138716,23.679 C98.4138716,24.6482597 99.2001542,25.434 100.170083,25.434 L102.70383,25.434 C103.673759,25.434 104.460041,24.6482597 104.460041,23.679 C104.460041,22.7097403 103.673759,21.924 102.70383,21.924 L100.170083,21.924 Z M105.597826,36.3 C105.597826,35.3307403 104.811544,34.545 103.841615,34.545 L82.5269151,34.545 C81.5569865,34.545 80.7707039,35.3307403 80.7707039,36.3 C80.7707039,37.2692597 81.5569865,38.055 82.5269151,38.055 L101.770186,38.055 C101.635385,38.3763225 101.430216,38.6633602 101.169772,38.895 C99.1854037,40.764 93.7936853,41.187 90.8576605,41.016 C90.2809258,40.9692189 89.7107992,41.1649288 89.2845756,41.556 C88.9531097,41.8844201 88.7666553,42.3315476 88.7666553,42.798 C88.7666553,43.2644524 88.9531097,43.7115799 89.2845756,44.04 L92.4907867,47.244 C93.1771978,47.9299376 94.2900899,47.9299376 94.976501,47.2439999 C95.662912,46.5580623 95.662912,45.4459377 94.976501,44.76 L94.8173913,44.598 C97.7414079,44.361 101.478986,43.629 103.676501,41.559 C104.905734,40.4434393 105.603966,38.8593277 105.597826,37.2 L105.597826,36.3 Z" id="Shape" fill="#303842" fill-rule="nonzero"></path>
        <g id="Symbol" fill-rule="nonzero">
            <rect id="Rectangle-path" fill="url(#linearGradient-1)" x="0.282194617" y="0" width="60.0414079" height="60" rx="15.897"></rect>
            <path d="M27.4269151,16.65 C28.2044513,16.581 28.6127329,16.791 28.657764,17.283 C28.6727743,17.445 27.8201863,18.651 27.0516563,20.16 C26.2380952,21.753 25.4995859,23.676 25.2984472,24.771 C24.7804188,27.4917274 24.6369931,30.2704498 24.8721532,33.03 C25.1903727,36.588 26.2851277,38.283 28.1564182,38.115 C29.4613182,38.001 30.6371291,36.975 31.6838509,35.037 C32.7305728,33.099 33.4840925,30.584 33.9444099,27.492 C34.4071466,24.3131127 34.4907886,21.0905847 34.1935818,17.892 C34.0374741,16.134 33.4961008,14.834 32.5694617,13.992 C31.7273486,13.1897181 30.5786904,12.7914119 29.4202899,12.9 C28.4839757,13.0238829 27.5639303,13.249209 26.6763975,13.572 C26.0250285,13.8069918 25.3616388,14.0072735 24.6890269,14.172 C24.1216356,14.223 23.8184265,14.001 23.7733954,13.509 C23.7433747,13.177 23.9535197,12.783 24.4038302,12.327 C24.950146,11.8003679 25.5639117,11.3484313 26.229089,10.983 C28.0641286,9.91189727 30.1154945,9.26411271 32.2332298,9.087 C34.4067288,8.887 36.2229814,9.029 37.6819876,9.513 C39.0627936,9.94234262 40.3193067,10.6988182 41.3445135,11.718 C43.3759144,13.734 44.539717,16.404 44.8359213,19.728 C45.0472858,21.9506998 44.9248483,24.1924902 44.4726708,26.379 C44.0704055,28.3697584 43.3464397,30.281777 42.3291925,32.04 C41.3691351,33.6716168 40.1768582,35.1551242 38.7897516,36.444 C36.0532624,38.9782051 32.5397071,40.5133342 28.8198758,40.8 C24.9031746,41.148 21.8060386,40.4 19.5284679,38.556 C17.3069358,36.768 16.0490683,34.218 15.7548654,30.906 C15.5627329,28.764 15.5687371,26.706 16.2442029,24.924 C17.529089,21.507 19.6515528,19.506 22.3263975,18.096 C23.9130937,17.2789995 25.6472739,16.7873583 27.4269151,16.65 Z" id="Shape" fill="#FFFFFF"></path>
            <path d="M19.6935818,51 C19.0661491,51.051 18.720911,50.7 18.6608696,49.986 C18.5738095,48.903 18.6038302,47.472 18.7899586,47.049 C19.1016404,46.5082151 19.6269693,46.1237478 20.2369565,45.99 C20.855383,45.873 38.3004141,44.397 38.3004141,44.397 C38.9288475,44.347 39.2730849,44.685 39.3331263,45.411 C39.4201863,46.494 39.3871636,47.967 39.2040373,48.351 C38.8789454,48.8802879 38.3577983,49.2598267 37.7540373,49.407 C37.1386128,49.521 19.6935818,51 19.6935818,51 Z" id="Shape" fill="#FFFFFF"></path>
        </g>
    </g>
</svg>