<?xml version="1.0" encoding="UTF-8"?>
<svg width="124px" height="124px" viewBox="0 0 124 124" version="1.1" xmlns="http://www.w3.org/2000/svg" xmlns:xlink="http://www.w3.org/1999/xlink">
    <!-- Generator: Sketch 52.3 (67297) - http://www.bohemiancoding.com/sketch -->
    <title>Moto / icon_purchase_step04</title>
    <desc>Created with Sketch.</desc>
    <g id="Moto-/-icon_purchase_step04" stroke="none" stroke-width="1" fill="none" fill-rule="evenodd">
        <g id="Group-16" transform="translate(1.000000, 11.000000)">
            <g id="Group-19" transform="translate(21.000000, 21.000000)">
                <rect id="Rectangle" fill="#FFF3B5" fill-rule="nonzero" x="7" y="5" width="74" height="56" rx="9"></rect>
                <g id="mail" fill="#7B7B7B">
                    <g id="Group" transform="translate(13.500000, 26.739130)">
                        <path d="M49.2725,16.4165217 C48.965,16.4165217 48.6575,16.3030435 48.4175,16.0735652 L34.0325,2.46121739 C33.53,1.98713043 33.505,1.18773913 33.9775,0.680869565 C34.45,0.168956522 35.2375,0.14626087 35.745,0.625391304 L50.13,14.2377391 C50.6325,14.7118261 50.6575,15.5112174 50.185,16.018087 C49.9375,16.2828696 49.6075,16.4165217 49.2725,16.4165217 Z" id="Path"></path>
                        <path d="M1.255,16.4165217 C0.9225,16.4165217 0.59,16.2828696 0.3425,16.018087 C-0.13,15.5112174 -0.105,14.7118261 0.3975,14.2377391 L14.7875,0.625391304 C15.2925,0.151304348 16.085,0.171478261 16.555,0.680869565 C17.0275,1.18773913 17.0025,1.98713043 16.5,2.46121739 L2.11,16.0735652 C1.87,16.3030435 1.5625,16.4165217 1.255,16.4165217 Z" id="Path"></path>
                    </g>
                    <path d="M71.28,55.8122609 L6.25,55.8122609 C2.805,55.8122609 0,52.9853913 0,49.507913 L0,6.51982609 C0,3.04234783 2.805,0.215478261 6.25,0.215478261 L71.28,0.215478261 C74.725,0.215478261 77.53,3.04234783 77.53,6.51982609 L77.53,49.507913 C77.53,52.9853913 74.725,55.8122609 71.28,55.8122609 Z M6.25,2.73721739 C4.1825,2.73721739 2.5,4.43434783 2.5,6.51982609 L2.5,49.507913 C2.5,51.5933913 4.1825,53.2905217 6.25,53.2905217 L71.28,53.2905217 C73.3475,53.2905217 75.03,51.5933913 75.03,49.507913 L75.03,6.51982609 C75.03,4.43434783 73.3475,2.73721739 71.28,2.73721739 L6.25,2.73721739 Z" id="Shape" fill-rule="nonzero"></path>
                    <path d="M38.765,34.3497391 C37.1025,34.3497391 35.44,33.7924348 34.175,32.6803478 L2.075,4.43434783 C1.555,3.97791304 1.5,3.18104348 1.9525,2.654 C2.41,2.12947826 3.1975,2.08156522 3.7175,2.53295652 L35.8175,30.7764348 C37.415,32.1810435 40.115,32.1810435 41.71,30.7764348 L73.77,2.57834783 C74.2875,2.12191304 75.075,2.17234783 75.535,2.6993913 C75.9875,3.22643478 75.935,4.02078261 75.415,4.47973913 L43.355,32.6778261 C42.0875,33.7924348 40.4275,34.3497391 38.765,34.3497391 Z" id="Path"></path>
                </g>
            </g>
            <path d="M32,102.196733 C29.2385763,102.196733 27,99.9141164 27,97.0983664 C27,94.2826164 29.2385763,92 32,92 C34.7614237,92 37,94.2826164 37,97.0983664 C37,99.9141164 34.7614237,102.196733 32,102.196733 Z M32,100.157386 C33.6568542,100.157386 35,98.7878164 35,97.0983664 C35,95.4089164 33.6568542,94.0393465 32,94.0393465 C30.3431458,94.0393465 29,95.4089164 29,97.0983664 C29,98.7878164 30.3431458,100.157386 32,100.157386 Z" id="Oval-2" fill="#7B7B7B" fill-rule="nonzero"></path>
            <path d="M108,20.1967327 C105.238576,20.1967327 103,17.9141164 103,15.0983664 C103,12.2826164 105.238576,10 108,10 C110.761424,10 113,12.2826164 113,15.0983664 C113,17.9141164 110.761424,20.1967327 108,20.1967327 Z M108,18.1573862 C109.656854,18.1573862 111,16.7878164 111,15.0983664 C111,13.4089164 109.656854,12.0393465 108,12.0393465 C106.343146,12.0393465 105,13.4089164 105,15.0983664 C105,16.7878164 106.343146,18.1573862 108,18.1573862 Z" id="Oval-2-Copy" fill="#7B7B7B" fill-rule="nonzero"></path>
            <path d="M7,32.6348785 L11,32.6348785 C11.5522847,32.6348785 12,33.0498997 12,33.5618542 C12,34.0738088 11.5522847,34.4888299 11,34.4888299 L7,34.4888299 L7,38.1967327 C7,38.7086873 6.55228475,39.1237084 6,39.1237084 C5.44771525,39.1237084 5,38.7086873 5,38.1967327 L5,34.4888299 L1,34.4888299 C0.44771525,34.4888299 0,34.0738088 0,33.5618542 C0,33.0498997 0.44771525,32.6348785 1,32.6348785 L5,32.6348785 L5,28.9269757 C5,28.4150212 5.44771525,28 6,28 C6.55228475,28 7,28.4150212 7,28.9269757 L7,32.6348785 Z" id="Combined-Shape" fill="#7B7B7B" fill-rule="nonzero"></path>
            <path d="M46,-2.13162821e-13 L49,-2.13162821e-13 L49,3.08991901 L46,3.08991901 L46,-2.13162821e-13 Z M46,6.17983802 L49,6.17983802 L49,9.26975703 L46,9.26975703 L46,6.17983802 Z M49,3.08991901 L52,3.08991901 L52,6.17983802 L49,6.17983802 L49,3.08991901 Z M43,3.08991901 L46,3.08991901 L46,6.17983802 L43,6.17983802 L43,3.08991901 Z" id="Combined-Shape" fill="#7B7B7B"></path>
            <path d="M116,66 L119,66 L119,69.089919 L116,69.089919 L116,66 Z M116,72.179838 L119,72.179838 L119,75.269757 L116,75.269757 L116,72.179838 Z M119,69.089919 L122,69.089919 L122,72.179838 L119,72.179838 L119,69.089919 Z M113,69.089919 L116,69.089919 L116,72.179838 L113,72.179838 L113,69.089919 Z" id="Combined-Shape-Copy-2" fill="#7B7B7B"></path>
            <path d="M94,90.6348785 L98,90.6348785 C98.5522847,90.6348785 99,91.0498997 99,91.5618542 C99,92.0738088 98.5522847,92.4888299 98,92.4888299 L94,92.4888299 L94,96.1967327 C94,96.7086873 93.5522847,97.1237084 93,97.1237084 C92.4477153,97.1237084 92,96.7086873 92,96.1967327 L92,92.4888299 L88,92.4888299 C87.4477153,92.4888299 87,92.0738088 87,91.5618542 C87,91.0498997 87.4477153,90.6348785 88,90.6348785 L92,90.6348785 L92,86.9269757 C92,86.4150212 92.4477153,86 93,86 C93.5522847,86 94,86.4150212 94,86.9269757 L94,90.6348785 Z" id="Combined-Shape-Copy" fill="#7B7B7B" fill-rule="nonzero"></path>
        </g>
    </g>
</svg>