<?xml version="1.0" encoding="UTF-8"?>
<svg width="70px" height="70px" viewBox="0 0 70 70" version="1.1" xmlns="http://www.w3.org/2000/svg" xmlns:xlink="http://www.w3.org/1999/xlink">
    <!-- Generator: Sketch 51.1 (57501) - http://www.bohemiancoding.com/sketch -->
    <title>icon_circle_yellow02_mobile</title>
    <desc>Created with Sketch.</desc>
    <defs></defs>
    <g id="icon_circle_yellow02_mobile" stroke="none" stroke-width="1" fill="none" fill-rule="evenodd">
        <g id="y" transform="translate(35.000000, 35.000000) rotate(-270.000000) translate(-35.000000, -35.000000) translate(3.000000, 3.000000)" stroke="#FFF892">
            <path d="M32,64 C49.673112,64 64,49.673112 64,32 C64,14.326888 49.673112,0 32,0 C14.326888,0 0,14.326888 0,32 C0,49.673112 14.326888,64 32,64 Z" id="Oval-5" stroke-width="2" stroke-linecap="round" stroke-linejoin="round" stroke-dasharray="3,6"></path>
            <path d="M32,64 C49.673112,64 64,49.673112 64,32 C64,14.326888 49.673112,0 32,0 C14.326888,0 0,14.326888 0,32" id="Oval-4" stroke-width="4" transform="translate(32.000000, 32.000000) rotate(-270.000000) translate(-32.000000, -32.000000) "></path>
        </g>
    </g>
</svg>