<?xml version="1.0" encoding="UTF-8"?>
<svg width="124px" height="124px" viewBox="0 0 124 124" version="1.1" xmlns="http://www.w3.org/2000/svg" xmlns:xlink="http://www.w3.org/1999/xlink">
    <!-- Generator: Sketch 52.3 (67297) - http://www.bohemiancoding.com/sketch -->
    <title>Moto / icon_purchase_step01</title>
    <desc>Created with Sketch.</desc>
    <g id="Moto-/-icon_purchase_step01" stroke="none" stroke-width="1" fill="none" fill-rule="evenodd">
        <rect id="Rectangle-Copy-11" fill-rule="nonzero" x="0" y="0" width="124" height="124"></rect>
        <g id="Group-12" transform="translate(22.000000, 22.000000)">
            <circle id="Oval" fill="#FFEF97" fill-rule="nonzero" opacity="0.699999988" cx="66" cy="15" r="12"></circle>
            <g id="Group-11" fill="#7B7B7B">
                <path d="M78.7854003,47.3461914 C79.440918,47.3461914 79.9719238,46.8145752 79.9719238,46.159668 L79.9719238,14.2211914 C79.9719238,10.0970459 76.7700195,6.70898438 72.7215577,6.40502937 C70.5090331,2.58056641 66.3763428,0 61.64917,0 C56.9323731,0 52.8063966,2.56958 50.5908203,6.38000484 L38.8555908,6.38000484 C37.0739747,4.08630375 34.2926025,2.60620125 31.1700439,2.60620125 C25.8050537,2.60620125 21.4404297,6.97082516 21.4404297,12.335205 L21.4404297,15.1831055 L15.3375244,15.1831055 C14.7296142,15.1831055 14.2205811,15.6420898 14.1577148,16.2469483 L10.2337647,54.0087891 L2.45117187,54.0087891 L2.45117187,14.2211914 C2.45117187,11.2060547 4.90417484,8.75366219 7.91870125,8.75366219 L20.0909423,8.75366219 C20.74646,8.75366219 21.2774658,8.22204594 21.2774658,7.56652828 C21.2774658,6.91162109 20.74646,6.38000484 20.0909423,6.38000484 L7.91870125,6.38000484 C3.59558109,6.38000484 0.078125,9.89746094 0.078125,14.2211914 L0.078125,55.9857178 C0.078125,60.3491211 3.62731937,63.8989258 7.99011234,63.8989258 L11.5594483,63.8989258 C12.2149658,63.8989258 12.7459717,63.36792 12.7459717,62.7124023 C12.7459717,62.0574952 12.2149658,61.5258789 11.5594483,61.5258789 L7.99011234,61.5258789 C5.06896969,61.5258789 2.67089844,59.2523194 2.46704094,56.3818359 L77.5830078,56.3818359 C77.3791503,59.2523194 74.9804687,61.5258789 72.0587158,61.5258789 L15.5145264,61.5258789 C14.8590087,61.5258789 14.328003,62.0574952 14.328003,62.7124023 C14.328003,63.36792 14.8590087,63.8989258 15.5145264,63.8989258 L25.0268555,63.8989258 L23.4515381,70.4986572 L20.1696778,70.4986572 C16.7602539,70.4986572 13.9868164,73.272705 13.9868164,76.6821289 L13.9868164,78.8134766 C13.9868164,79.4689941 14.5178222,80 15.1733398,80 L64.8754883,80 C65.5310059,80 66.0620117,79.4689941 66.0620117,78.8134766 L66.0620117,76.6821289 C66.0620117,73.272705 63.2885742,70.4986572 59.8791503,70.4986572 L56.59729,70.4986572 L55.0219727,63.8989258 L72.0587158,63.8989258 C76.4221191,63.8989258 79.9719237,60.3491211 79.9719237,55.9857178 L79.9719237,50.1147461 C79.9719237,49.4598389 79.440918,48.9282227 78.7854003,48.9282227 C78.1298828,48.9282227 77.5988769,49.4598389 77.5988769,50.1147461 L77.5988769,54.0087891 L59.7937012,54.0087891 L57.1026611,28.7963867 C57.0385742,28.1927491 56.5295409,27.7355956 55.9228516,27.7355956 L49.3768311,27.7355956 L48.1823731,16.2463378 C48.1195069,15.6420898 47.6104736,15.1831055 47.0025634,15.1831055 L40.8990478,15.1831055 L40.8990478,12.335205 C40.8990478,11.0705566 40.6536866,9.86267094 40.2130127,8.75305172 L49.5184327,8.75305172 C49.0960694,10.0219727 48.8635253,11.3769531 48.8635253,12.7856445 C48.8635253,19.8358155 54.5989991,25.5712891 61.64917,25.5712891 C68.6987305,25.5712891 74.4348144,19.8358155 74.4348144,12.7856445 C74.4348144,11.4825439 74.2376709,10.2252197 73.8739014,9.03991703 C76.0369873,9.76928719 77.5988769,11.8157959 77.5988769,14.2205811 L77.5988769,46.1590577 C77.5988769,46.8145752 78.1298828,47.3461914 78.7854003,47.3461914 Z M63.6889648,76.6821289 L63.6889648,77.6269531 L16.3598633,77.6269531 L16.3598633,76.6821289 C16.3598633,74.5812988 18.0688477,72.8717041 20.1696778,72.8717041 L59.8791503,72.8717041 C61.9799805,72.8717041 63.6889648,74.5812988 63.6889648,76.6821289 Z M54.1577148,70.4986572 L25.8911133,70.4986572 L27.4664306,63.8989258 L52.5823975,63.8989258 L54.1577148,70.4986572 Z M57.4072266,54.0081787 L32.4285889,54.0081787 L34.9792481,30.1086425 L48.2910156,30.1086425 L48.324585,30.1086425 L54.855957,30.1086425 L57.4072266,54.0081787 Z M45.9326172,17.5561523 L46.9909669,27.7355956 L33.9123534,27.7355956 C33.3062744,27.7355956 32.7972412,28.1933594 32.7325439,28.7963867 L30.0415039,54.0081788 L12.6196289,54.0081788 L16.4068603,17.5561523 L21.4404297,17.5561523 L21.4404297,20.1654053 C21.4404297,20.8209228 21.9714356,21.3519288 22.6269531,21.3519288 C23.2824706,21.3519288 23.8134766,20.8209228 23.8134766,20.1654053 L23.8134766,17.5561523 L38.5260009,17.5561523 L38.5260009,20.1654053 C38.5260009,20.8209228 39.0570069,21.3519288 39.7125244,21.3519288 C40.368042,21.3519288 40.8990478,20.8209228 40.8990478,20.1654053 L40.8990478,17.5561523 L45.9326172,17.5561523 Z M38.5260009,12.335205 L38.5260009,15.1831055 L23.8140869,15.1831055 L23.8140869,12.335205 C23.8140869,8.27880859 27.1136475,4.97924813 31.1700439,4.97924813 C32.7795409,4.97924813 34.2687987,5.49987797 35.480957,6.38000484 L28.15979,6.38000484 C27.5042725,6.38000484 26.9732666,6.91162109 26.9732666,7.56652828 C26.9732666,8.22204594 27.5042725,8.75366219 28.15979,8.75366219 L37.5915528,8.75366219 C38.1860352,9.81384281 38.5260009,11.0357666 38.5260009,12.335205 Z M61.64917,23.1982422 C55.9075928,23.1982422 51.2365722,18.5272217 51.2365722,12.7856445 C51.2365722,7.04406734 55.9075928,2.37304688 61.64917,2.37304688 C67.390747,2.37304688 72.0617675,7.04406734 72.0617675,12.7856445 C72.0617675,18.5272217 67.390747,23.1982422 61.64917,23.1982422 Z" id="Shape" fill-rule="nonzero"></path>
                <path d="M44.9176025,42.7301025 C42.7587891,42.7301025 41.0021972,40.9741211 41.0021972,38.8146972 L41.0021972,33.7127686 C41.0021972,33.0578613 40.4711914,32.5262452 39.8156737,32.5262452 C39.1601562,32.5262452 38.6291503,33.0578613 38.6291503,33.7127686 L38.6291503,38.8146972 C38.6291503,42.2821045 41.4501953,45.1031494 44.9176025,45.1031494 C48.3850097,45.1031494 51.2060547,42.2821045 51.2060547,38.8146972 L51.2060547,33.7127686 C51.2060547,33.0578613 50.6750487,32.5262452 50.0195312,32.5262452 C49.3640137,32.5262452 48.8330078,33.0578613 48.8330078,33.7127686 L48.8330078,38.8146972 C48.8330078,40.9741211 47.0770264,42.7301025 44.9176025,42.7301025 Z" id="Path"></path>
                <path d="M66.4898681,6.17370609 C65.8996581,5.88745125 65.1898194,6.1328125 64.9035644,6.72180172 L60.3637695,16.0620117 L58.3068847,12.3602295 C57.9888916,11.7871094 57.2668456,11.5808106 56.6937256,11.8988037 C56.1206055,12.2174072 55.9143066,12.9394531 56.2322998,13.5125733 L59.3963623,19.2077637 C59.6063233,19.5849609 60.0036622,19.8181153 60.43396,19.8181153 C60.4443359,19.8181153 60.4553222,19.8181153 60.4663086,19.8175048 C60.9088134,19.8059081 61.3073731,19.5483398 61.5008545,19.1503906 L67.0379639,7.75939937 C67.3248291,7.17041016 67.0788575,6.45996094 66.4898681,6.17370609 Z" id="Path"></path>
                <path d="M74.4439697,31.3684081 L63.0535889,31.3684081 C62.3980712,31.3684081 61.8670655,31.9000244 61.8670655,32.5549316 C61.8670655,33.2104492 62.3980712,33.741455 63.0535889,33.741455 L74.4439697,33.741455 C75.0994873,33.741455 75.6304931,33.2104492 75.6304931,32.5549316 C75.6304931,31.9000244 75.0994873,31.3684081 74.4439697,31.3684081 Z" id="Path"></path>
                <path d="M74.4439697,36.906128 L65.4266358,36.906128 C64.7711181,36.906128 64.2401123,37.4371337 64.2401123,38.0926514 C64.2401123,38.7481689 64.7711181,39.2791748 65.4266358,39.2791748 L74.4439697,39.2791748 C75.0994873,39.2791748 75.6304931,38.7481689 75.6304931,38.0926514 C75.6304931,37.4371337 75.0994873,36.906128 74.4439697,36.906128 Z" id="Path"></path>
            </g>
            <rect id="Rectangle" fill="#F9F9F9" fill-rule="nonzero" x="6" y="34" width="51" height="16" rx="8"></rect>
            <rect id="Rectangle" fill="#FFF3B5" fill-rule="nonzero" style="mix-blend-mode: multiply;" x="10" y="37" width="51" height="14" rx="7"></rect>
            <rect id="Rectangle" stroke="#7B7B7B" stroke-width="2" fill-rule="nonzero" x="7" y="35" width="49" height="14" rx="7"></rect>
            <text id="立即購買" font-family="rounded-x-mgenplus-1pp-bold, Rounded-X Mgen+ 1pp" font-size="10" font-weight="bold" fill="#7B7B7B">
                <tspan x="12" y="46">立即購買</tspan>
            </text>
        </g>
    </g>
</svg>